<svg width="18" height="24" viewBox="0 0 18 24" fill="none" xmlns="http://www.w3.org/2000/svg">
<g clip-path="url(#clip0_403_6293)">
<path d="M14.9701 13.07C15.6101 12.1 16.0901 11.01 16.2601 9.86C16.9101 5.46 13.7901 1.04 9.04015 0.76C8.88015 0.76 8.71015 0.75 8.54015 0.75C8.37015 0.75 8.21015 0.75 8.04015 0.76C3.31015 1.04 0.190149 5.46 0.830149 9.86C1.00015 11.01 1.47015 12.1 2.12015 13.07L8.54015 22.75L14.9601 13.07H14.9701Z" stroke="#12231A" stroke-width="1.5" stroke-linecap="round" stroke-linejoin="round"/>
<path d="M8.54988 12.39C10.3006 12.39 11.7199 10.9708 11.7199 9.22005C11.7199 7.46931 10.3006 6.05005 8.54988 6.05005C6.79914 6.05005 5.37988 7.46931 5.37988 9.22005C5.37988 10.9708 6.79914 12.39 8.54988 12.39Z" stroke="#12231A" stroke-width="1.5" stroke-linecap="round" stroke-linejoin="round"/>
</g>
<defs>
<clipPath id="clip0_403_6293">
<rect width="17.1" height="23.5" fill="white"/>
</clipPath>
</defs>
</svg>
