<svg width="23" height="25" viewBox="0 0 23 25" fill="none" xmlns="http://www.w3.org/2000/svg">
<g clip-path="url(#clip0_562_10783)">
<path d="M9.50966 15.56C9.05966 15.03 8.65966 14.53 8.22966 14.05C7.79966 13.57 7.43966 13.05 7.08966 12.52C6.73966 11.97 6.42966 11.4 6.27966 10.76C6.07966 9.91 6.31966 9.18 6.96966 8.76C7.50966 8.41 7.96966 7.96 8.43966 7.53C8.97966 7.04 9.19966 6.42 9.10966 5.7C9.07966 5.46 8.99966 5.22 8.92966 4.98C8.69966 4.27 8.27966 3.65 7.87966 3.03C7.47966 2.39 7.07966 1.75 6.51966 1.24C6.08966 0.850002 5.59966 0.650002 5.00966 0.810002C4.68966 0.900002 4.41966 1.06 4.16966 1.29C3.89966 1.55 3.60966 1.78 3.31966 2.02C3.15966 2.16 2.97966 2.28 2.83966 2.43C1.46966 3.83 0.779664 5.52 0.749664 7.47C0.729664 9.12 1.17966 10.66 1.85966 12.14C2.45966 13.44 3.23966 14.62 4.08966 15.76C4.51966 16.34 4.99966 16.88 5.46966 17.43C6.20966 18.3 6.95966 19.15 7.83966 19.88C8.45966 20.39 9.07966 20.91 9.73966 21.37C10.7597 22.07 11.8397 22.64 13.0297 23C15.6197 23.77 18.0097 23.45 20.1397 21.7C20.5897 21.33 21.0097 20.92 21.4197 20.5C21.9397 19.96 21.9997 19.26 21.5797 18.63C21.4097 18.38 21.2397 18.12 21.0197 17.92C20.4097 17.35 19.7797 16.8 19.1397 16.26C18.7397 15.93 18.3097 15.64 17.8297 15.44C17.0497 15.12 16.3097 15.16 15.6197 15.65C15.3197 15.86 15.0497 16.12 14.7797 16.36C14.4797 16.63 14.1997 16.9 13.9097 17.18C13.6297 17.45 13.2897 17.56 12.9097 17.57C12.2197 17.57 11.6397 17.28 11.1097 16.89C10.5397 16.47 10.0197 15.99 9.49966 15.56H9.50966Z" stroke="#12231A" stroke-width="1.5" stroke-linecap="round" stroke-linejoin="round"/>
<path d="M9.5092 15.56C10.0192 15.99 10.5492 16.48 11.1192 16.89C11.6492 17.28 12.2292 17.57 12.9192 17.57C13.3092 17.57 13.6392 17.46 13.9192 17.18C14.2092 16.9 14.4892 16.63 14.7892 16.36C15.0592 16.11 15.3292 15.86 15.6292 15.65C16.3192 15.16 17.0692 15.12 17.8392 15.44C18.3192 15.64 18.7592 15.92 19.1492 16.26C19.7892 16.8 20.4192 17.35 21.0292 17.92C21.2492 18.12 21.4192 18.38 21.5892 18.63C21.9992 19.26 21.9492 19.96 21.4292 20.5C21.0192 20.92 20.5992 21.33 20.1492 21.7C18.0292 23.45 15.6292 23.78 13.0392 23C11.8492 22.65 10.7792 22.07 9.7492 21.37C9.0792 20.92 8.4692 20.4 7.8492 19.88C6.9692 19.15 6.2092 18.3 5.4792 17.43C5.0092 16.88 4.5292 16.34 4.0992 15.76C3.2492 14.62 2.4592 13.44 1.8692 12.14C1.1892 10.66 0.729198 9.11999 0.759198 7.46999C0.789198 5.51999 1.4792 3.82999 2.8392 2.41999C2.9892 2.26999 3.1592 2.14999 3.3192 2.00999C3.5992 1.76999 3.8992 1.52999 4.1692 1.27999C4.4092 1.04999 4.6892 0.889992 5.0092 0.799992C5.5892 0.639992 6.0892 0.839992 6.5192 1.22999C7.0792 1.73999 7.4792 2.38999 7.8792 3.01999C8.2792 3.63999 8.6992 4.25999 8.9292 4.96999C8.9992 5.19999 9.0792 5.43999 9.1092 5.68999C9.1992 6.40999 8.9792 7.01999 8.4392 7.51999C7.9692 7.94999 7.5192 8.39999 6.9692 8.74999C6.3192 9.16999 6.0892 9.89999 6.2792 10.75C6.4292 11.39 6.7392 11.96 7.0892 12.51C7.4292 13.05 7.7992 13.57 8.2292 14.04C8.6592 14.52 9.0692 15.02 9.5092 15.55V15.56Z" stroke="#12231A" stroke-width="1.5" stroke-linecap="round" stroke-linejoin="round"/>
</g>
<defs>
<clipPath id="clip0_562_10783">
<rect width="22.61" height="24.15" fill="white"/>
</clipPath>
</defs>
</svg>
