<svg width="180" height="89" viewBox="0 0 180 89" fill="none" xmlns="http://www.w3.org/2000/svg">
<path d="M25.2436 43.6797H14.7719C14.6618 43.1649 14.5738 42.6307 14.5053 42.0747C14.4368 41.5211 14.4025 40.851 14.4025 40.0643H14.0332C14.0332 40.6324 13.8351 41.2492 13.4388 41.912C13.0425 42.5749 12.409 43.1431 11.5357 43.619C10.6625 44.0925 9.49081 44.3304 8.01826 44.3304C6.00024 44.3304 4.4054 43.9905 3.23128 43.3155C2.0596 42.638 1.22549 41.7663 0.736271 40.6956C0.244608 39.6272 0 38.469 0 37.2234V35.2736C0 32.6756 0.816992 30.7792 2.45342 29.5895C4.08985 28.3997 6.85637 27.8024 10.7579 27.8024C11.3034 27.8024 11.8562 27.8169 12.4139 27.8437C12.9716 27.8704 13.566 27.9116 14.1946 27.9651C14.2484 27.5037 14.1751 27.1662 13.9696 26.9501C13.7641 26.734 13.5122 26.6126 13.2137 26.5835C12.6952 26.5301 12.1986 26.4815 11.7216 26.4426C11.2446 26.4014 10.7726 26.3819 10.3102 26.3819C8.12834 26.3819 6.29377 26.6393 4.80656 27.1541C3.31934 27.6688 2.155 28.169 1.30866 28.6571L0.572384 19.8868C2.97199 19.1826 5.21505 18.6679 7.30156 18.3449C9.38807 18.0196 11.3034 17.8569 13.0499 17.8569C16.8144 17.8569 19.7252 18.6072 21.7848 20.1102C23.8444 21.6132 24.8742 23.7984 24.8742 26.6685V38.9716C24.955 40.5693 25.0773 42.1378 25.2411 43.6821L25.2436 43.6797ZM13.3801 36.0458V33.4865C13.3801 33.3797 13.3312 33.1685 13.2358 32.8577C13.1404 32.5469 12.8199 32.3915 12.2744 32.3915C11.729 32.3915 11.4085 32.5469 11.3131 32.8577C11.2177 33.1685 11.1713 33.3797 11.1713 33.4865V36.0458C11.1713 36.1283 11.2177 36.3298 11.3131 36.6552C11.4085 36.9806 11.729 37.1433 12.2744 37.1433C12.8199 37.1433 13.1404 36.9806 13.2358 36.6552C13.3312 36.3298 13.3801 36.1283 13.3801 36.0458Z" fill="#12231A"/>
<path d="M45.9839 17.852C47.9481 17.852 49.4745 18.2381 50.5654 19.0103C51.6564 19.7824 52.4416 20.8046 52.9186 22.0769C53.3956 23.3493 53.6891 24.7575 53.7992 26.2994C53.9092 27.8437 53.9631 29.4001 53.9631 30.9686C53.9631 32.729 53.8823 34.4141 53.7185 36.0239C53.5546 37.6337 53.1583 39.0687 52.5321 40.3289C51.9035 41.5867 50.903 42.5773 49.5259 43.2936C48.1487 44.0099 46.2457 44.3547 43.8192 44.328C42.4836 44.3013 41.329 43.9953 40.3628 43.415C39.3942 42.8323 38.5968 42.1233 37.9706 41.2832C37.9437 41.6619 37.9167 42.0553 37.8898 42.4608C37.8629 42.8663 37.8214 43.2718 37.7675 43.6797H26.721C26.8311 42.8129 26.9118 41.946 26.9656 41.0816C27.0194 40.2148 27.0464 39.3625 27.0464 38.5224L26.8825 11.0315H39.0322V18.056L38.6628 23.9029H39.0322C39.0591 22.0089 39.6388 20.5254 40.7713 19.457C41.9039 18.3887 43.6406 17.852 45.9864 17.852H45.9839ZM41.9748 33.7706V28.288C41.9748 28.2054 41.9259 28.0039 41.8305 27.6785C41.7351 27.3532 41.4147 27.1905 40.8692 27.1905C40.3237 27.1905 40.0033 27.3532 39.9079 27.6785C39.8125 28.0039 39.7635 28.2054 39.7635 28.288V33.7706C39.7635 33.8799 39.81 34.0887 39.9079 34.3995C40.0033 34.7103 40.3237 34.8657 40.8692 34.8657C41.4147 34.8657 41.7351 34.7103 41.8305 34.3995C41.9259 34.0887 41.9748 33.8775 41.9748 33.7706Z" fill="#12231A"/>
<path d="M80.2658 43.6797H69.7941C69.6841 43.1649 69.596 42.6307 69.5275 42.0747C69.459 41.5211 69.4248 40.851 69.4248 40.0643H69.0554C69.0554 40.6324 68.8573 41.2492 68.461 41.912C68.0647 42.5749 67.4312 43.1431 66.5579 43.619C65.6847 44.0925 64.513 44.3304 63.0405 44.3304C61.0225 44.3304 59.4276 43.9905 58.2535 43.3155C57.0818 42.638 56.2477 41.7663 55.7585 40.6956C55.2668 39.6272 55.0222 38.469 55.0222 37.2234V35.2736C55.0222 32.6756 55.8392 30.7792 57.4756 29.5895C59.1121 28.3997 61.8786 27.8024 65.7801 27.8024C66.3256 27.8024 66.8784 27.8169 67.4361 27.8437C67.9938 27.8704 68.5882 27.9116 69.2168 27.9651C69.2706 27.5037 69.1973 27.1662 68.9918 26.9501C68.7863 26.734 68.5344 26.6126 68.236 26.5835C67.7174 26.5301 67.2208 26.4815 66.7438 26.4426C66.2669 26.4014 65.7948 26.3819 65.3325 26.3819C63.1505 26.3819 61.316 26.6393 59.8288 27.1541C58.3416 27.6688 57.1772 28.169 56.3309 28.6571L55.5946 19.8868C57.9942 19.1826 60.2373 18.6679 62.3238 18.3449C64.4103 18.0196 66.3256 17.8569 68.0721 17.8569C71.8366 17.8569 74.7474 18.6072 76.807 20.1102C78.8666 21.6132 79.8964 23.7984 79.8964 26.6685V38.9716C79.9772 40.5693 80.0995 42.1378 80.2634 43.6821L80.2658 43.6797ZM68.4023 36.0458V33.4865C68.4023 33.3797 68.3534 33.1685 68.258 32.8577C68.1626 32.5469 67.8421 32.3915 67.2967 32.3915C66.7512 32.3915 66.4308 32.5469 66.3354 32.8577C66.24 33.1685 66.1935 33.3797 66.1935 33.4865V36.0458C66.1935 36.1283 66.24 36.3298 66.3354 36.6552C66.4308 36.9806 66.7512 37.1433 67.2967 37.1433C67.8421 37.1433 68.1626 36.9806 68.258 36.6552C68.3534 36.3298 68.4023 36.1283 68.4023 36.0458Z" fill="#12231A"/>
<path d="M98.0195 33.8945L98.8781 43.7622C97.8972 43.9516 96.9408 44.0925 96.0137 44.1896C95.0866 44.2843 94.1987 44.3328 93.3548 44.3328C91.4175 44.3328 89.7003 44.0415 88.2009 43.4587C86.7015 42.876 85.5273 41.8343 84.6834 40.3313C83.8371 38.8284 83.4164 36.7111 83.4164 33.977V27.2779H81.2076V18.5076H83.4995L84.1551 15.2176L95.2016 14.1201V18.5052H98.1467V27.2755H95.2016V31.3353C95.2016 32.3381 95.3924 33.0204 95.774 33.3846C96.1556 33.7512 96.6864 33.9333 97.3688 33.9333H97.677C97.7993 33.9333 97.9167 33.9187 98.0244 33.892L98.0195 33.8945Z" fill="#12231A"/>
<path d="M116.593 33.8945L117.451 43.7622C116.47 43.9516 115.514 44.0925 114.587 44.1896C113.66 44.2843 112.772 44.3328 111.928 44.3328C109.991 44.3328 108.273 44.0415 106.774 43.4587C105.275 42.876 104.1 41.8343 103.257 40.3313C102.41 38.8284 101.989 36.7111 101.989 33.977V27.2779H99.7807V18.5076H102.073L102.728 15.2176L113.775 14.1201V18.5052H116.72V27.2755H113.775V31.3353C113.775 32.3381 113.966 33.0204 114.347 33.3846C114.729 33.7512 115.259 33.9333 115.942 33.9333H116.25C116.372 33.9333 116.49 33.9187 116.597 33.892L116.593 33.8945Z" fill="#12231A"/>
<path d="M143.796 34.8681C143.551 38.0635 142.281 40.4382 139.992 41.9946C137.7 43.551 134.674 44.3304 130.91 44.3304C127.145 44.3304 124.085 43.5534 121.808 41.9946C119.53 40.4382 118.268 38.0635 118.024 34.8681C117.997 34.4068 117.962 33.8192 117.921 33.1005C117.879 32.3842 117.86 31.6461 117.86 30.8885C117.86 30.1309 117.879 29.4001 117.921 28.776C117.962 28.1544 117.997 27.5984 118.024 27.1104C118.268 23.9441 119.538 21.6083 121.827 20.1053C124.119 18.6023 127.145 17.852 130.91 17.852C134.674 17.852 137.7 18.6096 139.992 20.1272C142.284 21.6423 143.551 23.9708 143.796 27.1104C143.879 28.0306 143.918 29.235 143.918 30.7258C143.918 31.5125 143.91 32.2749 143.898 33.0204C143.884 33.7658 143.852 34.3801 143.796 34.8681ZM132.013 33.6104V28.2103C132.013 28.1302 131.966 27.9262 131.871 27.6008C131.775 27.2755 131.455 27.1128 130.91 27.1128C130.364 27.1128 130.044 27.2755 129.948 27.6008C129.853 27.9262 129.804 28.1277 129.804 28.2103V33.6104C129.804 33.7196 129.85 33.9285 129.948 34.2393C130.044 34.5501 130.364 34.7054 130.91 34.7054C131.455 34.7054 131.775 34.5501 131.871 34.2393C131.966 33.9285 132.013 33.7172 132.013 33.6104Z" fill="#12231A"/>
<path d="M157.256 43.6797H145.474V18.5028H157.256V43.6797Z" fill="#12231A"/>
<path d="M177.3 17.852C177.627 17.852 178.028 17.8715 178.505 17.9128C178.982 17.954 179.481 18.0414 180 18.1774L178.772 31.3353L178.691 31.3765C178.283 31.2138 177.791 31.0585 177.219 30.9103C176.646 30.7622 175.952 30.687 175.132 30.687C174.533 30.687 173.892 30.7671 173.21 30.9298C172.527 31.0924 171.947 31.3765 171.47 31.782C170.993 32.1875 170.754 32.7703 170.754 33.5278V43.721L159.176 43.6797V24.8377C159.176 23.8907 159.162 22.8685 159.135 21.771C159.108 20.6735 159.025 19.5857 158.89 18.5028H168.423C168.968 19.5056 169.33 20.6419 169.506 21.9142C169.682 23.1866 169.785 24.3788 169.814 25.4884H170.142C170.142 25.1096 170.245 24.5075 170.448 23.6819C170.654 22.8563 171.02 21.9968 171.554 21.1033C172.084 20.2097 172.816 19.4449 173.743 18.8087C174.67 18.1726 175.856 17.8545 177.302 17.8545L177.3 17.852Z" fill="#12231A"/>
<path d="M26.3688 80.8854H10.4154L4.36137 55.7085H16.9196L18.1891 70.4081H18.556L19.7839 55.6672H32.3421L26.3688 80.8854Z" fill="#12231A"/>
<path d="M46.0867 55.1403C50.0151 55.1403 53.1363 55.9925 55.4552 57.6995C57.7741 59.404 58.9873 61.7884 59.0974 64.8454V69.4758H45.3528V71.7509C45.3528 72.4817 45.7198 72.8484 46.4585 72.8484C47.1972 72.8484 47.5641 72.4817 47.5641 71.7509V70.6947L58.9775 71.3041V72.1564C58.9775 75.1089 57.845 77.4011 55.5824 79.04C53.3173 80.679 50.1545 81.4972 46.0916 81.4972C42.4909 81.4972 39.6217 80.6863 37.4813 79.0619C35.341 77.4375 34.0373 75.1648 33.575 72.2389C33.4918 71.8868 33.4306 71.3454 33.3915 70.6145C33.3499 69.8837 33.3303 69.0314 33.3303 68.0553C33.3303 67.0792 33.3499 66.2634 33.3915 65.518C33.4331 64.7725 33.4942 64.2262 33.575 63.8741C34.0104 61.1401 35.3068 59.001 37.4618 57.4591C39.6143 55.9173 42.4934 55.1451 46.094 55.1451L46.0867 55.1403ZM50.6682 54.1253H40.808L45.0226 47.7904H56.4776L50.6682 54.1253ZM45.3504 65.0906V66.5523H47.5592V65.0906C47.5592 64.3598 47.1899 63.9931 46.4536 63.9931C45.7173 63.9931 45.348 64.3573 45.348 65.0906H45.3504Z" fill="#12231A"/>
<path d="M87.2005 61.1498L87.4059 76.2161C87.4328 78.1659 87.242 79.8996 86.8335 81.4147C86.425 82.9298 85.6937 84.1973 84.6443 85.2122C83.5949 86.2272 82.115 86.9993 80.2047 87.5262C78.2943 88.0531 75.8408 88.3178 72.8419 88.3178C72.2696 88.3178 71.5259 88.2983 70.6111 88.2571C69.6963 88.2158 68.7154 88.1478 67.666 88.0531C66.6167 87.9584 65.5869 87.837 64.5766 87.6865C63.5664 87.5384 62.6956 87.3538 61.9593 87.1377L62.8595 76.0098C64.469 76.5512 65.8657 76.8887 67.0521 77.0247C68.2384 77.1607 69.3489 77.2287 70.3861 77.2287C71.7216 77.2287 72.93 77.0587 74.0063 76.7212C75.0826 76.3837 75.7454 75.8349 75.99 75.0774C75.7454 75.1866 75.4593 75.2935 75.1315 75.4027C74.8037 75.512 74.3341 75.6067 73.7201 75.6868C73.1061 75.7694 72.2671 75.8082 71.2031 75.8082C67.6293 75.8082 64.9509 75.0628 63.1652 73.5744C61.3796 72.086 60.4868 69.9468 60.4868 67.1594V64.3573C60.4868 61.4339 61.1692 59.1539 62.5317 57.515C63.8942 55.876 66.2669 55.0577 69.6498 55.0577C71.5846 55.0577 73.0988 55.4025 74.1897 56.0921C75.2807 56.7817 75.88 57.9132 75.99 59.4841H76.3594C76.3594 58.8626 76.379 58.2313 76.4206 57.5951C76.4621 56.9589 76.5086 56.3301 76.5649 55.706H87.5698C87.4597 56.6263 87.3717 57.5417 87.3032 58.4473C87.2347 59.3555 87.2005 60.2538 87.2005 61.1474V61.1498ZM74.52 68.9052V64.1534C74.52 64.0441 74.471 63.8353 74.3756 63.5245C74.2802 63.2137 73.9598 63.0583 73.4143 63.0583C72.8689 63.0583 72.5484 63.2137 72.453 63.5245C72.3576 63.8353 72.3087 64.0465 72.3087 64.1534V68.9052C72.3087 68.9853 72.3552 69.1892 72.453 69.5146C72.5484 69.84 72.8689 70.0026 73.4143 70.0026C73.9598 70.0026 74.2802 69.84 74.3756 69.5146C74.471 69.1892 74.52 68.9877 74.52 68.9052Z" fill="#12231A"/>
<path d="M101.517 55.1403C105.446 55.1403 108.567 55.9925 110.886 57.6995C113.205 59.404 114.418 61.7884 114.528 64.8454V69.4758H100.784V71.7509C100.784 72.4817 101.15 72.8484 101.889 72.8484C102.628 72.8484 102.995 72.4817 102.995 71.7509V70.6947L114.408 71.3041V72.1564C114.408 75.1089 113.276 77.4011 111.013 79.04C108.748 80.679 105.585 81.4972 101.522 81.4972C97.9216 81.4972 95.0524 80.6863 92.9121 79.0619C90.7717 77.4375 89.468 75.1648 89.0057 72.2389C88.9225 71.8868 88.8613 71.3454 88.8222 70.6145C88.7806 69.8837 88.7611 69.0314 88.7611 68.0553C88.7611 67.0792 88.7806 66.2634 88.8222 65.518C88.8638 64.7725 88.9249 64.2262 89.0057 63.8741C89.4411 61.1401 90.7375 59.001 92.8925 57.4591C95.045 55.9173 97.9241 55.1451 101.525 55.1451L101.517 55.1403ZM106.099 54.1253H96.2387L100.453 47.7904H111.908L106.099 54.1253ZM100.781 65.0906V66.5523H102.99V65.0906C102.99 64.3598 102.621 63.9931 101.884 63.9931C101.148 63.9931 100.779 64.3573 100.779 65.0906H100.781Z" fill="#12231A"/>
<path d="M132.568 71.0977L133.427 80.9655C132.446 81.1549 131.489 81.2957 130.562 81.3928C129.635 81.4875 128.747 81.5361 127.903 81.5361C125.966 81.5361 124.249 81.2447 122.749 80.662C121.25 80.0792 120.076 79.0376 119.232 77.5346C118.386 76.0316 117.965 73.9143 117.965 71.1803V64.4812H115.756V55.7085H118.048L118.704 52.4184L129.75 51.3209V55.706H132.695V64.4787H129.75V68.5385C129.75 69.5413 129.941 70.2236 130.322 70.5902C130.704 70.9569 131.235 71.139 131.917 71.139H132.226C132.348 71.139 132.465 71.1269 132.573 71.0977H132.568Z" fill="#12231A"/>
<path d="M159.526 80.8854H149.055C148.945 80.3706 148.856 79.8364 148.788 79.2804C148.719 78.7268 148.685 78.0566 148.685 77.2699H148.316C148.316 77.8381 148.118 78.4548 147.721 79.1177C147.325 79.7806 146.692 80.3488 145.818 80.8222C144.945 81.2957 143.773 81.5337 142.301 81.5337C140.283 81.5337 138.688 81.1937 137.514 80.5187C136.342 79.8413 135.508 78.9696 135.019 77.8988C134.527 76.8305 134.283 75.6722 134.283 74.4266V72.4769C134.283 69.8788 135.1 67.9849 136.736 66.7927C138.373 65.6029 141.139 65.0056 145.041 65.0056C145.586 65.0056 146.139 65.0202 146.697 65.0469C147.254 65.0736 147.849 65.1149 148.477 65.1683C148.531 64.7094 148.458 64.3695 148.252 64.1534C148.047 63.9373 147.795 63.8159 147.496 63.7867C146.978 63.7333 146.481 63.6847 146.004 63.6435C145.527 63.6022 145.055 63.5828 144.593 63.5828C142.411 63.5828 140.576 63.8401 139.089 64.3549C137.602 64.8697 136.438 65.3698 135.591 65.8579L134.855 57.0876C137.255 56.3835 139.498 55.8687 141.584 55.5434C143.671 55.218 145.586 55.0553 147.333 55.0553C151.097 55.0553 154.008 55.8056 156.068 57.3086C158.127 58.8116 159.157 60.9969 159.157 63.8669V76.17C159.238 77.7677 159.36 79.3387 159.524 80.8805L159.526 80.8854ZM147.663 73.2514V70.6922C147.663 70.583 147.614 70.3742 147.518 70.0634C147.423 69.7526 147.103 69.5972 146.557 69.5972C146.012 69.5972 145.691 69.7526 145.596 70.0634C145.5 70.3742 145.454 70.5854 145.454 70.6922V73.2514C145.454 73.3316 145.5 73.5355 145.596 73.8609C145.691 74.1863 146.012 74.3489 146.557 74.3489C147.103 74.3489 147.423 74.1863 147.518 73.8609C147.614 73.5355 147.663 73.334 147.663 73.2514Z" fill="#12231A"/>
<path d="M174.866 73.6157L175.521 80.7227C174.675 80.9121 173.674 81.0529 172.515 81.15C171.356 81.2447 170.257 81.2909 169.223 81.2909C167.532 81.2909 166.052 81.0141 164.783 80.458C163.516 79.9044 162.533 78.8822 161.838 77.3913C161.143 75.9029 160.796 73.7492 160.796 70.935V48.2348H172.579V71.9087C172.579 72.6663 172.789 73.1665 173.212 73.4117C173.635 73.6545 174.188 73.7225 174.868 73.6132L174.866 73.6157Z" fill="#12231A"/>
<path d="M155.441 2.18599C156.865 1.59353 158.249 3.10623 157.52 4.45625C157.061 5.30851 157.445 6.36473 158.345 6.73138C159.773 7.31412 159.675 9.35372 158.198 9.79806C157.266 10.0773 156.784 11.0947 157.161 11.9858C157.758 13.3989 156.234 14.7732 154.874 14.0497C154.015 13.5932 152.951 13.9744 152.582 14.8679C151.995 16.2859 149.94 16.1888 149.492 14.7222C149.211 13.7971 148.186 13.3188 147.289 13.6927C145.865 14.2852 144.48 12.7725 145.209 11.4225C145.669 10.5702 145.285 9.51397 144.385 9.14733C142.956 8.56459 143.054 6.52499 144.532 6.08065C145.464 5.80142 145.946 4.78405 145.569 3.89294C144.972 2.47978 146.496 1.10548 147.856 1.82906C148.715 2.28554 149.779 1.90433 150.148 1.01079C150.735 -0.407219 152.79 -0.310095 153.237 1.15647C153.519 2.08158 154.544 2.55991 155.441 2.18599Z" fill="#12231A"/>
</svg>
