<svg width="550" height="270" viewBox="0 0 550 270" fill="none" xmlns="http://www.w3.org/2000/svg">
<path d="M77.1332 133.535H45.1364C44.8 131.961 44.531 130.328 44.3217 128.628C44.1124 126.936 44.0078 124.887 44.0078 122.482H42.8792C42.8792 124.219 42.2738 126.105 41.063 128.131C39.8521 130.158 37.9163 131.895 35.2481 133.349C32.5798 134.797 28.9997 135.524 24.5003 135.524C18.3341 135.524 13.4609 134.485 9.87335 132.422C6.29323 130.351 3.74455 127.686 2.24972 124.412C0.747415 121.146 0 117.605 0 113.797V107.836C0 99.8939 2.49636 94.0965 7.49657 90.4592C12.4968 86.8219 20.95 84.9958 32.8713 84.9958C34.538 84.9958 36.2272 85.0404 37.9313 85.122C39.6354 85.2037 41.4516 85.3299 43.3725 85.4932C43.5369 84.0828 43.3127 83.051 42.6848 82.3904C42.057 81.7297 41.2872 81.3586 40.3753 81.2695C38.7908 81.1062 37.2736 80.9577 35.8161 80.8389C34.3587 80.7128 32.9161 80.6534 31.5035 80.6534C24.8366 80.6534 19.231 81.4402 14.6867 83.0139C10.1424 84.5876 6.58472 86.1167 3.99867 87.6087L1.74895 60.7968C9.08109 58.6441 15.9349 57.0704 22.3103 56.0831C28.6858 55.0884 34.538 54.5911 39.8746 54.5911C51.3773 54.5911 60.2715 56.8848 66.5648 61.4797C72.858 66.0745 76.0046 72.7553 76.0046 81.5293V119.142C76.2512 124.026 76.625 128.821 77.1257 133.542L77.1332 133.535ZM40.8836 110.197V102.373C40.8836 102.047 40.7341 101.401 40.4426 100.451C40.1511 99.5004 39.172 99.0254 37.5053 99.0254C35.8385 99.0254 34.8594 99.5004 34.5679 100.451C34.2764 101.401 34.1344 102.047 34.1344 102.373V110.197C34.1344 110.449 34.2764 111.066 34.5679 112.06C34.8594 113.055 35.8385 113.552 37.5053 113.552C39.172 113.552 40.1511 113.055 40.4426 112.06C40.7341 111.066 40.8836 110.449 40.8836 110.197Z" fill="#12231A"/>
<path d="M140.506 54.5763C146.508 54.5763 151.172 55.7565 154.506 58.1171C157.839 60.4776 160.238 63.6027 161.696 67.4923C163.153 71.382 164.05 75.6874 164.386 80.401C164.723 85.122 164.887 89.8802 164.887 94.6755C164.887 100.057 164.641 105.209 164.14 110.13C163.639 115.052 162.428 119.439 160.515 123.291C158.594 127.136 155.537 130.165 151.329 132.355C147.121 134.545 141.306 135.599 133.892 135.517C129.811 135.435 126.283 134.5 123.331 132.726C120.371 130.944 117.935 128.777 116.021 126.209C115.939 127.366 115.857 128.569 115.775 129.809C115.692 131.048 115.565 132.288 115.401 133.535H81.6476C81.9839 130.885 82.2306 128.235 82.395 125.592C82.5594 122.942 82.6416 120.337 82.6416 117.769L82.1409 33.725H119.265V55.1998L118.136 73.0744H119.265C119.347 67.2845 121.119 62.749 124.579 59.4829C128.04 56.2168 133.346 54.5763 140.514 54.5763H140.506ZM128.256 103.242V86.4804C128.256 86.2281 128.107 85.6119 127.815 84.6173C127.524 83.6226 126.545 83.1252 124.878 83.1252C123.211 83.1252 122.232 83.6226 121.941 84.6173C121.649 85.6119 121.5 86.2281 121.5 86.4804V103.242C121.5 103.576 121.642 104.214 121.941 105.164C122.232 106.114 123.211 106.589 124.878 106.589C126.545 106.589 127.524 106.114 127.815 105.164C128.107 104.214 128.256 103.568 128.256 103.242Z" fill="#12231A"/>
<path d="M245.257 133.535H213.26C212.923 131.961 212.654 130.328 212.445 128.628C212.236 126.936 212.131 124.887 212.131 122.482H211.003C211.003 124.219 210.397 126.105 209.186 128.131C207.976 130.158 206.04 131.895 203.372 133.349C200.703 134.797 197.123 135.524 192.624 135.524C186.458 135.524 181.584 134.485 177.997 132.422C174.417 130.351 171.868 127.686 170.373 124.412C168.871 121.146 168.123 117.605 168.123 113.797V107.836C168.123 99.8939 170.62 94.0965 175.62 90.4592C180.62 86.8219 189.073 84.9958 200.995 84.9958C202.661 84.9958 204.351 85.0404 206.055 85.122C207.759 85.2037 209.575 85.3299 211.496 85.4932C211.66 84.0828 211.436 83.051 210.808 82.3904C210.18 81.7297 209.411 81.3586 208.499 81.2695C206.914 81.1062 205.397 80.9577 203.94 80.8389C202.482 80.7128 201.04 80.6534 199.627 80.6534C192.96 80.6534 187.354 81.4402 182.81 83.0139C178.266 84.5876 174.708 86.1167 172.122 87.6087L169.872 60.7968C177.205 58.6441 184.058 57.0704 190.434 56.0831C196.809 55.0884 202.661 54.5911 207.998 54.5911C219.501 54.5911 228.395 56.8848 234.688 61.4797C240.981 66.0745 244.128 72.7553 244.128 81.5293V119.142C244.375 124.026 244.748 128.821 245.249 133.542L245.257 133.535ZM209.007 110.197V102.373C209.007 102.047 208.858 101.401 208.566 100.451C208.275 99.5004 207.295 99.0254 205.629 99.0254C203.962 99.0254 202.983 99.5004 202.691 100.451C202.4 101.401 202.258 102.047 202.258 102.373V110.197C202.258 110.449 202.4 111.066 202.691 112.06C202.983 113.055 203.962 113.552 205.629 113.552C207.295 113.552 208.275 113.055 208.566 112.06C208.858 111.066 209.007 110.449 209.007 110.197Z" fill="#12231A"/>
<path d="M299.504 103.62L302.127 133.787C299.13 134.366 296.208 134.797 293.375 135.094C290.543 135.383 287.829 135.532 285.251 135.532C279.331 135.532 274.084 134.641 269.503 132.86C264.921 131.078 261.334 127.894 258.755 123.299C256.169 118.704 254.883 112.231 254.883 103.873V83.3925H248.134V56.5805H255.137L257.141 46.5223L290.894 43.1671V56.5731H299.893V83.385H290.894V95.7963C290.894 98.8621 291.477 100.948 292.643 102.061C293.809 103.182 295.431 103.739 297.516 103.739H298.458C298.831 103.739 299.19 103.694 299.519 103.613L299.504 103.62Z" fill="#12231A"/>
<path d="M356.255 103.62L358.879 133.787C355.882 134.366 352.959 134.797 350.126 135.094C347.294 135.383 344.581 135.532 342.002 135.532C336.082 135.532 330.836 134.641 326.254 132.86C321.672 131.078 318.085 127.894 315.506 123.299C312.92 118.704 311.635 112.231 311.635 103.873V83.3925H304.885V56.5805H311.889L313.892 46.5223L347.645 43.1671V56.5731H356.644V83.385H347.645V95.7963C347.645 98.8621 348.228 100.948 349.394 102.061C350.56 103.182 352.182 103.739 354.267 103.739H355.209C355.582 103.739 355.941 103.694 356.27 103.613L356.255 103.62Z" fill="#12231A"/>
<path d="M439.375 106.597C438.628 116.366 434.749 123.625 427.753 128.383C420.75 133.142 411.504 135.524 400.001 135.524C388.499 135.524 379.148 133.149 372.19 128.383C365.232 123.625 361.375 116.366 360.628 106.597C360.545 105.186 360.441 103.39 360.314 101.193C360.187 99.0031 360.127 96.7465 360.127 94.4305C360.127 92.1145 360.187 89.8802 360.314 87.9725C360.441 86.0722 360.545 84.3723 360.628 82.8803C361.375 73.2006 365.254 66.0597 372.25 61.4648C379.253 56.87 388.499 54.5763 400.001 54.5763C411.504 54.5763 420.75 56.8923 427.753 61.5316C434.756 66.1636 438.628 73.2823 439.375 82.8803C439.629 85.6936 439.749 89.3754 439.749 93.9332C439.749 96.3382 439.726 98.6691 439.689 100.948C439.644 103.227 439.547 105.105 439.375 106.597ZM403.372 102.752V86.2429C403.372 85.998 403.23 85.3744 402.939 84.3797C402.647 83.385 401.668 82.8877 400.001 82.8877C398.335 82.8877 397.355 83.385 397.064 84.3797C396.773 85.3744 396.623 85.9905 396.623 86.2429V102.752C396.623 103.086 396.765 103.724 397.064 104.674C397.355 105.624 398.335 106.1 400.001 106.1C401.668 106.1 402.647 105.624 402.939 104.674C403.23 103.724 403.372 103.078 403.372 102.752Z" fill="#12231A"/>
<path d="M480.505 133.535H444.502V56.5656H480.505V133.535Z" fill="#12231A"/>
<path d="M541.749 54.5763C542.75 54.5763 543.976 54.6356 545.433 54.7618C546.891 54.888 548.415 55.1553 550 55.5709L546.248 95.7963L546.001 95.9225C544.753 95.4252 543.251 94.9501 541.502 94.4973C539.753 94.0445 537.63 93.8144 535.126 93.8144C533.295 93.8144 531.337 94.0594 529.252 94.5567C527.166 95.054 525.395 95.9225 523.938 97.1622C522.48 98.4018 521.748 100.183 521.748 102.499V133.661L486.373 133.535V75.9323C486.373 73.0373 486.328 69.9122 486.246 66.557C486.163 63.2018 485.909 59.8763 485.498 56.5656H514.625C516.292 59.6313 517.398 63.1053 517.936 66.995C518.474 70.8847 518.788 74.5294 518.878 77.9217H519.879C519.879 76.7637 520.193 74.9228 520.813 72.399C521.441 69.8751 522.562 67.2474 524.192 64.5157C525.814 61.784 528.048 59.4458 530.881 57.5009C533.714 55.5561 537.339 54.5837 541.756 54.5837L541.749 54.5763Z" fill="#12231A"/>
<path d="M80.5713 247.278H31.8249L13.3264 170.309H51.6987L55.5778 215.248H56.6989L60.4509 170.183H98.8232L80.5713 247.278Z" fill="#12231A"/>
<path d="M140.82 168.572C152.824 168.572 162.361 171.177 169.446 176.396C176.532 181.607 180.239 188.896 180.575 198.242V212.397H138.578V219.353C138.578 221.587 139.699 222.708 141.956 222.708C144.214 222.708 145.335 221.587 145.335 219.353V216.124L180.209 217.987V220.592C180.209 229.619 176.749 236.626 169.835 241.637C162.914 246.647 153.25 249.149 140.835 249.149C129.833 249.149 121.066 246.669 114.526 241.703C107.986 236.737 104.003 229.789 102.59 220.845C102.336 219.768 102.149 218.113 102.03 215.879C101.903 213.644 101.843 211.039 101.843 208.055C101.843 205.071 101.903 202.577 102.03 200.298C102.157 198.019 102.343 196.349 102.59 195.272C103.921 186.914 107.882 180.374 114.467 175.661C121.044 170.947 129.841 168.587 140.843 168.587L140.82 168.572ZM154.819 165.469H124.691L137.569 146.102H172.571L154.819 165.469ZM138.571 198.991V203.46H145.32V198.991C145.32 196.757 144.191 195.636 141.941 195.636C139.692 195.636 138.563 196.75 138.563 198.991H138.571Z" fill="#12231A"/>
<path d="M266.446 186.944L267.074 233.004C267.156 238.964 266.573 244.264 265.325 248.896C264.077 253.528 261.842 257.403 258.635 260.506C255.429 263.609 250.907 265.969 245.07 267.58C239.232 269.191 231.736 270 222.573 270C220.824 270 218.551 269.941 215.756 269.814C212.961 269.688 209.964 269.48 206.757 269.191C203.551 268.901 200.404 268.53 197.317 268.07C194.231 267.617 191.57 267.053 189.32 266.392L192.071 232.373C196.989 234.028 201.256 235.06 204.881 235.475C208.506 235.891 211.9 236.099 215.069 236.099C219.149 236.099 222.842 235.579 226.13 234.548C229.419 233.516 231.444 231.838 232.192 229.522C231.444 229.856 230.57 230.183 229.568 230.517C228.567 230.851 227.132 231.14 225.256 231.385C223.38 231.638 220.816 231.757 217.565 231.757C206.645 231.757 198.461 229.478 193.005 224.927C187.549 220.377 184.821 213.837 184.821 205.316V196.75C184.821 187.812 186.906 180.842 191.069 175.831C195.232 170.821 202.482 168.319 212.819 168.319C218.731 168.319 223.357 169.373 226.691 171.482C230.024 173.59 231.855 177.049 232.192 181.852H233.32C233.32 179.951 233.38 178.021 233.507 176.076C233.634 174.132 233.776 172.209 233.948 170.301H267.574C267.238 173.115 266.969 175.913 266.76 178.682C266.55 181.458 266.446 184.205 266.446 186.936V186.944ZM227.7 210.653V196.126C227.7 195.792 227.55 195.154 227.259 194.203C226.967 193.253 225.988 192.778 224.322 192.778C222.655 192.778 221.676 193.253 221.384 194.203C221.093 195.154 220.943 195.799 220.943 196.126V210.653C220.943 210.898 221.085 211.521 221.384 212.516C221.676 213.511 222.655 214.008 224.322 214.008C225.988 214.008 226.967 213.511 227.259 212.516C227.55 211.521 227.7 210.905 227.7 210.653Z" fill="#12231A"/>
<path d="M310.192 168.572C322.196 168.572 331.733 171.177 338.818 176.396C345.904 181.607 349.611 188.896 349.947 198.242V212.397H307.95V219.353C307.95 221.587 309.071 222.708 311.328 222.708C313.585 222.708 314.706 221.587 314.706 219.353V216.124L349.581 217.987V220.592C349.581 229.619 346.12 236.626 339.207 241.637C332.286 246.647 322.622 249.149 310.207 249.149C299.205 249.149 290.438 246.669 283.898 241.703C277.358 236.737 273.374 229.789 271.962 220.845C271.708 219.768 271.521 218.113 271.401 215.879C271.274 213.644 271.214 211.039 271.214 208.055C271.214 205.071 271.274 202.577 271.401 200.298C271.528 198.019 271.715 196.349 271.962 195.272C273.292 186.914 277.253 180.374 283.838 175.661C290.415 170.947 299.212 168.587 310.214 168.587L310.192 168.572ZM324.191 165.469H294.063L306.941 146.102H341.942L324.191 165.469ZM307.942 198.991V203.46H314.691V198.991C314.691 196.757 313.563 195.636 311.313 195.636C309.063 195.636 307.935 196.75 307.935 198.991H307.942Z" fill="#12231A"/>
<path d="M405.069 217.356L407.692 247.523C404.695 248.102 401.773 248.533 398.94 248.83C396.107 249.119 393.394 249.267 390.816 249.267C384.896 249.267 379.649 248.377 375.068 246.595C370.486 244.814 366.898 241.629 364.32 237.034C361.734 232.439 360.448 225.967 360.448 217.608V197.128H353.699V170.309H360.702L362.705 160.251L396.459 156.895V170.301H405.457V197.121H396.459V209.532C396.459 212.598 397.042 214.684 398.208 215.804C399.374 216.925 400.995 217.482 403.081 217.482H404.022C404.396 217.482 404.755 217.445 405.084 217.356H405.069Z" fill="#12231A"/>
<path d="M487.441 247.278H455.445C455.108 245.704 454.839 244.071 454.63 242.371C454.421 240.679 454.316 238.63 454.316 236.225H453.187C453.187 237.962 452.582 239.848 451.371 241.874C450.16 243.901 448.225 245.638 445.556 247.085C442.888 248.533 439.308 249.26 434.808 249.26C428.642 249.26 423.769 248.221 420.182 246.157C416.601 244.086 414.053 241.421 412.558 238.148C411.056 234.882 410.308 231.341 410.308 227.533V221.572C410.308 213.63 412.805 207.84 417.805 204.195C422.805 200.558 431.258 198.732 443.18 198.732C444.846 198.732 446.535 198.776 448.24 198.858C449.944 198.939 451.76 199.066 453.681 199.229C453.845 197.826 453.621 196.787 452.993 196.126C452.365 195.465 451.595 195.094 450.684 195.005C449.099 194.842 447.582 194.693 446.124 194.567C444.667 194.441 443.224 194.382 441.812 194.382C435.145 194.382 429.539 195.168 424.995 196.742C420.451 198.316 416.893 199.845 414.307 201.337L412.057 174.525C419.389 172.372 426.243 170.799 432.619 169.804C438.994 168.809 444.846 168.312 450.183 168.312C461.685 168.312 470.58 170.606 476.873 175.201C483.166 179.795 486.313 186.476 486.313 195.25V232.863C486.559 237.747 486.933 242.55 487.434 247.263L487.441 247.278ZM451.192 223.94V216.116C451.192 215.782 451.042 215.144 450.751 214.194C450.459 213.244 449.48 212.768 447.813 212.768C446.147 212.768 445.168 213.244 444.876 214.194C444.585 215.144 444.443 215.79 444.443 216.116V223.94C444.443 224.185 444.585 224.809 444.876 225.803C445.168 226.798 446.147 227.295 447.813 227.295C449.48 227.295 450.459 226.798 450.751 225.803C451.042 224.809 451.192 224.192 451.192 223.94Z" fill="#12231A"/>
<path d="M534.312 225.054L536.315 246.781C533.729 247.36 530.672 247.79 527.129 248.087C523.586 248.377 520.23 248.518 517.069 248.518C511.904 248.518 507.382 247.672 503.503 245.972C499.632 244.279 496.627 241.154 494.504 236.596C492.382 232.046 491.32 225.462 491.32 216.859V147.461H527.323V219.835C527.323 222.151 527.966 223.68 529.259 224.43C530.552 225.172 532.241 225.38 534.319 225.046L534.312 225.054Z" fill="#12231A"/>
<path d="M474.96 6.68287C479.31 4.87165 483.54 9.4962 481.313 13.6234C479.907 16.2289 481.081 19.4579 483.831 20.5788C488.196 22.3603 487.897 28.5957 483.383 29.9541C480.535 30.8077 479.063 33.918 480.214 36.6422C482.038 40.9624 477.381 45.1639 473.226 42.9518C470.602 41.5563 467.351 42.7217 466.222 45.4534C464.429 49.7884 458.15 49.4915 456.782 45.008C455.923 42.1798 452.791 40.7175 450.048 41.8606C445.698 43.6718 441.468 39.0473 443.695 34.9201C445.1 32.3146 443.927 29.0856 441.176 27.9647C436.812 26.1832 437.111 19.9478 441.625 18.5894C444.473 17.7358 445.945 14.6255 444.794 11.9013C442.97 7.58106 447.627 3.37962 451.782 5.59168C454.406 6.98721 457.657 5.8218 458.786 3.09012C460.579 -1.24493 466.858 -0.948006 468.225 3.5355C469.085 6.36368 472.217 7.82602 474.96 6.68287Z" fill="#12231A"/>
</svg>
