<svg width="106" height="53" viewBox="0 0 106 53" fill="none" xmlns="http://www.w3.org/2000/svg">
<g clip-path="url(#clip0_993_17752)">
<path d="M14.8639 26.2137H8.69717C8.63235 25.9048 8.58049 25.5842 8.54016 25.2505C8.49983 24.9183 8.47966 24.5161 8.47966 24.044H8.26215C8.26215 24.385 8.14547 24.7551 7.91211 25.1529C7.67875 25.5507 7.30566 25.8917 6.7914 26.1773C6.27715 26.4614 5.58715 26.6042 4.71998 26.6042C3.53157 26.6042 2.59237 26.4002 1.90094 25.9951C1.21094 25.5886 0.719733 25.0655 0.431635 24.4229C0.142096 23.7817 -0.00195312 23.0867 -0.00195312 22.3392V21.1691C-0.00195312 19.61 0.479171 18.472 1.44286 17.758C2.40655 17.044 4.03574 16.6855 6.33333 16.6855C6.65456 16.6855 6.98011 16.6943 7.30854 16.7103C7.63697 16.7263 7.98701 16.7511 8.35722 16.7832C8.38891 16.5063 8.34569 16.3038 8.22469 16.1741C8.10369 16.0444 7.95532 15.9716 7.77958 15.9541C7.4742 15.922 7.18178 15.8929 6.90088 15.8696C6.61999 15.8448 6.34197 15.8331 6.06972 15.8331C4.7848 15.8331 3.70443 15.9876 2.82861 16.2965C1.95279 16.6054 1.26712 16.9056 0.76871 17.1985L0.335122 11.9353C1.74824 11.5128 3.06917 11.2038 4.29791 11.01C5.52665 10.8148 6.65456 10.7172 7.68307 10.7172C9.89998 10.7172 11.6142 11.1674 12.8271 12.0694C14.04 12.9713 14.6464 14.2827 14.6464 16.0051V23.3883C14.6939 24.3471 14.766 25.2884 14.8625 26.2151L14.8639 26.2137ZM7.87753 21.6325V20.0967C7.87753 20.0326 7.84872 19.9058 7.79255 19.7193C7.73637 19.5328 7.54766 19.4395 7.22643 19.4395C6.9052 19.4395 6.7165 19.5328 6.66032 19.7193C6.60414 19.9058 6.57677 20.0326 6.57677 20.0967V21.6325C6.57677 21.682 6.60414 21.803 6.66032 21.9982C6.7165 22.1935 6.9052 22.2911 7.22643 22.2911C7.54766 22.2911 7.73637 22.1935 7.79255 21.9982C7.84872 21.803 7.87753 21.682 7.87753 21.6325Z" fill="#FBFAF4"/>
<path d="M27.0782 10.7142C28.235 10.7142 29.1338 10.9459 29.7763 11.4093C30.4187 11.8726 30.8811 12.4861 31.162 13.2496C31.4429 14.0131 31.6158 14.8583 31.6806 15.7836C31.7454 16.7103 31.7771 17.6443 31.7771 18.5856C31.7771 19.642 31.7296 20.6533 31.6331 21.6193C31.5366 22.5854 31.3032 23.4466 30.9344 24.2028C30.5642 24.9576 29.9751 25.5521 29.1641 25.982C28.3531 26.4118 27.2324 26.6187 25.8034 26.6027C25.0169 26.5867 24.337 26.4031 23.768 26.0548C23.1976 25.7051 22.728 25.2796 22.3592 24.7755C22.3433 25.0028 22.3275 25.2388 22.3117 25.4822C22.2958 25.7255 22.2713 25.9689 22.2396 26.2137H15.7344C15.7992 25.6935 15.8467 25.1733 15.8784 24.6545C15.9101 24.1343 15.926 23.6229 15.926 23.1187L15.8294 6.62115H22.9844V10.8366L22.7669 14.3454H22.9844C23.0002 13.2088 23.3416 12.3185 24.0086 11.6774C24.6755 11.0362 25.6983 10.7142 27.0797 10.7142H27.0782ZM24.7173 20.2671V16.9769C24.7173 16.9274 24.6885 16.8065 24.6323 16.6112C24.5761 16.4159 24.3874 16.3183 24.0662 16.3183C23.7449 16.3183 23.5562 16.4159 23.5001 16.6112C23.4439 16.8065 23.4151 16.9274 23.4151 16.9769V20.2671C23.4151 20.3327 23.4424 20.458 23.5001 20.6445C23.5562 20.831 23.7449 20.9243 24.0662 20.9243C24.3874 20.9243 24.5761 20.831 24.6323 20.6445C24.6885 20.458 24.7173 20.3312 24.7173 20.2671Z" fill="#FBFAF4"/>
<path d="M47.2663 26.2137H41.0995C41.0347 25.9048 40.9828 25.5842 40.9425 25.2505C40.9022 24.9183 40.882 24.5161 40.882 24.044H40.6645C40.6645 24.385 40.5478 24.7551 40.3145 25.1529C40.0811 25.5507 39.708 25.8917 39.1937 26.1773C38.6795 26.4614 37.9895 26.6042 37.1223 26.6042C35.9339 26.6042 34.9947 26.4002 34.3033 25.9951C33.6133 25.5886 33.1221 25.0655 32.834 24.4229C32.5444 23.7817 32.4004 23.0867 32.4004 22.3392V21.1691C32.4004 19.61 32.8815 18.472 33.8452 17.758C34.8089 17.044 36.4381 16.6855 38.7357 16.6855C39.0569 16.6855 39.3825 16.6943 39.7109 16.7103C40.0393 16.7263 40.3894 16.7511 40.7596 16.7832C40.7913 16.5063 40.748 16.3038 40.627 16.1741C40.506 16.0444 40.3577 15.9716 40.1819 15.9541C39.8765 15.922 39.5841 15.8929 39.3032 15.8696C39.0223 15.8448 38.7443 15.8331 38.4721 15.8331C37.1871 15.8331 36.1068 15.9876 35.231 16.2965C34.3551 16.6054 33.6695 16.9056 33.1711 17.1985L32.7375 11.9353C34.1506 11.5128 35.4715 11.2038 36.7003 11.01C37.929 10.8148 39.0569 10.7172 40.0854 10.7172C42.3023 10.7172 44.0165 11.1674 45.2294 12.0694C46.4423 12.9713 47.0487 14.2827 47.0487 16.0051V23.3883C47.0963 24.3471 47.1683 25.2884 47.2648 26.2151L47.2663 26.2137ZM40.2799 21.6325V20.0967C40.2799 20.0326 40.2511 19.9058 40.1949 19.7193C40.1387 19.5328 39.95 19.4395 39.6288 19.4395C39.3075 19.4395 39.1188 19.5328 39.0627 19.7193C39.0065 19.9058 38.9791 20.0326 38.9791 20.0967V21.6325C38.9791 21.682 39.0065 21.803 39.0627 21.9982C39.1188 22.1935 39.3075 22.2911 39.6288 22.2911C39.95 22.2911 40.1387 22.1935 40.1949 21.9982C40.2511 21.803 40.2799 21.682 40.2799 21.6325Z" fill="#FBFAF4"/>
<path d="M57.7208 20.3414L58.2264 26.2632C57.6488 26.3768 57.0856 26.4614 56.5396 26.5196C55.9937 26.5765 55.4708 26.6056 54.9738 26.6056C53.8329 26.6056 52.8217 26.4308 51.9387 26.081C51.0557 25.7313 50.3642 25.1062 49.8672 24.2043C49.3688 23.3023 49.1211 22.0317 49.1211 20.391V16.3708H47.8203V11.1076H49.1701L49.5561 9.13323L56.0614 8.47461V11.1062H57.7957V16.3693H56.0614V18.8056C56.0614 19.4074 56.1737 19.8169 56.3984 20.0354C56.6232 20.2555 56.9357 20.3647 57.3376 20.3647H57.5191C57.5912 20.3647 57.6603 20.356 57.7237 20.34L57.7208 20.3414Z" fill="#FBFAF4"/>
<path d="M68.6583 20.3414L69.1639 26.2632C68.5863 26.3768 68.0231 26.4614 67.4771 26.5196C66.9312 26.5765 66.4083 26.6056 65.9113 26.6056C64.7704 26.6056 63.7592 26.4308 62.8762 26.081C61.9932 25.7313 61.3017 25.1062 60.8047 24.2043C60.3063 23.3023 60.0586 22.0317 60.0586 20.391V16.3708H58.7578V11.1076H60.1076L60.4936 9.13323L66.9989 8.47461V11.1062H68.7332V16.3693H66.9989V18.8056C66.9989 19.4074 67.1112 19.8169 67.3359 20.0354C67.5607 20.2555 67.8732 20.3647 68.2751 20.3647H68.4566C68.5287 20.3647 68.5978 20.356 68.6612 20.34L68.6583 20.3414Z" fill="#FBFAF4"/>
<path d="M84.6778 20.9258C84.5338 22.8433 83.7862 24.2684 82.4379 25.2024C81.0881 26.1364 79.3062 26.6042 77.0893 26.6042C74.8724 26.6042 73.0703 26.1379 71.7292 25.2024C70.3882 24.2684 69.6449 22.8433 69.5008 20.9258C69.485 20.6489 69.4648 20.2963 69.4403 19.865C69.4158 19.4351 69.4043 18.9922 69.4043 18.5375C69.4043 18.0829 69.4158 17.6443 69.4403 17.2698C69.4648 16.8968 69.485 16.5631 69.5008 16.2703C69.6449 14.3702 70.3925 12.9684 71.7408 12.0664C73.0905 11.1645 74.8724 10.7142 77.0893 10.7142C79.3062 10.7142 81.0881 11.1689 82.4379 12.0796C83.7876 12.9888 84.5338 14.3862 84.6778 16.2703C84.7268 16.8225 84.7498 17.5452 84.7498 18.4399C84.7498 18.912 84.7455 19.3696 84.7383 19.8169C84.7297 20.2642 84.711 20.6329 84.6778 20.9258ZM77.739 20.171V16.9303C77.739 16.8822 77.7116 16.7598 77.6554 16.5646C77.5992 16.3693 77.4105 16.2717 77.0893 16.2717C76.7681 16.2717 76.5794 16.3693 76.5232 16.5646C76.467 16.7598 76.4382 16.8808 76.4382 16.9303V20.171C76.4382 20.2365 76.4656 20.3619 76.5232 20.5484C76.5794 20.7349 76.7681 20.8281 77.0893 20.8281C77.4105 20.8281 77.5992 20.7349 77.6554 20.5484C77.7116 20.3619 77.739 20.2351 77.739 20.171Z" fill="#FBFAF4"/>
<path d="M92.6049 26.2137H85.666V11.1047H92.6049V26.2137Z" fill="#FBFAF4"/>
<path d="M104.409 10.7142C104.603 10.7142 104.839 10.7259 105.12 10.7507C105.401 10.7754 105.694 10.8279 106 10.9095L105.277 18.8056L105.229 18.8304C104.989 18.7328 104.699 18.6395 104.362 18.5507C104.025 18.4618 103.616 18.4166 103.133 18.4166C102.78 18.4166 102.403 18.4647 102.001 18.5623C101.599 18.6599 101.258 18.8304 100.977 19.0738C100.696 19.3171 100.555 19.6668 100.555 20.1214V26.2384L93.7369 26.2137V14.9064C93.7369 14.3381 93.7283 13.7247 93.7124 13.066C93.6966 12.4074 93.6476 11.7546 93.5684 11.1047H99.182C99.5032 11.7065 99.7164 12.3885 99.8201 13.152C99.9238 13.9155 99.9843 14.631 100.002 15.2969H100.195C100.195 15.0696 100.255 14.7082 100.375 14.2128C100.496 13.7174 100.712 13.2015 101.026 12.6653C101.338 12.1291 101.769 11.6701 102.315 11.2883C102.861 10.9066 103.56 10.7157 104.411 10.7157L104.409 10.7142Z" fill="#FBFAF4"/>
<path d="M15.5265 48.5412H6.13162L2.56641 33.4322H9.96189L10.7095 42.2537H10.9256L11.6487 33.4075H19.0442L15.5265 48.5412Z" fill="#FBFAF4"/>
<path d="M27.1391 33.0913C29.4525 33.0913 31.2906 33.6027 32.6562 34.6271C34.0218 35.65 34.7363 37.0809 34.8011 38.9154V41.6941H26.707V43.0594C26.707 43.498 26.923 43.7181 27.3581 43.7181C27.7931 43.7181 28.0092 43.498 28.0092 43.0594V42.4256L34.7305 42.7913V43.3028C34.7305 45.0747 34.0636 46.4502 32.7311 47.4337C31.3972 48.4173 29.5347 48.9083 27.142 48.9083C25.0216 48.9083 23.3319 48.4217 22.0715 47.4468C20.811 46.472 20.0433 45.1082 19.771 43.3523C19.722 43.141 19.686 42.8161 19.663 42.3775C19.6385 41.9389 19.627 41.4275 19.627 40.8417C19.627 40.2559 19.6385 39.7663 19.663 39.319C19.6875 38.8717 19.7235 38.5438 19.771 38.3325C20.0274 36.6918 20.7909 35.4081 22.0599 34.4828C23.3276 33.5575 25.023 33.0942 27.1434 33.0942L27.1391 33.0913ZM29.8372 32.4822H24.0305L26.5125 28.6805H33.2583L29.8372 32.4822ZM26.7055 39.0626V39.9397H28.0063V39.0626C28.0063 38.624 27.7888 38.4039 27.3552 38.4039C26.9216 38.4039 26.7041 38.6225 26.7041 39.0626H26.7055Z" fill="#FBFAF4"/>
<path d="M51.3507 36.6977L51.4718 45.7391C51.4876 46.9092 51.3752 47.9496 51.1347 48.8588C50.8941 49.7681 50.4634 50.5287 49.8454 51.1378C49.2275 51.7469 48.356 52.2102 47.2309 52.5264C46.1059 52.8426 44.6611 53.0014 42.8951 53.0014C42.558 53.0014 42.1201 52.9898 41.5813 52.965C41.0426 52.9402 40.465 52.8994 39.847 52.8426C39.229 52.7858 38.6226 52.7129 38.0276 52.6226C37.4327 52.5337 36.9199 52.423 36.4863 52.2933L37.0164 45.6153C37.9643 45.9402 38.7868 46.1428 39.4854 46.2244C40.1841 46.306 40.838 46.3468 41.4488 46.3468C42.2353 46.3468 42.9469 46.2448 43.5807 46.0422C44.2146 45.8397 44.6049 45.5104 44.749 45.0557C44.6049 45.1213 44.4364 45.1854 44.2434 45.251C44.0503 45.3166 43.7738 45.3734 43.4122 45.4215C43.0506 45.471 42.5565 45.4943 41.9299 45.4943C39.8254 45.4943 38.248 45.047 37.1965 44.1538C36.1449 43.2606 35.6191 41.9768 35.6191 40.3041V38.6225C35.6191 36.8682 36.021 35.4999 36.8234 34.5164C37.6257 33.5328 39.023 33.0417 41.0152 33.0417C42.1547 33.0417 43.0463 33.2487 43.6888 33.6625C44.3312 34.0763 44.6842 34.7553 44.749 35.6981H44.9665C44.9665 35.3251 44.978 34.9462 45.0025 34.5644C45.027 34.1827 45.0544 33.8053 45.0875 33.4308H51.5683C51.5034 33.9831 51.4516 34.5324 51.4112 35.0759C51.3709 35.6209 51.3507 36.16 51.3507 36.6962V36.6977ZM43.8832 41.3517V38.5001C43.8832 38.4346 43.8544 38.3093 43.7982 38.1227C43.7421 37.9362 43.5534 37.843 43.2321 37.843C42.9109 37.843 42.7222 37.9362 42.666 38.1227C42.6098 38.3093 42.581 38.436 42.581 38.5001V41.3517C42.581 41.3998 42.6084 41.5222 42.666 41.7175C42.7222 41.9127 42.9109 42.0104 43.2321 42.0104C43.5534 42.0104 43.7421 41.9127 43.7982 41.7175C43.8544 41.5222 43.8832 41.4013 43.8832 41.3517Z" fill="#FBFAF4"/>
<path d="M59.7817 33.0913C62.0951 33.0913 63.9332 33.6027 65.2988 34.6271C66.6644 35.65 67.3788 37.0809 67.4437 38.9154V41.6941H59.3495V43.0594C59.3495 43.498 59.5656 43.7181 60.0007 43.7181C60.4357 43.7181 60.6518 43.498 60.6518 43.0594V42.4256L67.3731 42.7913V43.3028C67.3731 45.0747 66.7061 46.4502 65.3737 47.4337C64.0398 48.4173 62.1772 48.9083 59.7846 48.9083C57.6642 48.9083 55.9745 48.4217 54.714 47.4468C53.4536 46.472 52.6858 45.1082 52.4136 43.3523C52.3646 43.141 52.3286 42.8161 52.3055 42.3775C52.2811 41.9389 52.2695 41.4275 52.2695 40.8417C52.2695 40.2559 52.2811 39.7663 52.3055 39.319C52.33 38.8717 52.366 38.5438 52.4136 38.3325C52.67 36.6918 53.4335 35.4081 54.7025 34.4828C55.9702 33.5575 57.6656 33.0942 59.786 33.0942L59.7817 33.0913ZM62.4797 32.4822H56.6731L59.1551 28.6805H65.9009L62.4797 32.4822ZM59.3481 39.0626V39.9397H60.6489V39.0626C60.6489 38.624 60.4314 38.4039 59.9978 38.4039C59.5642 38.4039 59.3467 38.6225 59.3467 39.0626H59.3481Z" fill="#FBFAF4"/>
<path d="M78.0665 42.6675L78.5721 48.5892C77.9945 48.7029 77.4313 48.7874 76.8853 48.8457C76.3394 48.9025 75.8165 48.9317 75.3195 48.9317C74.1786 48.9317 73.1674 48.7568 72.2844 48.4071C71.4014 48.0574 70.7099 47.4323 70.213 46.5303C69.7145 45.6284 69.4668 44.3577 69.4668 42.717V38.6968H68.166V33.4322H69.5158L69.9018 31.4578L76.4071 30.7992V33.4308H78.1414V38.6954H76.4071V41.1317C76.4071 41.7335 76.5194 42.1429 76.7441 42.3629C76.9689 42.583 77.2814 42.6922 77.6833 42.6922H77.8648C77.9369 42.6922 78.006 42.685 78.0694 42.6675H78.0665Z" fill="#FBFAF4"/>
<path d="M93.942 48.5412H87.7753C87.7105 48.2323 87.6586 47.9117 87.6183 47.578C87.578 47.2458 87.5578 46.8436 87.5578 46.3715H87.3403C87.3403 46.7125 87.2236 47.0826 86.9902 47.4804C86.7569 47.8782 86.3838 48.2192 85.8695 48.5033C85.3553 48.7874 84.6653 48.9302 83.7981 48.9302C82.6097 48.9302 81.6705 48.7262 80.9791 48.3212C80.2891 47.9146 79.7979 47.3915 79.5098 46.7489C79.2202 46.1078 79.0762 45.4127 79.0762 44.6652V43.4952C79.0762 41.936 79.5573 40.7995 80.521 40.084C81.4847 39.37 83.1139 39.0116 85.4115 39.0116C85.7327 39.0116 86.0582 39.0203 86.3867 39.0364C86.7151 39.0524 87.0651 39.0772 87.4353 39.1092C87.467 38.8338 87.4238 38.6298 87.3028 38.5001C87.1818 38.3704 87.0334 38.2976 86.8577 38.2801C86.5523 38.248 86.2599 38.2189 85.979 38.1941C85.6981 38.1694 85.4201 38.1577 85.1478 38.1577C83.8629 38.1577 82.7826 38.3122 81.9067 38.6211C81.0309 38.93 80.3452 39.2301 79.8468 39.523L79.4132 34.2599C80.8264 33.8373 82.1473 33.5284 83.376 33.3332C84.6048 33.1379 85.7327 33.0403 86.7612 33.0403C88.9781 33.0403 90.6923 33.4905 91.9052 34.3925C93.1181 35.2945 93.7245 36.6059 93.7245 38.3282V45.7114C93.7721 46.6702 93.8441 47.613 93.9406 48.5383L93.942 48.5412ZM86.9557 43.96V42.4242C86.9557 42.3586 86.9268 42.2333 86.8707 42.0468C86.8145 41.8603 86.6258 41.767 86.3046 41.767C85.9833 41.767 85.7946 41.8603 85.7384 42.0468C85.6823 42.2333 85.6549 42.3601 85.6549 42.4242V43.96C85.6549 44.0081 85.6823 44.1305 85.7384 44.3257C85.7946 44.521 85.9833 44.6186 86.3046 44.6186C86.6258 44.6186 86.8145 44.521 86.8707 44.3257C86.9268 44.1305 86.9557 44.0095 86.9557 43.96Z" fill="#FBFAF4"/>
<path d="M102.975 44.1785L103.361 48.4435C102.863 48.5572 102.274 48.6417 101.591 48.7C100.908 48.7568 100.261 48.7845 99.6519 48.7845C98.6566 48.7845 97.7851 48.6184 97.0375 48.2847C96.2913 47.9525 95.7122 47.339 95.3031 46.4444C94.894 45.5511 94.6895 44.2587 94.6895 42.5699V28.9472H101.628V43.1542C101.628 43.6088 101.752 43.909 102.001 44.0561C102.251 44.2018 102.576 44.2426 102.977 44.1771L102.975 44.1785Z" fill="#FBFAF4"/>
<path d="M91.5384 1.31287C92.3768 0.957332 93.1921 1.86512 92.7628 2.67528C92.492 3.18673 92.7182 3.82058 93.2483 4.04061C94.0895 4.39032 94.0319 5.6143 93.1618 5.88096C92.613 6.04853 92.3292 6.65906 92.5511 7.19383C92.9026 8.04187 92.0051 8.86661 91.2042 8.43238C90.6986 8.15844 90.072 8.38721 89.8545 8.92343C89.5088 9.77439 88.2988 9.71611 88.0351 8.83601C87.8695 8.28084 87.2659 7.99379 86.7373 8.21819C85.8989 8.57372 85.0836 7.66593 85.5128 6.85577C85.7837 6.34432 85.5575 5.71047 85.0274 5.49045C84.1861 5.14074 84.2438 3.91675 85.1138 3.6501C85.6626 3.48253 85.9464 2.87199 85.7246 2.33723C85.3731 1.48918 86.2705 0.66445 87.0715 1.09867C87.5771 1.37261 88.2037 1.14384 88.4212 0.607622C88.7669 -0.243339 89.9769 -0.185054 90.2405 0.69505C90.4062 1.25021 91.0098 1.53727 91.5384 1.31287Z" fill="#FBFAF4"/>
</g>
<defs>
<clipPath id="clip0_993_17752">
<rect width="106" height="53" fill="white"/>
</clipPath>
</defs>
</svg>
