<svg width="59" height="59" viewBox="0 0 59 59" fill="none" xmlns="http://www.w3.org/2000/svg">
<path d="M44.5324 8.12534C49.7847 5.92903 54.8893 11.5424 52.2027 16.563C50.5101 19.7248 51.9239 23.6557 55.2419 25.0158C60.5094 27.1768 60.1484 34.7548 54.6996 36.4054C51.2674 37.4447 49.4875 41.2228 50.8711 44.5324C53.0674 49.7847 47.4541 54.8893 42.4335 52.2027C39.2716 50.5101 35.3408 51.9239 33.9807 55.2419C31.8196 60.5094 24.2417 60.1484 22.5911 54.6996C21.5517 51.2674 17.7737 49.4875 14.4641 50.8711C9.21174 53.0674 4.10717 47.4541 6.79379 42.4335C8.48635 39.2716 7.07252 35.3408 3.75455 33.9807C-1.5129 31.8196 -1.15189 24.2417 4.29691 22.5911C7.72906 21.5517 9.50895 17.7737 8.12534 14.4641C5.92903 9.21174 11.5424 4.10717 16.563 6.79379C19.7248 8.48635 23.6557 7.07252 25.0158 3.75455C27.1768 -1.5129 34.7548 -1.15189 36.4054 4.29691C37.4447 7.72906 41.2228 9.50895 44.5324 8.12534Z" fill="#12231A"/>
<path d="M38.1607 38.2037H30.9723C30.8968 37.8477 30.8363 37.4783 30.7893 37.0938C30.7423 36.711 30.7188 36.2475 30.7188 35.7035H30.4652C30.4652 36.0964 30.3292 36.5229 30.0572 36.9813C29.7852 37.4397 29.3503 37.8326 28.7508 38.1617C28.1514 38.4892 27.3471 38.6537 26.3362 38.6537C24.951 38.6537 23.8562 38.4187 23.0502 37.9519C22.2459 37.4834 21.6733 36.8806 21.3375 36.1401C20.9999 35.4012 20.832 34.6003 20.832 33.7389V32.3905C20.832 30.5939 21.3929 29.2825 22.5162 28.4597C23.6395 27.6369 25.5387 27.2238 28.2169 27.2238C28.5913 27.2238 28.9708 27.2339 29.3537 27.2524C29.7365 27.2709 30.1445 27.2994 30.5761 27.3363C30.613 27.0173 30.5626 26.7839 30.4216 26.6345C30.2805 26.485 30.1076 26.4011 29.9027 26.3809C29.5468 26.344 29.2059 26.3104 28.8785 26.2835C28.551 26.255 28.227 26.2415 27.9096 26.2415C26.4118 26.2415 25.1525 26.4195 24.1315 26.7755C23.1106 27.1315 22.3114 27.4774 21.7304 27.8149L21.2249 21.7499C22.8722 21.2629 24.412 20.9069 25.8443 20.6836C27.2766 20.4586 28.5913 20.3461 29.7902 20.3461C32.3744 20.3461 34.3726 20.865 35.7864 21.9043C37.2003 22.9437 37.9072 24.4549 37.9072 26.4397V34.9479C37.9626 36.0527 38.0465 37.1375 38.159 38.2054L38.1607 38.2037ZM30.0169 32.9245V31.1547C30.0169 31.0808 29.9833 30.9347 29.9178 30.7198C29.8524 30.5049 29.6324 30.3974 29.2579 30.3974C28.8835 30.3974 28.6635 30.5049 28.598 30.7198C28.5326 30.9347 28.5007 31.0808 28.5007 31.1547V32.9245C28.5007 32.9816 28.5326 33.121 28.598 33.346C28.6635 33.571 28.8835 33.6835 29.2579 33.6835C29.6324 33.6835 29.8524 33.571 29.9178 33.346C29.9833 33.121 30.0169 32.9816 30.0169 32.9245Z" fill="#FBFAF4"/>
</svg>
