<svg width="67" height="71" viewBox="0 0 67 71" fill="none" xmlns="http://www.w3.org/2000/svg">
<g clip-path="url(#clip0_348_7744)">
<path d="M11.0596 67.9C8.51959 70.44 4.67959 70.72 2.47959 68.52C0.279591 66.32 0.559591 62.48 3.09959 59.94L32.3496 20.58C36.3596 15.19 44.0396 14.02 49.3596 18.12C50.0096 18.62 50.6296 19.17 51.2396 19.77C51.8496 20.37 52.3896 21 52.8896 21.65C56.9896 26.97 55.8196 34.65 50.4296 38.66L11.0696 67.91L11.0596 67.9Z" fill="#FF6C27" stroke="#12231A" stroke-width="2" stroke-linecap="round" stroke-linejoin="round"/>
<path d="M62.9999 11.65L65.3899 9.25995C65.7299 8.91995 65.8399 8.40995 65.6799 7.95995C63.1999 0.949952 55.6999 0.859952 53.1399 1.03995C52.6199 1.07995 52.1799 1.43995 52.0399 1.94995L47.8799 17.15C47.8799 17.15 52.0399 19.66 53.8499 23.12L63.7399 20.28C64.2799 20.12 64.6499 19.62 64.6399 19.06L64.4899 12.93C64.4799 12.36 64.0799 11.87 63.5199 11.75C61.3799 11.29 58.2799 11.53 56.8899 11.68C56.4399 11.73 56.0499 12.02 55.8799 12.43L53.9399 17.07" fill="#47D4B3"/>
<path d="M62.9999 11.65L65.3899 9.25995C65.7299 8.91995 65.8399 8.40995 65.6799 7.95995C63.1999 0.949952 55.6999 0.859952 53.1399 1.03995C52.6199 1.07995 52.1799 1.43995 52.0399 1.94995L47.8799 17.15C47.8799 17.15 52.0399 19.66 53.8499 23.12L63.7399 20.28C64.2799 20.12 64.6499 19.62 64.6399 19.06L64.4899 12.93C64.4799 12.36 64.0799 11.87 63.5199 11.75C61.3799 11.29 58.2799 11.53 56.8899 11.68C56.4399 11.73 56.0499 12.02 55.8799 12.43L53.9399 17.07" stroke="#12231A" stroke-width="2" stroke-linecap="round" stroke-linejoin="round"/>
<path d="M33.5596 19.1801C33.5596 19.1801 35.0096 22.2101 36.9596 23.6101" stroke="#12231A" stroke-width="2" stroke-linecap="round" stroke-linejoin="round"/>
<path d="M42.0703 31.8C42.0703 31.8 43.9503 34.59 46.0803 35.69" stroke="#12231A" stroke-width="2" stroke-linecap="round" stroke-linejoin="round"/>
<path d="M27.0195 35.52C27.0195 35.52 28.8995 38.31 31.0295 39.41" stroke="#12231A" stroke-width="2" stroke-linecap="round" stroke-linejoin="round"/>
<path d="M25.0596 50.62C25.0596 50.62 26.9396 53.41 29.0696 54.51" stroke="#12231A" stroke-width="2" stroke-linecap="round" stroke-linejoin="round"/>
<path d="M8.76953 52.75C8.76953 52.75 10.6495 55.54 12.7795 56.64" stroke="#12231A" stroke-width="2" stroke-linecap="round" stroke-linejoin="round"/>
</g>
<defs>
<clipPath id="clip0_348_7744">
<rect width="66.75" height="71" fill="white"/>
</clipPath>
</defs>
</svg>
