<svg width="61" height="65" viewBox="0 0 61 65" fill="none" xmlns="http://www.w3.org/2000/svg">
<g clip-path="url(#clip0_348_7759)">
<path d="M13.2297 47.5C13.2297 47.5 12.7497 50.45 15.9897 53.07C15.9897 53.07 29.5497 43.7 34.1597 36.43C38.7697 29.16 43.1097 23.21 43.1097 23.21C43.1097 23.21 38.5497 17.2 34.1597 18.73L45.5397 10.35L43.6797 7.39003C42.4597 6.53003 54.4497 5.88003 55.3797 5.16003C55.3797 5.16003 55.6697 15.79 56.1697 16.5C56.1697 16.5 54.8097 16.64 53.6597 15.73C53.6597 15.73 55.3797 29.32 40.2897 48.99C23.5097 70.9 1.71973 62.24 1.71973 62.24C3.17973 61.64 13.2397 47.5 13.2397 47.5" fill="#224934"/>
<path d="M9.76953 56.72C9.76953 56.72 28.4295 45.52 35.8895 32.81C43.3495 20.1 48.1395 17.65 48.1395 17.65" stroke="#12231A" stroke-width="2" stroke-linecap="round" stroke-linejoin="round"/>
<path d="M33.4502 18.74C33.4502 18.74 43.0002 11.15 45.7302 10.36" stroke="#12231A" stroke-width="2" stroke-linecap="round" stroke-linejoin="round"/>
<path d="M25.8798 44.56C22.3698 47.96 15.2698 53.07 15.2698 53.07C13.5898 51.79 12.5098 49.77 12.5098 47.5C12.5098 43.63 15.6498 40.5 19.5098 40.5C22.3298 40.5 24.7598 42.17 25.8698 44.57L25.8798 44.56Z" fill="#47D4B3" stroke="#12231A" stroke-width="2" stroke-linecap="round" stroke-linejoin="round"/>
<path d="M19.7599 40.5001C19.5399 39.7801 19.4199 39.0201 19.4199 38.2301C19.4199 33.9901 22.8499 30.5601 27.0899 30.5601C30.1799 30.5601 33.0399 32.7001 34.2599 35.3301" fill="#47D4B3"/>
<path d="M19.7599 40.5001C19.5399 39.7801 19.4199 39.0201 19.4199 38.2301C19.4199 33.9901 22.8499 30.5601 27.0899 30.5601C30.1799 30.5601 33.0399 32.7001 34.2599 35.3301" stroke="#12231A" stroke-width="2" stroke-linecap="round" stroke-linejoin="round"/>
<path d="M34.2598 35.3301C30.7498 40.2901 25.8798 44.5701 25.8798 44.5701C23.8298 40.4501 19.7598 40.5001 19.7598 40.5001" fill="#47D4B3"/>
<path d="M34.2598 35.3301C30.7498 40.2901 25.8798 44.5701 25.8798 44.5701C23.8298 40.4501 19.7598 40.5001 19.7598 40.5001" stroke="#12231A" stroke-width="2" stroke-linecap="round" stroke-linejoin="round"/>
<path d="M27.8004 30.56C32.3604 31.41 34.4504 35.08 34.4504 35.08L41.9604 23.77L41.0804 22.38C40.6804 21.75 40.2404 21.15 39.6804 20.66C37.6304 18.85 34.6504 18.17 31.8104 19.26C28.5804 20.5 26.5504 23.91 26.9904 27.34C27.1304 28.44 27.2804 29.67 27.8004 30.55V30.56Z" fill="#47D4B3" stroke="#12231A" stroke-width="2" stroke-linecap="round" stroke-linejoin="round"/>
<path d="M55.28 15.76C55.28 15.76 54.11 16.67 52.96 15.76C52.96 15.76 54.68 29.35 39.59 49.02C22.79 70.9 1 62.24 1 62.24C2.46 61.64 12.52 47.5 12.52 47.5" stroke="#12231A" stroke-width="2" stroke-linecap="round" stroke-linejoin="round"/>
<path d="M46.7802 11.71C46.7802 11.71 44.2002 8.26004 42.9702 7.40004C41.7402 6.54004 53.7402 5.89004 54.6702 5.17004C54.6702 5.17004 54.9602 15.8 55.4602 16.51C55.4602 16.51 51.5102 16.29 50.7902 12.85" stroke="#12231A" stroke-width="2" stroke-linecap="round" stroke-linejoin="round"/>
<path d="M59.9805 1L54.5605 5.35" stroke="#12231A" stroke-width="2" stroke-linecap="round" stroke-linejoin="round"/>
</g>
<defs>
<clipPath id="clip0_348_7759">
<rect width="60.98" height="64.93" fill="white"/>
</clipPath>
</defs>
</svg>
