<svg width="63" height="62" viewBox="0 0 63 62" fill="none" xmlns="http://www.w3.org/2000/svg">
<g clip-path="url(#clip0_348_7774)">
<path d="M18.43 55.06C25.14 55.06 30.57 49.62 30.57 42.92C30.57 36.22 25.13 30.78 18.43 30.78C11.73 30.78 6.29004 36.22 6.29004 42.92V55.06H18.43Z" fill="#E83647" stroke="#12231A" stroke-width="2" stroke-linecap="round" stroke-linejoin="round"/>
<path d="M6.29 55.0601L1 60.1201" stroke="#12231A" stroke-width="2" stroke-linecap="round" stroke-linejoin="round"/>
<path d="M33.1797 27.0301L42.1597 15.71C42.1597 15.71 45.6097 12.53 48.6497 15.71C48.6497 15.71 51.6897 12.1201 54.3097 15.43C54.3097 15.43 59.8297 13.1401 61.3497 17.5301C62.8697 21.92 58.0397 22.33 58.0397 22.33C58.0397 22.33 59.4197 25.7801 54.7297 27.0301C54.7297 27.0301 57.2197 32.6601 51.1397 34.0601C45.0597 35.4601 28.5497 36.2001 28.5497 36.2001L26.7197 34.0601C26.7197 34.0601 28.0797 15.71 27.9397 14.6C27.7997 13.4901 28.4897 7.56005 32.9097 7.28005C32.9097 7.28005 34.5697 2.31005 38.9897 3.69005C38.9897 3.69005 40.2297 0.510049 43.2697 1.07005C46.3097 1.62005 46.1697 5.07005 45.4797 6.87005C45.4797 6.87005 47.7597 8.11005 47.9697 10.18C47.9697 10.18 48.1397 13.17 47.3497 14.71" fill="#47D4B3"/>
<path d="M33.1797 27.0301L42.1597 15.71C42.1597 15.71 45.6097 12.53 48.6497 15.71C48.6497 15.71 51.6897 12.12 54.3097 15.43C54.3097 15.43 59.8297 13.1401 61.3497 17.5301C62.8697 21.9201 58.0397 22.33 58.0397 22.33C58.0397 22.33 59.4197 25.7801 54.7297 27.0301C54.7297 27.0301 57.2197 32.6601 51.1397 34.0601C45.0597 35.4601 28.5497 36.2001 28.5497 36.2001L26.7197 34.0601C26.7197 34.0601 28.0797 15.71 27.9397 14.6C27.7997 13.49 28.4897 7.56005 32.9097 7.28005C32.9097 7.28005 34.5697 2.31005 38.9897 3.69005C38.9897 3.69005 40.2297 0.510049 43.2697 1.07005C46.3097 1.62005 46.1697 5.07005 45.4797 6.87005C45.4797 6.87005 47.7597 8.11005 47.9697 10.18C47.9697 10.18 48.1397 13.17 47.3497 14.71" stroke="#12231A" stroke-width="2" stroke-linecap="round" stroke-linejoin="round"/>
<path d="M22.0301 54.6V49.4H17.2901L19.6101 43.93L11.8701 45.33L10.9001 42.52H6.58008V42.91V55.05H18.7201C19.8701 55.05 20.9901 54.89 22.0401 54.59" fill="#FBFAF4"/>
<path d="M22.0301 54.6V49.4H17.2901L19.6101 43.93L11.8701 45.33L10.9001 42.52H6.58008V42.91V55.05H18.7201C19.8701 55.05 20.9901 54.89 22.0401 54.59" stroke="#12231A" stroke-width="2" stroke-linecap="round" stroke-linejoin="round"/>
</g>
<defs>
<clipPath id="clip0_348_7774">
<rect width="62.64" height="61.12" fill="white"/>
</clipPath>
</defs>
</svg>
