<svg width="321" height="72" viewBox="0 0 321 72" fill="none" xmlns="http://www.w3.org/2000/svg">
<g clip-path="url(#clip0_330_5299)">
<path d="M1 0.5H306.5L320 13V70.5H14L1 58.5V0.5Z" fill="#CCBA00"/>
<rect y="0.5" width="306" height="58" fill="#FFE800"/>
<path d="M306.24 0.75H0.75V58.43H306.24V0.75Z" stroke="#12231A" stroke-width="1.5" stroke-linecap="round" stroke-linejoin="bevel"/>
<path d="M0.75 58.43L13.84 70.75H319.33V13.07L306.24 0.75" stroke="#12231A" stroke-width="1.5" stroke-linecap="round" stroke-linejoin="bevel"/>
<path d="M319.33 70.7497L306.24 58.4297" stroke="#12231A" stroke-width="1.5" stroke-linecap="round" stroke-linejoin="bevel"/>
<path d="M40.52 33.958C40.268 34.63 39.908 35.212 39.44 35.704C38.972 36.184 38.42 36.55 37.784 36.802C37.16 37.054 36.476 37.18 35.732 37.18C34.604 37.18 33.626 36.934 32.798 36.442C31.982 35.938 31.346 35.23 30.89 34.318C30.446 33.406 30.224 32.32 30.224 31.06C30.224 29.8 30.446 28.714 30.89 27.802C31.346 26.89 31.982 26.188 32.798 25.696C33.626 25.192 34.592 24.94 35.696 24.94C36.464 24.94 37.148 25.048 37.748 25.264C38.348 25.468 38.858 25.78 39.278 26.2C39.71 26.608 40.052 27.112 40.304 27.712L38.882 28.378C38.618 27.694 38.234 27.178 37.73 26.83C37.238 26.47 36.596 26.29 35.804 26.29C35 26.29 34.292 26.482 33.68 26.866C33.068 27.238 32.588 27.778 32.24 28.486C31.904 29.194 31.736 30.052 31.736 31.06C31.736 32.056 31.898 32.914 32.222 33.634C32.546 34.342 33.008 34.888 33.608 35.272C34.208 35.644 34.916 35.83 35.732 35.83C36.524 35.83 37.214 35.632 37.802 35.236C38.39 34.828 38.816 34.222 39.08 33.418L40.52 33.958ZM44.7238 35.65H51.5278V37H43.2838V25.12H44.7238V35.65ZM55.4817 25.12V37H54.0417V25.12H55.4817ZM68.9438 33.958C68.6918 34.63 68.3318 35.212 67.8638 35.704C67.3958 36.184 66.8438 36.55 66.2078 36.802C65.5838 37.054 64.8998 37.18 64.1558 37.18C63.0278 37.18 62.0498 36.934 61.2218 36.442C60.4058 35.938 59.7698 35.23 59.3138 34.318C58.8698 33.406 58.6478 32.32 58.6478 31.06C58.6478 29.8 58.8698 28.714 59.3138 27.802C59.7698 26.89 60.4058 26.188 61.2218 25.696C62.0498 25.192 63.0158 24.94 64.1198 24.94C64.8878 24.94 65.5718 25.048 66.1718 25.264C66.7718 25.468 67.2818 25.78 67.7018 26.2C68.1338 26.608 68.4758 27.112 68.7278 27.712L67.3058 28.378C67.0418 27.694 66.6578 27.178 66.1538 26.83C65.6618 26.47 65.0198 26.29 64.2278 26.29C63.4238 26.29 62.7158 26.482 62.1038 26.866C61.4918 27.238 61.0118 27.778 60.6638 28.486C60.3278 29.194 60.1598 30.052 60.1598 31.06C60.1598 32.056 60.3218 32.914 60.6458 33.634C60.9698 34.342 61.4318 34.888 62.0318 35.272C62.6318 35.644 63.3398 35.83 64.1558 35.83C64.9478 35.83 65.6378 35.632 66.2258 35.236C66.8138 34.828 67.2398 34.222 67.5038 33.418L68.9438 33.958ZM81.0137 25.12L75.8297 30.43L75.6137 30.664L72.4277 33.922V31.978L79.1237 25.12H81.0137ZM73.1477 25.12V37H71.7077V25.12H73.1477ZM75.9737 29.512L81.0677 37H79.3397L74.7857 30.322L75.9737 29.512ZM92.1264 37.18C91.3344 37.18 90.6564 37.042 90.0924 36.766C89.5284 36.49 89.0964 36.112 88.7964 35.632C88.4964 35.152 88.3464 34.6 88.3464 33.976C88.3464 33.592 88.3944 33.232 88.4904 32.896C88.5984 32.548 88.7664 32.218 88.9944 31.906C89.2224 31.594 89.5284 31.3 89.9124 31.024C90.3084 30.748 90.7944 30.49 91.3704 30.25L92.1264 29.872C92.5824 29.62 92.9604 29.386 93.2604 29.17C93.5604 28.942 93.7824 28.696 93.9264 28.432C94.0824 28.168 94.1604 27.856 94.1604 27.496C94.1604 27.076 94.0284 26.752 93.7644 26.524C93.5124 26.284 93.1644 26.164 92.7204 26.164C92.2044 26.164 91.8204 26.308 91.5684 26.596C91.3284 26.872 91.2084 27.196 91.2084 27.568C91.2084 27.796 91.2384 28.018 91.2984 28.234C91.3584 28.438 91.4844 28.696 91.6764 29.008C91.8804 29.32 92.1804 29.734 92.5764 30.25C92.9724 30.766 93.5064 31.444 94.1784 32.284C94.8624 33.124 95.4264 33.802 95.8704 34.318C96.3144 34.822 96.6924 35.206 97.0044 35.47C97.3164 35.722 97.6044 35.89 97.8684 35.974C98.1444 36.058 98.4444 36.1 98.7684 36.1L98.4084 37.18C98.0604 37.18 97.7304 37.138 97.4184 37.054C97.1184 36.97 96.7824 36.79 96.4104 36.514C96.0504 36.238 95.6124 35.824 95.0964 35.272C94.5924 34.72 93.9624 33.982 93.2064 33.058C92.5584 32.254 92.0184 31.576 91.5864 31.024C91.1544 30.472 90.8124 30.004 90.5604 29.62C90.3084 29.236 90.1284 28.888 90.0204 28.576C89.9124 28.252 89.8584 27.922 89.8584 27.586C89.8584 27.154 89.9604 26.734 90.1644 26.326C90.3804 25.918 90.7044 25.588 91.1364 25.336C91.5684 25.072 92.1264 24.94 92.8104 24.94C93.3264 24.94 93.7764 25.036 94.1604 25.228C94.5444 25.42 94.8444 25.696 95.0604 26.056C95.2884 26.416 95.4024 26.842 95.4024 27.334C95.4024 27.754 95.3304 28.156 95.1864 28.54C95.0544 28.912 94.7964 29.284 94.4124 29.656C94.0404 30.016 93.4824 30.394 92.7384 30.79L92.1264 31.024C91.5024 31.312 91.0164 31.594 90.6684 31.87C90.3204 32.134 90.0744 32.422 89.9304 32.734C89.7864 33.046 89.7144 33.418 89.7144 33.85C89.7144 34.294 89.8284 34.678 90.0564 35.002C90.2844 35.326 90.5904 35.578 90.9744 35.758C91.3584 35.926 91.7904 36.01 92.2704 36.01C92.9304 36.01 93.4884 35.89 93.9444 35.65C94.4004 35.41 94.8204 35.068 95.2044 34.624L95.4384 34.408C95.7504 33.916 95.9904 33.358 96.1584 32.734C96.3384 32.11 96.3984 31.414 96.3384 30.646L97.5624 30.754C97.6104 31.522 97.5264 32.278 97.3104 33.022C97.1064 33.766 96.7764 34.438 96.3204 35.038L96.0504 35.416C95.5944 35.956 95.0424 36.388 94.3944 36.712C93.7464 37.024 92.9904 37.18 92.1264 37.18ZM116.352 33.958C116.1 34.63 115.74 35.212 115.272 35.704C114.804 36.184 114.252 36.55 113.616 36.802C112.992 37.054 112.308 37.18 111.564 37.18C110.436 37.18 109.458 36.934 108.63 36.442C107.814 35.938 107.178 35.23 106.722 34.318C106.278 33.406 106.056 32.32 106.056 31.06C106.056 29.8 106.278 28.714 106.722 27.802C107.178 26.89 107.814 26.188 108.63 25.696C109.458 25.192 110.424 24.94 111.528 24.94C112.296 24.94 112.98 25.048 113.58 25.264C114.18 25.468 114.69 25.78 115.11 26.2C115.542 26.608 115.884 27.112 116.136 27.712L114.714 28.378C114.45 27.694 114.066 27.178 113.562 26.83C113.07 26.47 112.428 26.29 111.636 26.29C110.832 26.29 110.124 26.482 109.512 26.866C108.9 27.238 108.42 27.778 108.072 28.486C107.736 29.194 107.568 30.052 107.568 31.06C107.568 32.056 107.73 32.914 108.054 33.634C108.378 34.342 108.84 34.888 109.44 35.272C110.04 35.644 110.748 35.83 111.564 35.83C112.356 35.83 113.046 35.632 113.634 35.236C114.222 34.828 114.648 34.222 114.912 33.418L116.352 33.958ZM123.904 24.94C125.032 24.94 126.004 25.192 126.82 25.696C127.648 26.188 128.284 26.89 128.728 27.802C129.184 28.714 129.412 29.8 129.412 31.06C129.412 32.32 129.184 33.406 128.728 34.318C128.284 35.23 127.648 35.938 126.82 36.442C126.004 36.934 125.032 37.18 123.904 37.18C122.776 37.18 121.798 36.934 120.97 36.442C120.154 35.938 119.518 35.23 119.062 34.318C118.618 33.406 118.396 32.32 118.396 31.06C118.396 29.8 118.618 28.714 119.062 27.802C119.518 26.89 120.154 26.188 120.97 25.696C121.798 25.192 122.776 24.94 123.904 24.94ZM123.904 26.29C123.088 26.29 122.38 26.482 121.78 26.866C121.18 27.238 120.718 27.784 120.394 28.504C120.07 29.212 119.908 30.064 119.908 31.06C119.908 32.056 120.07 32.914 120.394 33.634C120.718 34.342 121.18 34.888 121.78 35.272C122.38 35.644 123.088 35.83 123.904 35.83C124.732 35.83 125.44 35.644 126.028 35.272C126.628 34.888 127.09 34.342 127.414 33.634C127.738 32.914 127.9 32.056 127.9 31.06C127.9 30.064 127.738 29.212 127.414 28.504C127.09 27.784 126.628 27.238 126.028 26.866C125.44 26.482 124.732 26.29 123.904 26.29ZM134.021 35.65H140.825V37H132.581V25.12H134.021V35.65ZM144.779 35.65H151.583V37H143.339V25.12H144.779V35.65ZM154.096 37V25.12H162.43V26.47H155.536V30.304H160.9V31.654H155.536V35.65H162.7V37H154.096ZM174.887 33.958C174.635 34.63 174.275 35.212 173.807 35.704C173.339 36.184 172.787 36.55 172.151 36.802C171.527 37.054 170.843 37.18 170.099 37.18C168.971 37.18 167.993 36.934 167.165 36.442C166.349 35.938 165.713 35.23 165.257 34.318C164.813 33.406 164.591 32.32 164.591 31.06C164.591 29.8 164.813 28.714 165.257 27.802C165.713 26.89 166.349 26.188 167.165 25.696C167.993 25.192 168.959 24.94 170.063 24.94C170.831 24.94 171.515 25.048 172.115 25.264C172.715 25.468 173.225 25.78 173.645 26.2C174.077 26.608 174.419 27.112 174.671 27.712L173.249 28.378C172.985 27.694 172.601 27.178 172.097 26.83C171.605 26.47 170.963 26.29 170.171 26.29C169.367 26.29 168.659 26.482 168.047 26.866C167.435 27.238 166.955 27.778 166.607 28.486C166.271 29.194 166.103 30.052 166.103 31.06C166.103 32.056 166.265 32.914 166.589 33.634C166.913 34.342 167.375 34.888 167.975 35.272C168.575 35.644 169.283 35.83 170.099 35.83C170.891 35.83 171.581 35.632 172.169 35.236C172.757 34.828 173.183 34.222 173.447 33.418L174.887 33.958ZM186.003 25.12V26.47H181.863V37H180.423V26.47H176.283V25.12H186.003Z" fill="#12231A"/>
<path d="M217 30.5L277 30.5" stroke="#12231A" stroke-width="1.5"/>
</g>
<defs>
<clipPath id="clip0_330_5299">
<rect width="320.08" height="71.5" fill="white"/>
</clipPath>
</defs>
</svg>
