<svg width="313" height="74" viewBox="0 0 313 74" fill="none" xmlns="http://www.w3.org/2000/svg">
<g clip-path="url(#clip0_330_5289)">
<path d="M1 0.5H298.5L312 13.5V70.5H13.5L1 59V0.5Z" fill="#CCBA00"/>
<rect x="1" y="0.5" width="298" height="58" fill="#FFE800"/>
<path d="M298.63 0.75H0.75V58.43H298.63V0.75Z" stroke="#12231A" stroke-width="1.5" stroke-linecap="round" stroke-linejoin="bevel"/>
<path d="M0.75 58.43L13.51 70.75H311.39V13.07L298.63 0.75" stroke="#12231A" stroke-width="1.5" stroke-linecap="round" stroke-linejoin="bevel"/>
<path d="M311.39 70.7501L298.63 58.4301" stroke="#12231A" stroke-width="1.5" stroke-linecap="round" stroke-linejoin="bevel"/>
</g>
<path d="M35.732 38.18C34.604 38.18 33.626 37.934 32.798 37.442C31.982 36.938 31.346 36.23 30.89 35.318C30.446 34.406 30.224 33.32 30.224 32.06C30.224 30.8 30.458 29.714 30.926 28.802C31.406 27.89 32.072 27.188 32.924 26.696C33.776 26.192 34.754 25.94 35.858 25.94C37.034 25.94 37.988 26.162 38.72 26.606C39.464 27.05 40.064 27.734 40.52 28.658L39.206 29.378C38.942 28.694 38.522 28.178 37.946 27.83C37.382 27.47 36.686 27.29 35.858 27.29C35.054 27.29 34.34 27.482 33.716 27.866C33.104 28.238 32.618 28.784 32.258 29.504C31.91 30.212 31.736 31.064 31.736 32.06C31.736 33.056 31.886 33.914 32.186 34.634C32.498 35.342 32.954 35.888 33.554 36.272C34.166 36.644 34.91 36.83 35.786 36.83C36.278 36.83 36.734 36.77 37.154 36.65C37.586 36.518 37.958 36.326 38.27 36.074C38.594 35.822 38.846 35.504 39.026 35.12C39.206 34.736 39.296 34.286 39.296 33.77V33.356H35.516V32.006H40.61V38H39.476L39.404 35.786L39.71 35.84C39.398 36.584 38.906 37.16 38.234 37.568C37.562 37.976 36.728 38.18 35.732 38.18ZM45.4094 26.12V38H43.9694V26.12H45.4094ZM60.7796 26.12V38H59.4116V30.53L59.5736 27.398H59.5556L55.6496 38H54.4256L50.5196 27.398H50.5016L50.6636 30.53V38H49.2956V26.12H51.5096L54.1196 33.338L55.0196 36.308H55.0556L55.9736 33.356L58.5656 26.12H60.7796ZM76.1428 26.12V38H74.7748V30.53L74.9368 27.398H74.9188L71.0128 38H69.7888L65.8828 27.398H65.8648L66.0268 30.53V38H64.6588V26.12H66.8728L69.4828 33.338L70.3828 36.308H70.4188L71.3368 33.356L73.9288 26.12H76.1428ZM80.0221 38V26.12H88.3561V27.47H81.4621V31.304H86.8261V32.654H81.4621V36.65H88.6261V38H80.0221ZM106.383 38H104.853L103.593 34.706H98.2107L96.9507 38H95.4387L100.065 26.12H101.775L106.383 38ZM98.7327 33.356H103.071L100.893 27.506L98.7327 33.356ZM122.528 27.47H115.652V31.304H121.016V32.654H115.652V38H114.212V26.12H122.528V27.47ZM129.698 26.12C130.91 26.12 131.882 26.432 132.614 27.056C133.346 27.68 133.712 28.526 133.712 29.594C133.712 30.662 133.34 31.496 132.596 32.096C131.864 32.684 130.892 32.978 129.68 32.978L129.554 33.068H126.638V38H125.198V26.12H129.698ZM129.68 31.718C130.532 31.718 131.162 31.544 131.57 31.196C131.99 30.836 132.2 30.302 132.2 29.594C132.2 28.886 131.99 28.358 131.57 28.01C131.162 27.65 130.532 27.47 129.68 27.47H126.638V31.718H129.68ZM130.508 32.006L134.432 38H132.722L129.302 32.798L130.508 32.006ZM138.609 26.12V38H137.169V26.12H138.609ZM142.495 38V26.12H150.829V27.47H143.935V31.304H149.299V32.654H143.935V36.65H151.099V38H142.495ZM163.297 26.12V38H161.515L156.547 30.044L155.287 27.812H155.269L155.341 29.612V38H153.973V26.12H155.755L160.705 34.04L161.983 36.326H162.001L161.929 34.508V26.12H163.297ZM171.026 26.12C172.886 26.12 174.344 26.636 175.4 27.668C176.468 28.688 177.002 30.152 177.002 32.06C177.002 33.968 176.468 35.438 175.4 36.47C174.344 37.49 172.886 38 171.026 38H167.192V26.12H171.026ZM171.17 36.65C172.526 36.65 173.582 36.248 174.338 35.444C175.106 34.628 175.49 33.5 175.49 32.06C175.49 30.62 175.106 29.498 174.338 28.694C173.582 27.878 172.526 27.47 171.17 27.47H168.632V36.65H171.17Z" fill="#12231A"/>
<path d="M209 31.5L269 31.5" stroke="#12231A" stroke-width="1.5"/>
<defs>
<clipPath id="clip0_330_5289">
<rect width="312.14" height="71.5" fill="white"/>
</clipPath>
</defs>
</svg>
