<svg width="301" height="71" viewBox="0 0 301 71" fill="none" xmlns="http://www.w3.org/2000/svg">
<g clip-path="url(#clip0_330_4838)">
<path d="M0.5 58.18L12.82 70.5H300.43V12.82L288.11 0.5" fill="#FBFAF4"/>
<path d="M0.5 58.18L12.82 70.5H300.43V12.82L288.11 0.5" stroke="#12231A" stroke-width="1.5" stroke-linecap="round" stroke-linejoin="bevel"/>
<path d="M300.429 70.4997L288.109 58.1797" stroke="#12231A" stroke-width="1.5" stroke-linecap="round" stroke-linejoin="bevel"/>
<path d="M288.11 0.5H0.5V58.18H288.11V0.5Z" fill="#FBFAF4" stroke="#12231A" stroke-width="1.5" stroke-linecap="round" stroke-linejoin="bevel"/>
<path d="M36.732 35.18C35.604 35.18 34.626 34.934 33.798 34.442C32.982 33.938 32.346 33.23 31.89 32.318C31.446 31.406 31.224 30.32 31.224 29.06C31.224 27.8 31.458 26.714 31.926 25.802C32.406 24.89 33.072 24.188 33.924 23.696C34.776 23.192 35.754 22.94 36.858 22.94C38.034 22.94 38.988 23.162 39.72 23.606C40.464 24.05 41.064 24.734 41.52 25.658L40.206 26.378C39.942 25.694 39.522 25.178 38.946 24.83C38.382 24.47 37.686 24.29 36.858 24.29C36.054 24.29 35.34 24.482 34.716 24.866C34.104 25.238 33.618 25.784 33.258 26.504C32.91 27.212 32.736 28.064 32.736 29.06C32.736 30.056 32.886 30.914 33.186 31.634C33.498 32.342 33.954 32.888 34.554 33.272C35.166 33.644 35.91 33.83 36.786 33.83C37.278 33.83 37.734 33.77 38.154 33.65C38.586 33.518 38.958 33.326 39.27 33.074C39.594 32.822 39.846 32.504 40.026 32.12C40.206 31.736 40.296 31.286 40.296 30.77V30.356H36.516V29.006H41.61V35H40.476L40.404 32.786L40.71 32.84C40.398 33.584 39.906 34.16 39.234 34.568C38.562 34.976 37.728 35.18 36.732 35.18ZM46.4094 23.12V35H44.9694V23.12H46.4094ZM61.7796 23.12V35H60.4116V27.53L60.5736 24.398H60.5556L56.6496 35H55.4256L51.5196 24.398H51.5016L51.6636 27.53V35H50.2956V23.12H52.5096L55.1196 30.338L56.0196 33.308H56.0556L56.9736 30.356L59.5656 23.12H61.7796ZM77.1428 23.12V35H75.7748V27.53L75.9368 24.398H75.9188L72.0128 35H70.7888L66.8828 24.398H66.8648L67.0268 27.53V35H65.6588V23.12H67.8728L70.4828 30.338L71.3828 33.308H71.4188L72.3368 30.356L74.9288 23.12H77.1428ZM81.0221 35V23.12H89.3561V24.47H82.4621V28.304H87.8261V29.654H82.4621V33.65H89.6261V35H81.0221ZM107.383 35H105.853L104.593 31.706H99.2107L97.9507 35H96.4387L101.065 23.12H102.775L107.383 35ZM99.7327 30.356H104.071L101.893 24.506L99.7327 30.356ZM123.071 23.12V24.47H118.931V35H117.491V24.47H113.351V23.12H123.071ZM133.433 35H131.903L130.643 31.706H125.261L124.001 35H122.489L127.115 23.12H128.825L133.433 35ZM125.783 30.356H130.121L127.943 24.506L125.783 30.356ZM135.848 35V23.12H140.078C141.482 23.12 142.508 23.414 143.156 24.002C143.804 24.59 144.128 25.388 144.128 26.396C144.128 26.996 143.954 27.542 143.606 28.034C143.258 28.514 142.766 28.82 142.13 28.952V28.97C142.838 29.102 143.396 29.426 143.804 29.942C144.224 30.446 144.434 31.022 144.434 31.67C144.434 32.678 144.056 33.488 143.3 34.1C142.544 34.7 141.464 35 140.06 35H135.848ZM137.288 33.65H140.402C141.254 33.65 141.884 33.476 142.292 33.128C142.712 32.78 142.922 32.294 142.922 31.67C142.922 31.034 142.712 30.548 142.292 30.212C141.884 29.864 141.254 29.69 140.402 29.69H137.288V33.65ZM137.288 28.34H140.096C141.776 28.34 142.616 27.692 142.616 26.396C142.616 25.112 141.776 24.47 140.096 24.47H137.288V28.34ZM149.048 33.65H155.852V35H147.608V23.12H149.048V33.65ZM158.366 35V23.12H166.7V24.47H159.806V28.304H165.17V29.654H159.806V33.65H166.97V35H158.366Z" fill="#12231A"/>
<path d="M198 28.5L258 28.5" stroke="#12231A" stroke-width="1.5"/>
</g>
<defs>
<clipPath id="clip0_330_4838">
<rect width="300.93" height="71" fill="white"/>
</clipPath>
</defs>
</svg>
