<svg width="39" height="24" viewBox="0 0 39 24" fill="none" xmlns="http://www.w3.org/2000/svg">
<g clip-path="url(#clip0_403_5318)">
<path d="M19.6971 14.4704C22.8533 14.4704 25.4118 11.9119 25.4118 8.75571C25.4118 5.59957 22.8533 3.04102 19.6971 3.04102C16.541 3.04102 13.9824 5.59957 13.9824 8.75571C13.9824 11.9119 16.541 14.4704 19.6971 14.4704Z" stroke="#12231A" stroke-width="1.5" stroke-linecap="round" stroke-linejoin="round"/>
<path d="M29.2396 22.6024C27.4372 18.6424 23.843 15.9441 19.6974 15.9441C15.5519 15.9441 11.9577 18.6477 10.1553 22.6024" stroke="#12231A" stroke-width="1.5" stroke-linecap="round" stroke-linejoin="round"/>
<path d="M25.4072 2.27758C26.2872 1.72096 27.3316 1.39758 28.4501 1.39758C31.6043 1.39758 34.1648 3.95276 34.1648 7.11228C34.1648 10.2718 31.6096 12.827 28.4501 12.827" stroke="#12231A" stroke-width="1.5" stroke-linecap="round" stroke-linejoin="round"/>
<path d="M37.9972 19.48C36.1948 15.52 32.6006 12.8217 28.4551 12.8217" stroke="#12231A" stroke-width="1.5" stroke-linecap="round" stroke-linejoin="round"/>
<path d="M13.9822 2.27758C13.1022 1.72096 12.0579 1.39758 10.9393 1.39758C7.78509 1.39758 5.22461 3.95276 5.22461 7.11228C5.22461 10.2718 7.77979 12.827 10.9393 12.827" stroke="#12231A" stroke-width="1.5" stroke-linecap="round" stroke-linejoin="round"/>
<path d="M1.39746 19.48C3.19987 15.52 6.79409 12.8217 10.9396 12.8217" stroke="#12231A" stroke-width="1.5" stroke-linecap="round" stroke-linejoin="round"/>
</g>
<defs>
<clipPath id="clip0_403_5318">
<rect width="39" height="24" fill="white"/>
</clipPath>
</defs>
</svg>
