<svg width="33" height="24" viewBox="0 0 33 24" fill="none" xmlns="http://www.w3.org/2000/svg">
<g clip-path="url(#clip0_403_5303)">
<path d="M11.745 13.7851C15.1569 13.7851 17.9227 11.0193 17.9227 7.60746C17.9227 4.19564 15.1569 1.42981 11.745 1.42981C8.33321 1.42981 5.56738 4.19564 5.56738 7.60746C5.56738 11.0193 8.33321 13.7851 11.745 13.7851Z" stroke="#12231A" stroke-width="1.5" stroke-linecap="round" stroke-linejoin="round"/>
<path d="M22.0601 22.5703C20.1116 18.2895 16.2263 15.3726 11.7449 15.3726C7.2635 15.3726 3.37811 18.2895 1.42969 22.5703" stroke="#12231A" stroke-width="1.5" stroke-linecap="round" stroke-linejoin="round"/>
<path d="M17.9229 2.3811C18.8741 1.77938 20.0031 1.42981 21.2122 1.42981C24.622 1.42981 27.3899 4.19199 27.3899 7.60746C27.3899 11.0229 24.6277 13.7851 21.2122 13.7851" stroke="#12231A" stroke-width="1.5" stroke-linecap="round" stroke-linejoin="round"/>
<path d="M31.5271 20.9771C29.5787 16.6963 25.6933 13.7794 21.2119 13.7794" stroke="#12231A" stroke-width="1.5" stroke-linecap="round" stroke-linejoin="round"/>
</g>
<defs>
<clipPath id="clip0_403_5303">
<rect width="33" height="24" fill="white"/>
</clipPath>
</defs>
</svg>
