<svg width="109" height="110" viewBox="0 0 109 110" fill="none" xmlns="http://www.w3.org/2000/svg">
<path d="M77.5276 73.3323C78.648 74.843 79.6688 76.0555 80.5107 77.3804C85.4692 85.1635 84.6812 96.6372 78.0501 102.841C74.5966 106.076 69.2488 106.792 65.0672 104.624C59.5893 101.785 55.7022 97.2768 52.4856 92.2214C50.2275 88.6715 48.4644 84.8028 46.4212 80.9513C44.5891 81.6701 42.4538 82.4763 40.3443 83.3425C32.1912 86.7027 24.0683 86.7912 15.9352 83.2244C13.1025 81.9835 11.0789 79.8488 9.48008 77.3472C2.0114 65.6503 7.52492 54.5342 18.1125 50.9741C24.9126 48.688 31.9757 48.4046 39.0813 49.4448C39.4335 49.496 39.7856 49.5224 40.1377 49.5488C42.5733 49.7567 42.5269 49.5494 41.9399 47.1887C39.8251 38.7283 38.0932 29.9689 43.221 22.1563C49.7126 12.2605 60.4245 8.8246 70.7124 16.6104C76.4618 20.9588 78.6995 26.9098 79.3837 33.7157C79.6247 36.122 79.5579 36.1152 82.0284 35.9496C86.3725 35.658 90.0457 37.2694 93.048 40.2621C95.3655 42.5689 95.4895 45.7531 95.3418 48.7343C95.1669 52.2562 94.8979 55.8646 93.9443 59.2343C92.2115 65.3628 88.1905 69.6832 82.0629 71.8405C80.6351 72.3432 79.1893 72.779 77.5267 73.322L77.5276 73.3323Z" fill="#FFE800"/>
<path d="M52 50.9998L72 70.9998" stroke="#12231A" stroke-width="1.5"/>
<path d="M72 50.9998L52 70.9998" stroke="#12231A" stroke-width="1.5"/>
</svg>
