<svg width="72" height="72" viewBox="0 0 72 72" fill="none" xmlns="http://www.w3.org/2000/svg">
<path d="M28.664 60.7166C27.8251 62.1049 27.1901 63.3172 26.41 64.4215C21.8314 70.9191 12.5293 73.9758 5.5439 70.631C1.90223 68.8906 -0.347855 64.8136 0.0441443 60.7486C0.557663 55.4233 2.89005 50.8422 5.86532 46.6252C7.95467 43.6645 10.4517 40.9998 12.8468 38.1151C11.7022 36.8708 10.3929 35.4105 9.04442 33.9901C3.823 28.5048 1.19268 21.9913 1.44356 14.2934C1.5298 11.6128 2.57644 9.29619 4.04644 7.20369C10.9221 -2.57468 21.4316 -1.71047 27.5781 5.67131C31.5256 10.4125 33.9755 16.0098 35.3946 22.0673C35.4651 22.3673 35.5553 22.6594 35.6455 22.9515C36.2491 24.98 36.3981 24.876 38.0759 23.6437C44.0852 19.2186 50.4513 15.0056 58.2324 16.622C68.0873 18.6664 74.175 26.1883 71.2743 36.9789C69.6553 43.0083 65.6648 46.7252 60.51 49.4659C58.6872 50.4341 58.6715 50.3781 59.5809 52.3146C61.1803 55.7194 61.0666 59.1962 59.6515 62.5771C58.5617 65.1857 56.0882 66.31 53.6892 67.1502C50.855 68.1424 47.9229 69.0866 44.9633 69.4027C39.5811 69.9788 34.9046 68.1304 31.2707 63.8894C30.424 62.9011 29.6244 61.8769 28.6718 60.7126L28.664 60.7166Z" fill="#FF6C27"/>
<path d="M23 31L43 51" stroke="#12231A" stroke-width="1.5"/>
<path d="M43 31L23 51" stroke="#12231A" stroke-width="1.5"/>
</svg>
