<svg width="184" height="180" viewBox="0 0 184 180" fill="none" xmlns="http://www.w3.org/2000/svg">
<path d="M73.1226 151.755C70.9826 155.225 69.3626 158.255 67.3726 161.015C55.6926 177.255 31.9626 184.895 14.1426 176.535C4.85264 172.185 -0.887387 161.995 0.112613 151.835C1.42261 138.525 7.37259 127.075 14.9626 116.535C20.2926 109.135 26.6625 102.475 32.7725 95.2648C29.8525 92.1548 26.5126 88.5049 23.0726 84.9548C9.75257 71.2449 3.04256 54.9649 3.68256 35.7249C3.90256 29.0249 6.57257 23.2349 10.3226 18.0049C27.8626 -6.43513 54.6726 -4.27515 70.3526 14.1748C80.4226 26.0248 86.6725 40.0149 90.2925 55.1549C90.4725 55.9049 90.7026 56.6348 90.9326 57.3648C92.4726 62.4348 92.8526 62.1749 97.1326 59.0949C112.463 48.0349 128.703 37.5048 148.553 41.5448C173.693 46.6548 189.223 65.4548 181.823 92.4249C177.693 107.495 167.513 116.785 154.363 123.635C149.713 126.055 149.673 125.915 151.993 130.755C156.073 139.265 155.783 147.955 152.173 156.405C149.393 162.925 143.083 165.735 136.963 167.835C129.733 170.315 122.253 172.675 114.703 173.465C100.973 174.905 89.0425 170.285 79.7725 159.685C77.6125 157.215 75.5726 154.655 73.1426 151.745L73.1226 151.755Z" fill="#FF6C27"/>
<path d="M72 98L112 138" stroke="#FBFAF4" stroke-width="2.5"/>
<path d="M112 98L72 138" stroke="#FBFAF4" stroke-width="2.5"/>
</svg>
