<svg width="23" height="18" viewBox="0 0 23 18" fill="none" xmlns="http://www.w3.org/2000/svg">
<g clip-path="url(#clip0_403_18995)">
<g clip-path="url(#clip1_403_18995)">
<path d="M17.8701 10.42C20.1013 10.42 21.9101 8.6112 21.9101 6.37997C21.9101 4.14874 20.1013 2.33997 17.8701 2.33997C15.6388 2.33997 13.8301 4.14874 13.8301 6.37997C13.8301 8.6112 15.6388 10.42 17.8701 10.42Z" stroke="#12231A" stroke-width="1.5" stroke-linecap="round" stroke-linejoin="round"/>
<path d="M0.75 5.93001C0.75 5.93001 9.29 -3.54999 20.32 3.14001" stroke="#12231A" stroke-width="1.5" stroke-linecap="round" stroke-linejoin="round"/>
<path d="M4.79 15.45C7.02123 15.45 8.83 13.6412 8.83 11.41C8.83 9.17876 7.02123 7.37 4.79 7.37C2.55877 7.37 0.75 9.17876 0.75 11.41C0.75 13.6412 2.55877 15.45 4.79 15.45Z" stroke="#12231A" stroke-width="1.5" stroke-linecap="round" stroke-linejoin="round"/>
<path d="M21.9196 11.85C21.9196 11.85 13.3796 21.34 2.34961 14.64" stroke="#12231A" stroke-width="1.5" stroke-linecap="round" stroke-linejoin="round"/>
</g>
</g>
<defs>
<clipPath id="clip0_403_18995">
<rect width="23" height="18" fill="white"/>
</clipPath>
<clipPath id="clip1_403_18995">
<rect width="22.67" height="17.79" fill="white"/>
</clipPath>
</defs>
</svg>
