<svg width="24" height="21" viewBox="0 0 24 21" fill="none" xmlns="http://www.w3.org/2000/svg">
<g clip-path="url(#clip0_403_19011)">
<g clip-path="url(#clip1_403_19011)">
<path d="M0.75 3.6C0.75 2.03 2.03 0.75 3.6 0.75C5.18 0.75 6.45 2.03 6.45 3.6V15.18" stroke="#12231A" stroke-width="1.5" stroke-linecap="round" stroke-linejoin="round"/>
<path d="M6.45996 3.6C6.45996 2.02 7.73996 0.75 9.30996 0.75C10.89 0.75 12.16 2.03 12.16 3.6V15.18" stroke="#12231A" stroke-width="1.5" stroke-linecap="round" stroke-linejoin="round"/>
<path d="M12.1602 3.6C12.1602 2.02 13.4402 0.75 15.0102 0.75C16.5902 0.75 17.8602 2.03 17.8602 3.6V15.3C17.8602 17.71 19.7802 19.71 22.1802 19.74C22.2202 19.74 22.2602 19.74 22.3002 19.74" stroke="#12231A" stroke-width="1.5" stroke-linecap="round" stroke-linejoin="round"/>
<path d="M17.8699 4.53003C17.8699 4.53003 26.4199 1.65003 19.5699 15.58C18.5799 17.6 16.7899 19.12 14.6299 19.75" stroke="#12231A" stroke-width="1.5" stroke-linecap="round" stroke-linejoin="round"/>
</g>
</g>
<defs>
<clipPath id="clip0_403_19011">
<rect width="24" height="21" fill="white"/>
</clipPath>
<clipPath id="clip1_403_19011">
<rect width="23.06" height="20.5" fill="white"/>
</clipPath>
</defs>
</svg>
