<svg width="26" height="21" viewBox="0 0 26 21" fill="none" xmlns="http://www.w3.org/2000/svg">
<g clip-path="url(#clip0_403_19137)">
<g clip-path="url(#clip1_403_19137)">
<path d="M11.75 19.75C18.12 17.99 18.28 12.84 18.28 12.84V5.13C18.28 2.71 16.32 0.75 13.9 0.75C11.48 0.75 9.52 2.71 9.52 5.13C9.52 2.71 7.56 0.75 5.14 0.75C2.72 0.75 0.75 2.71 0.75 5.13" stroke="#12231A" stroke-width="1.5" stroke-linecap="round" stroke-linejoin="round"/>
<path d="M9.50977 4.97998V15.62" stroke="#12231A" stroke-width="1.5" stroke-linecap="round" stroke-linejoin="round"/>
<path d="M21.4902 15.16C23.1912 15.16 24.5702 13.781 24.5702 12.08C24.5702 10.379 23.1912 9 21.4902 9C19.7891 9 18.4102 10.379 18.4102 12.08C18.4102 13.781 19.7891 15.16 21.4902 15.16Z" stroke="#12231A" stroke-width="1.5" stroke-linecap="round" stroke-linejoin="round"/>
</g>
</g>
<defs>
<clipPath id="clip0_403_19137">
<rect width="26" height="21" fill="white"/>
</clipPath>
<clipPath id="clip1_403_19137">
<rect width="25.32" height="20.5" fill="white"/>
</clipPath>
</defs>
</svg>
