<svg width="28" height="21" viewBox="0 0 28 21" fill="none" xmlns="http://www.w3.org/2000/svg">
<g clip-path="url(#clip0_403_19031)">
<g clip-path="url(#clip1_403_19031)">
<path d="M0.75 3.97C0.75 2.19 2.19 0.75 3.97 0.75C5.75 0.75 7.19 2.19 7.19 3.97V17.06" stroke="#12231A" stroke-width="1.5" stroke-linecap="round" stroke-linejoin="round"/>
<path d="M7.2002 3.97C7.2002 2.19 8.6402 0.75 10.4202 0.75C12.2002 0.75 13.6402 2.19 13.6402 3.97V17.06" stroke="#12231A" stroke-width="1.5" stroke-linecap="round" stroke-linejoin="round"/>
<path d="M13.6396 3.97C13.6396 2.19 15.0796 0.75 16.8596 0.75C18.6396 0.75 20.0796 2.19 20.0796 3.97L20.1396 12.08C20.1396 14.8 22.2996 17.06 25.0196 17.1H27.1896" stroke="#12231A" stroke-width="1.5" stroke-linecap="round" stroke-linejoin="round"/>
<path d="M24.5498 14.45L27.1998 17.1L24.5498 19.75" stroke="#12231A" stroke-width="1.5" stroke-linecap="round" stroke-linejoin="round"/>
</g>
</g>
<defs>
<clipPath id="clip0_403_19031">
<rect width="28" height="21" fill="white"/>
</clipPath>
<clipPath id="clip1_403_19031">
<rect width="27.95" height="20.5" fill="white"/>
</clipPath>
</defs>
</svg>
