<svg width="23" height="27" viewBox="0 0 23 27" fill="none" xmlns="http://www.w3.org/2000/svg">
<g clip-path="url(#clip0_607_13425)">
<path d="M11.8 23.4977C12.6513 23.4977 13.5083 23.4977 14.3596 23.4977C16.3684 23.4977 18.3995 23.6535 20.4027 23.5478C21.2095 23.5033 22.2557 23.0247 21.8328 21.9341C21.4822 21.0382 20.5641 20.4094 20.0688 19.5859C18.8446 17.5548 18.7667 12.4299 18.7667 12.4299C18.7667 8.20643 15.645 4.77869 11.7944 4.77869C7.94375 4.77869 4.82205 8.20086 4.82205 12.4299C4.82205 12.4299 4.74971 17.5492 3.51996 19.5859C3.02471 20.4094 2.10657 21.0326 1.756 21.9341C1.3331 23.0247 2.38479 23.5033 3.18608 23.5478C5.18931 23.6535 7.22592 23.4977 9.22915 23.4977H11.7888" stroke="#12231A" stroke-width="1.5" stroke-linecap="round" stroke-linejoin="round"/>
<path d="M14.4215 23.5868C14.4215 25.0336 13.2473 26.2077 11.8006 26.2077C10.3538 26.2077 9.17969 25.0336 9.17969 23.5868" stroke="#12231A" stroke-width="1.5" stroke-linecap="round" stroke-linejoin="round"/>
<path d="M10.3369 4.60623V2.63083C10.3369 1.82397 10.9935 1.16736 11.8004 1.16736C12.6072 1.16736 13.2638 1.82397 13.2638 2.63083V4.60623" stroke="#12231A" stroke-width="1.5" stroke-linecap="round" stroke-linejoin="round"/>
</g>
<defs>
<clipPath id="clip0_607_13425">
<rect width="22.5" height="27" fill="white" transform="translate(0.5)"/>
</clipPath>
</defs>
</svg>
