<svg width="23" height="27" viewBox="0 0 23 27" fill="none" xmlns="http://www.w3.org/2000/svg">
<g clip-path="url(#clip0_607_9624)">
<path d="M11.3 23.4977C12.1513 23.4977 13.0083 23.4977 13.8596 23.4977C15.8684 23.4977 17.8995 23.6535 19.9027 23.5478C20.7095 23.5033 21.7557 23.0247 21.3328 21.9341C20.9822 21.0382 20.0641 20.4094 19.5688 19.5859C18.3446 17.5548 18.2667 12.4299 18.2667 12.4299C18.2667 8.20643 15.145 4.77869 11.2944 4.77869C7.44375 4.77869 4.32205 8.20086 4.32205 12.4299C4.32205 12.4299 4.24971 17.5492 3.01996 19.5859C2.52471 20.4094 1.60657 21.0326 1.256 21.9341C0.833101 23.0247 1.88479 23.5033 2.68608 23.5478C4.68931 23.6535 6.72592 23.4977 8.72915 23.4977H11.2888" stroke="#FBFAF4" stroke-width="1.5" stroke-linecap="round" stroke-linejoin="round"/>
<path d="M13.9215 23.5868C13.9215 25.0336 12.7473 26.2077 11.3006 26.2077C9.8538 26.2077 8.67969 25.0336 8.67969 23.5868" stroke="#FBFAF4" stroke-width="1.5" stroke-linecap="round" stroke-linejoin="round"/>
<path d="M9.83691 4.60623V2.63083C9.83691 1.82397 10.4935 1.16736 11.3004 1.16736C12.1072 1.16736 12.7638 1.82397 12.7638 2.63083V4.60623" stroke="#FBFAF4" stroke-width="1.5" stroke-linecap="round" stroke-linejoin="round"/>
</g>
<defs>
<clipPath id="clip0_607_9624">
<rect width="22.5" height="27" fill="white"/>
</clipPath>
</defs>
</svg>
