<svg width="30" height="36" viewBox="0 0 30 36" fill="none" xmlns="http://www.w3.org/2000/svg">
<g clip-path="url(#clip0_403_5146)">
<path d="M15.0669 31.3303C16.2021 31.3303 17.3447 31.3303 18.4798 31.3303C21.1582 31.3303 23.8663 31.538 26.5373 31.3971C27.6131 31.3377 29.0079 30.6996 28.444 29.2455C27.9766 28.0509 26.7524 27.2125 26.0921 26.1145C24.4598 23.4064 24.356 16.5732 24.356 16.5732C24.356 10.9419 20.1937 6.37158 15.0595 6.37158C9.92532 6.37158 5.76306 10.9345 5.76306 16.5732C5.76306 16.5732 5.66661 23.399 4.02693 26.1145C3.36661 27.2125 2.14242 28.0435 1.675 29.2455C1.11113 30.6996 2.51338 31.3377 3.58177 31.3971C6.25274 31.538 8.96822 31.3303 11.6392 31.3303H15.0521" stroke="#12231A" stroke-width="1.5" stroke-linecap="round" stroke-linejoin="round"/>
<path d="M18.5613 31.449C18.5613 33.378 16.9958 34.9435 15.0668 34.9435C13.1377 34.9435 11.5723 33.378 11.5723 31.449" stroke="#12231A" stroke-width="1.5" stroke-linecap="round" stroke-linejoin="round"/>
<path d="M13.1162 6.14156V3.50769C13.1162 2.43188 13.9917 1.5564 15.0675 1.5564C16.1433 1.5564 17.0188 2.43188 17.0188 3.50769V6.14156" stroke="#12231A" stroke-width="1.5" stroke-linecap="round" stroke-linejoin="round"/>
</g>
<defs>
<clipPath id="clip0_403_5146">
<rect width="30" height="36" fill="white"/>
</clipPath>
</defs>
</svg>
