<svg width="290" height="506" viewBox="0 0 290 506" fill="none" xmlns="http://www.w3.org/2000/svg">
<path d="M84.5413 260.624C83.8919 259.538 82.5532 257.488 81.3873 255.311C72.2091 238.064 66.9658 219.428 63.2964 200.238C59.6084 180.916 57.5451 161.508 57.8298 141.899C58.0734 125.013 58.3675 108.103 57.7575 91.2005C57.026 70.7625 48.4412 54.1075 33.0882 41.7778C29.9117 39.2201 25.473 38.5892 21.6137 37.0622C20.7143 40.9288 18.8895 44.8085 19.0936 48.6586C19.8836 63.9907 21.7824 79.3298 22.3597 94.661C23.1013 114.061 28.2834 132.427 32.9231 151.113C37.0085 167.558 38.2648 184.695 41.7626 201.311C48.0943 231.376 59.1636 259.106 80.9462 280.677C88.9866 288.639 95.464 297.5 98.4564 309.039C101.214 319.694 104.321 330.258 107.188 340.901C107.715 342.877 107.783 344.995 108.069 347.039C107.603 347.305 107.13 347.585 106.665 347.851C104.313 345.13 101.445 342.749 99.6986 339.644C90.8695 323.933 82.3621 308.012 73.7005 292.201C71.1372 287.518 68.8211 282.595 65.6783 278.414C64.0284 276.224 60.8183 275.388 58.3205 273.946C57.3781 276.935 55.6379 279.907 55.6873 282.93C55.7506 286.799 56.8829 290.845 58.1879 294.568C69.4749 326.848 87.0724 354.167 112.461 375.658C117.282 379.741 121.183 385.734 124.311 391.571C132.464 406.77 139.988 422.347 147.676 437.813C149.033 440.537 149.971 443.481 151.111 446.329C150.584 446.72 150.058 447.111 149.532 447.502C145.921 443.378 142.212 439.363 138.731 435.123C128.66 422.851 118.782 410.399 108.612 398.235C105.618 394.661 102.136 391.396 98.4219 388.788C96.3709 387.343 92.759 386.315 91.0018 387.343C89.2711 388.341 88.1483 392.159 88.2242 394.756C88.5924 407.102 94.3845 417.523 100.926 427.158C116.255 449.715 136.193 466.663 157.902 481.221C161.201 483.431 164.76 485.26 168.335 486.865C177.003 490.751 182.435 489.06 186.358 480.19C193.455 464.175 197.177 447.286 193.232 428.898C188.833 408.419 193.716 389.405 198.995 370.51C203.486 354.446 210.509 339.779 217.537 324.938C224.823 309.558 229.324 292.505 234.993 276.161C237.412 269.187 239.879 262.226 241.893 255.098C242.44 253.173 241.409 250.658 241.113 248.419C239.196 248.645 237.114 248.441 235.393 249.189C228.229 252.31 222.362 257.207 218.061 264.314C203.142 288.975 188.352 313.707 180.246 342.504C174.467 363.041 173.272 384.447 172.82 405.98C172.431 424.836 172.008 443.686 171.564 464.022C169.997 461.9 169.031 461.047 168.616 459.957C161.447 441.316 154.164 422.712 147.376 403.923C145.658 399.171 144.453 393.625 144.908 388.738C146.124 375.588 148.223 362.583 150.219 349.565C151.742 339.637 154.075 329.872 155.136 319.877C155.485 316.542 153.89 311.788 151.647 309.351C148.509 305.933 145.227 309.405 142.556 311.578C132.12 320.091 126.994 332.132 124.619 345.939C124.147 348.685 123.617 351.42 123.11 354.162C122.446 354.239 121.767 354.307 121.103 354.384C119.891 351.416 118.278 348.552 117.535 345.478C115.043 335.157 111.689 324.834 110.801 314.383C109.211 295.632 107.435 276.701 117.18 259.591C125.294 245.342 131.795 229.955 139.72 215.564C143.339 208.995 148.378 203.263 153.347 197.768C157.613 193.062 160.73 188.223 159.67 181.151C158.563 173.721 154.25 170.201 146.898 171.367C136.211 173.069 129.206 180.926 123.855 190.009C119.447 197.484 116.184 205.958 113.375 214.414C108.099 230.274 103.531 246.442 98.6284 262.464C98.2992 263.526 97.6747 264.469 96.66 266.549C95.3263 263.979 94.0518 262.309 93.5668 260.421C92.4316 255.969 90.8335 251.351 90.9083 246.907C91.3755 220.426 87.303 193.362 97.3015 168.068C101.476 157.501 103.855 146.023 106.921 134.907C111.244 119.189 119.284 106.239 130.62 95.8317C138.533 88.5704 147.255 82.2597 154.646 74.4264C164.147 64.3625 169.009 51.2102 170.501 36.617C171.218 29.5859 168.677 26.6247 162.186 27.6441C140.999 30.9812 122.834 40.5241 111.891 60.928C101.137 80.9807 90.7482 101.456 82.266 122.793C73.2447 145.497 66.4233 169.514 71.2291 195.524C75.2775 217.465 80.1555 239.266 84.5493 260.56L84.5413 260.624Z" fill="#47D5B3"/>
</svg>
