<svg width="174" height="500" viewBox="0 0 174 500" fill="none" xmlns="http://www.w3.org/2000/svg">
<path d="M30.8807 244.146C30.5207 242.88 29.7408 240.463 29.1407 237.957C24.4408 218.112 23.5408 197.762 24.1608 177.208C24.7908 156.516 26.8907 136.115 31.1307 116.055C34.7807 98.7796 38.4807 81.4916 41.3707 64.0011C44.8707 42.853 40.5808 23.7552 29.3608 7.51763C27.0408 4.15115 23.2008 2.46791 20.0608 0C18.4708 3.75881 16.0508 7.31513 15.4508 11.3144C13.0408 27.2356 11.6208 43.4225 9.02075 59.2931C5.74075 79.378 6.64084 99.4377 6.99084 119.7C7.30084 137.532 4.9408 155.415 4.6908 173.285C4.2408 205.621 8.50082 236.666 23.5908 263.889C29.1608 273.938 33.1508 284.543 33.4808 297.085C33.7808 308.666 34.4108 320.233 34.8108 331.826C34.8808 333.978 34.5108 336.167 34.3508 338.331C33.8808 338.496 33.4008 338.673 32.9308 338.837C31.3808 335.496 29.3007 332.383 28.3707 328.789C23.6707 310.602 19.3008 292.276 14.7708 274.026C13.4308 268.622 12.3608 263.028 10.4008 258.004C9.37076 255.372 6.67084 253.764 4.73083 251.701C3.28084 254.549 1.12079 257.194 0.550781 260.307C-0.179214 264.294 0.0107727 268.711 0.420776 272.837C3.95078 308.602 14.1308 340.748 32.4608 368.731C35.9408 374.046 38.2108 381.108 39.8208 387.829C44.0208 405.332 47.5808 423.075 51.3108 440.743C51.9708 443.856 52.2108 447.096 52.6508 450.286C52.1008 450.564 51.5507 450.842 51.0007 451.121C48.6107 446.046 46.1108 441.059 43.8608 435.896C37.3508 420.949 31.0508 405.863 24.4308 391.005C22.4808 386.639 20.0308 382.475 17.2408 378.931C15.7009 376.97 12.6808 375.071 10.9008 375.717C9.15076 376.337 7.37077 379.995 6.91077 382.678C4.73077 395.435 7.79079 407.483 11.6808 418.899C20.8008 445.628 35.1807 467.675 51.6307 487.684C54.1307 490.721 56.9408 493.43 59.8108 495.91C66.7708 501.922 71.9708 501.454 77.2808 493.265C86.8808 478.483 93.6408 462.018 93.8508 442.224C94.0808 420.177 102.311 401.801 110.871 383.639C118.151 368.199 127.411 354.784 136.711 341.191C146.351 327.105 153.841 310.653 162.231 295.2C165.811 288.606 169.431 282.038 172.681 275.191C173.561 273.343 173.151 270.521 173.341 268.154C171.581 267.939 169.761 267.243 168.071 267.61C161.031 269.141 154.791 272.799 149.501 279.089C131.151 300.92 112.901 322.853 99.8008 350.519C90.4608 370.249 85.0407 391.942 80.2607 413.938C76.0807 433.2 71.8708 452.45 67.3408 473.218C66.3708 470.674 65.6808 469.573 65.5308 468.358C62.9108 447.552 60.1808 426.758 57.9308 405.889C57.3608 400.611 57.4108 394.637 58.8108 389.727C62.5708 376.514 67.0908 363.656 71.5208 350.759C74.9007 340.926 78.9708 331.446 81.9508 321.435C82.9408 318.094 82.4808 312.842 80.9708 309.817C78.8608 305.578 75.2207 308.375 72.3907 309.982C61.3307 316.285 54.3007 327.447 49.3707 341.065C48.3907 343.773 47.3608 346.456 46.3508 349.152C45.7408 349.076 45.1207 348.987 44.5107 348.912C44.0307 345.583 43.1707 342.267 43.1307 338.939C43.0007 327.763 42.1008 316.386 43.4308 305.451C45.8208 285.834 48.0807 265.99 60.2708 250.701C70.4208 237.97 79.3607 223.694 89.3707 210.772C93.9407 204.874 99.6108 200.166 105.171 195.686C109.941 191.851 113.711 187.612 114.201 180.107C114.721 172.222 111.581 167.603 104.771 167.084C94.8708 166.337 87.0107 172.766 80.3807 180.841C74.9207 187.485 70.2808 195.42 66.0508 203.444C58.1108 218.492 50.7408 234.021 43.1008 249.322C42.5908 250.334 41.8407 251.157 40.5107 253.055C39.8407 250.107 39.0408 248.094 38.9908 246.044C38.8808 241.21 38.3908 236.096 39.3608 231.553C45.1608 204.482 47.0208 175.753 61.1008 152.124C66.9808 142.253 71.4408 131.027 76.4408 120.333C83.5008 105.209 93.3208 93.7932 105.571 85.7566C114.121 80.1501 123.201 75.7078 131.401 69.3925C141.941 61.2801 148.961 48.9152 153.261 34.2849C155.331 27.2356 153.661 23.6033 147.651 23.135C128.031 21.6163 109.851 27.1723 95.9208 45.5614C82.2308 63.634 68.7808 82.2256 56.8608 102.146C44.1808 123.345 33.2008 146.404 32.2108 174.222C31.3708 197.686 31.3008 221.2 30.9008 244.082L30.8807 244.146Z" fill="#224934"/>
</svg>
