<svg width="323" height="612" viewBox="0 0 323 612" fill="none" xmlns="http://www.w3.org/2000/svg">
<path d="M244.034 308.485C244.733 307.071 246.205 304.387 247.424 301.569C256.999 279.245 261.043 255.69 262.876 231.642C264.713 207.43 264.345 183.309 260.78 159.224C257.711 138.482 254.571 117.718 252.651 96.8539C250.321 71.6262 259.191 50.1031 277.889 33.0828C281.756 29.553 287.637 28.2409 292.593 25.8964C294.433 30.5439 297.522 35.0956 297.872 39.8559C299.294 58.8104 299.224 77.9072 300.933 96.8348C303.081 120.787 299.075 144.003 295.852 167.548C293.013 188.27 294.1 209.501 292.081 230.361C288.423 268.106 278 303.552 252.134 332.716C242.587 343.481 235.292 355.162 233.13 369.717C231.141 383.157 228.668 396.526 226.53 409.964C226.139 412.458 226.391 415.071 226.338 417.619C227.008 417.891 227.692 418.178 228.362 418.449C231.092 414.819 234.572 411.543 236.422 407.513C245.775 387.121 254.661 366.511 263.772 346.016C266.468 339.947 268.792 333.611 272.35 328.089C274.219 325.196 278.411 323.78 281.545 321.705C283.3 325.267 286.128 328.713 286.552 332.436C287.095 337.204 286.225 342.317 285.07 347.054C275.091 388.123 255.8 423.852 225.06 453.353C219.224 458.957 214.937 466.8 211.667 474.357C203.142 494.038 195.527 514.107 187.672 534.058C186.284 537.574 185.497 541.307 184.423 544.948C185.196 545.366 185.969 545.783 186.742 546.2C190.941 540.692 195.289 535.305 199.294 529.67C210.88 513.358 222.176 496.848 233.913 480.658C237.369 475.901 241.534 471.464 246.117 467.807C248.648 465.782 253.35 464.081 255.886 465.134C258.381 466.152 260.514 470.713 260.834 473.917C262.34 489.146 256.223 502.665 248.968 515.307C231.962 544.904 207.834 568.158 180.929 588.688C176.84 591.804 172.339 594.484 167.78 596.889C156.724 602.716 149.127 601.292 142.399 590.856C130.233 572.014 122.475 551.69 124.81 528.596C127.417 502.874 117.749 480.076 107.566 457.473C98.9055 438.256 87.0573 421.064 75.174 403.658C62.8558 385.62 54.0208 365.188 43.7266 345.769C39.334 337.482 34.8792 329.219 31.0066 320.694C29.9572 318.392 30.9382 315.174 30.9745 312.385C33.5959 312.432 36.3699 311.928 38.8103 312.641C48.976 315.614 57.6792 320.93 64.6313 329.151C88.7449 357.684 112.698 386.317 128.298 420.76C139.42 445.323 144.506 471.509 148.608 497.941C152.192 521.086 155.822 544.222 159.72 569.182C161.488 566.382 162.652 565.216 163.035 563.826C169.675 540.031 176.474 516.268 182.577 492.336C184.122 486.285 184.846 479.317 183.44 473.36C179.667 457.333 174.727 441.59 169.924 425.818C166.259 413.791 161.53 402.061 158.478 389.895C157.466 385.835 158.845 379.795 161.474 376.526C165.149 371.943 170.137 375.817 174.091 378.167C189.541 387.378 198.405 401.57 203.848 418.266C204.929 421.587 206.088 424.887 207.216 428.198C208.124 428.212 209.05 428.214 209.958 428.229C211.11 424.432 212.82 420.715 213.324 416.844C215.008 403.847 217.854 390.745 217.356 377.782C216.456 354.526 215.779 331.026 199.865 311.156C186.614 294.61 175.353 276.469 162.334 259.724C156.39 252.082 148.667 245.639 141.075 239.481C134.561 234.208 129.574 228.632 129.855 219.806C130.143 210.533 135.385 205.682 145.486 206.228C160.169 207.031 170.888 215.848 179.576 226.375C186.731 235.038 192.506 245.066 197.665 255.128C207.35 273.999 216.132 293.335 225.341 312.45C225.957 313.716 226.952 314.801 228.658 317.237C230.039 313.915 231.486 311.706 231.834 309.326C232.641 303.713 234.046 297.839 233.225 292.382C228.298 259.866 229.397 226.084 211.813 196.179C204.47 183.686 199.4 169.855 193.464 156.552C185.085 137.741 172.145 122.783 155.174 111.351C143.328 103.376 130.546 96.6666 119.311 87.9242C104.869 76.6929 96.1803 61.1025 91.801 43.3326C89.6936 34.7707 92.6389 30.8215 101.555 31.2914C130.659 32.8369 156.697 42.3808 174.759 66.1565C192.511 89.5231 209.839 113.454 224.736 138.674C240.582 165.511 253.676 194.229 251.417 226.802C249.519 254.279 246.481 281.684 244.013 308.408L244.034 308.485Z" fill="#224934"/>
</svg>
