<svg width="367" height="835" viewBox="0 0 367 835" fill="none" xmlns="http://www.w3.org/2000/svg">
<path d="M301.237 407.742C301.998 405.628 303.645 401.591 304.913 397.406C314.84 364.265 316.741 330.277 315.431 295.952C314.1 261.394 309.665 227.322 300.709 193.821C293 164.969 285.185 136.097 279.081 106.887C271.688 71.5678 280.749 39.673 304.448 12.555C309.348 6.93274 317.459 4.1216 324.091 0C327.449 6.27751 332.561 12.2168 333.828 18.8959C338.918 45.4855 341.918 72.519 347.409 99.024C354.337 132.567 352.436 166.069 351.697 199.908C351.042 229.689 356.027 259.555 356.555 289.4C357.505 343.403 348.507 395.25 316.635 440.715C304.87 457.497 296.443 475.21 295.746 496.156C295.112 515.495 293.781 534.814 292.937 554.175C292.789 557.768 293.57 561.425 293.908 565.039C294.901 565.314 295.915 565.61 296.907 565.885C300.181 560.305 304.575 555.105 306.539 549.102C316.466 518.729 325.696 488.124 335.264 457.645C338.094 448.62 340.354 439.278 344.494 430.887C346.67 426.49 352.372 423.806 356.47 420.361C359.533 425.116 364.095 429.534 365.299 434.733C366.841 441.391 366.44 448.768 365.574 455.658C358.118 515.39 336.616 569.076 297.9 615.809C290.55 624.686 285.755 636.48 282.355 647.704C273.484 676.935 265.964 706.568 258.086 736.075C256.692 741.274 256.185 746.685 255.256 752.012C256.418 752.477 257.579 752.942 258.741 753.407C263.789 744.931 269.069 736.603 273.821 727.98C287.572 703.018 300.878 677.823 314.861 653.009C318.979 645.717 324.154 638.763 330.047 632.845C333.3 629.569 339.679 626.398 343.438 627.476C347.134 628.512 350.894 634.62 351.866 639.101C356.47 660.407 350.007 680.528 341.791 699.593C322.528 744.234 292.155 781.053 257.41 814.47C252.13 819.542 246.195 824.066 240.133 828.208C225.432 838.248 214.449 837.466 203.233 823.791C182.957 799.104 168.678 771.605 168.235 738.548C167.749 701.728 150.366 671.038 132.286 640.708C116.91 614.921 97.3511 592.516 77.708 569.816C57.3469 546.291 41.5268 518.814 23.8058 493.006C16.2443 481.994 8.59844 471.025 1.73394 459.59C-0.124758 456.504 0.741153 451.79 0.339844 447.838C4.05723 447.479 7.9014 446.316 11.4709 446.929C26.3405 449.486 39.5205 455.595 50.6938 466.1C89.4518 502.56 127.998 539.189 155.668 585.393C175.395 618.345 186.843 654.573 196.939 691.308C205.768 723.478 214.66 755.626 224.228 790.311C226.277 786.062 227.734 784.224 228.051 782.195C233.585 747.446 239.351 712.719 244.104 677.865C245.308 669.051 245.202 659.075 242.245 650.874C234.303 628.808 224.756 607.333 215.399 585.795C208.26 569.372 199.664 553.541 193.37 536.822C191.279 531.242 192.25 522.471 195.439 517.419C199.896 510.338 207.585 515.009 213.562 517.694C236.922 528.22 251.771 546.862 262.184 569.605C264.254 574.128 266.429 578.609 268.562 583.111C269.851 582.984 271.16 582.836 272.449 582.709C273.463 577.15 275.279 571.613 275.364 566.054C275.638 547.39 277.539 528.389 274.73 510.127C269.682 477.365 264.908 444.224 239.161 418.691C217.723 397.428 198.84 373.586 177.698 352.005C168.045 342.156 156.069 334.293 144.325 326.811C134.25 320.407 126.288 313.326 125.253 300.792C124.154 287.624 130.787 279.909 145.17 279.043C166.081 277.796 182.682 288.533 196.686 302.018C208.218 313.114 218.018 326.367 226.953 339.768C243.723 364.899 259.29 390.833 275.427 416.387C276.504 418.078 278.088 419.452 280.897 422.622C282.313 417.697 284.002 414.337 284.108 410.913C284.34 402.839 285.375 394.299 283.326 386.711C271.076 341.501 267.147 293.521 237.408 254.059C224.988 237.573 215.568 218.825 205.008 200.965C190.096 175.707 169.354 156.642 143.481 143.22C125.422 133.857 106.243 126.438 88.9237 115.891C66.6616 102.342 51.8343 81.6921 42.7521 57.2585C38.3799 45.4855 41.9072 39.4194 54.6012 38.6373C96.0417 36.101 134.441 45.3798 163.863 76.091C192.778 106.274 221.187 137.323 246.363 170.592C273.146 205.995 296.337 244.506 298.428 290.964C300.202 330.15 300.35 369.422 301.195 407.636L301.237 407.742Z" fill="#E83647"/>
</svg>
