<svg width="273" height="405" viewBox="0 0 273 405" fill="none" xmlns="http://www.w3.org/2000/svg">
<path d="M17.7218 44.5301C41.2043 78.0139 66.1191 107.141 77.6499 150.534C85.7557 181.059 96.4634 211.04 106.429 241.116C109.947 251.727 114.645 261.948 123.729 267.746C122.628 264.735 121.523 261.708 120.411 258.7C105.38 218.075 95.4395 176.798 94.6009 134.905C94.4137 125.484 96.8846 116.561 98.987 108.041C103.637 89.2234 110.35 72.3059 119.854 58.239C121.066 56.4504 122.577 55.0837 124.07 53.375C141.464 81.4569 153.252 111.533 155.399 144.341C156.305 158.312 153.168 171.617 151.479 185.016C148.632 207.675 145.101 229.973 142.566 252.775C140.816 268.457 143.544 285.112 147.598 301.662C149.485 309.367 155.518 317.963 162.281 322.432C162.022 319.369 162.086 316.775 161.538 314.256C151.846 270.347 156.676 231.316 164.531 193.841C170.039 167.535 183.893 150.718 200.578 138.237C204.774 135.096 206.889 137.291 209.292 144.476C217.208 168.137 216.397 190.732 217.112 213.598C218.194 248.278 207.972 275.837 200.365 305.056C194.954 325.819 189.485 346.471 191.085 371.226C191.691 380.576 186.362 382.999 180.472 376.752C149.825 344.307 121.862 308.17 98.6933 264.896C92.2251 252.815 84.3769 241.313 76.0448 231.581C34.4201 183.041 17.4589 124.791 16.0526 59.9504C16.003 57.4636 16.3068 55.0533 16.5656 52.6564C16.7928 50.5613 17.1623 48.5329 17.7482 44.577L17.7218 44.5301Z" fill="#224934"/>
</svg>
