<svg width="171" height="253" viewBox="0 0 171 253" fill="none" xmlns="http://www.w3.org/2000/svg">
<path d="M11.2249 27.7835C25.8764 48.675 41.4214 66.8485 48.6158 93.9223C53.6733 112.968 60.3541 131.674 66.5718 150.439C68.767 157.06 71.6981 163.437 77.3658 167.055C76.6792 165.176 75.9896 163.287 75.296 161.41C65.9177 136.063 59.7153 110.31 59.192 84.171C59.0752 78.293 60.6169 72.7257 61.9287 67.4097C64.8299 55.669 69.0187 45.1136 74.948 36.3369C75.7045 35.2209 76.647 34.3682 77.5788 33.3021C88.431 50.8232 95.7863 69.5885 97.1261 90.0585C97.6911 98.7755 95.7339 107.077 94.6801 115.437C92.9035 129.574 90.7005 143.486 89.1187 157.713C88.0271 167.498 89.729 177.89 92.2585 188.216C93.4355 193.023 97.1998 198.386 101.42 201.175C101.258 199.264 101.298 197.645 100.956 196.073C94.9091 168.677 97.9227 144.325 102.824 120.943C106.26 104.53 114.904 94.0374 125.314 86.2501C127.932 84.2902 129.252 85.6596 130.751 90.1424C135.69 104.905 135.184 119.003 135.63 133.27C136.305 154.908 129.927 172.102 125.182 190.333C121.805 203.288 118.393 216.173 119.391 231.619C119.77 237.453 116.445 238.964 112.769 235.067C93.6479 214.823 76.2012 192.276 61.7454 165.276C57.7097 157.738 52.813 150.562 47.6144 144.49C21.6435 114.205 11.0609 77.8606 10.1835 37.4046C10.1525 35.8531 10.3421 34.3492 10.5036 32.8537C10.6453 31.5465 10.8759 30.281 11.2414 27.8128L11.2249 27.7835Z" fill="#224934"/>
</svg>
