<svg width="316" height="397" viewBox="0 0 316 397" fill="none" xmlns="http://www.w3.org/2000/svg">
<path d="M289.808 350.277C264.107 317.997 235.516 290.009 228.461 247.788C223.505 218.087 214.824 188.971 207.193 159.748C204.497 149.437 200.083 139.533 188.663 134.046C189.57 136.97 190.48 139.91 191.403 142.83C203.891 182.271 209.175 222.455 201.69 263.43C200.004 272.644 194.73 281.426 190.05 289.806C179.706 308.314 166.888 325.006 150.784 338.966C148.731 340.741 146.35 342.109 143.923 343.812C125.564 316.692 115.4 287.506 119.192 255.448C120.819 241.796 127.924 228.713 133.036 215.567C141.67 193.338 151.179 171.447 159.408 149.083C165.077 133.703 164.727 117.462 162.514 101.352C161.484 93.851 154.88 85.5641 146.409 81.3305C146.137 84.3222 145.511 86.862 145.753 89.3159C150.147 132.08 135.379 170.371 116.73 207.201C103.648 233.055 80.9338 249.795 55.1819 262.351C48.7058 265.511 46.2207 263.407 44.3664 256.426C38.2575 233.437 44.0494 211.311 47.7785 188.952C53.4365 155.04 73.3253 127.864 89.9237 99.1167C101.727 78.6892 113.588 58.3688 116.477 34.1792C117.566 25.043 125.468 22.5626 132.359 28.5538C168.226 59.6701 199.603 94.4539 222.847 136.32C229.337 148.008 237.862 159.101 247.426 168.451C295.217 215.09 306.747 271.738 295.311 335.154C294.866 337.587 293.947 339.951 293.092 342.302C292.344 344.357 291.412 346.349 289.782 350.232L289.808 350.277Z" fill="#E83647"/>
</svg>
