<svg width="333" height="477" viewBox="0 0 333 477" fill="none" xmlns="http://www.w3.org/2000/svg">
<path d="M35.2549 0C59.9865 50.0201 89.7681 95.196 86.9951 153.012C85.0337 193.681 88.1674 234.644 89.8808 275.448C90.4895 289.846 93.4879 304.199 107.015 314.721C106.654 310.598 106.293 306.452 105.91 302.329C100.702 246.631 105.234 192.014 126.877 140.011C131.746 128.317 141.238 118.223 149.827 108.49C168.81 86.9944 190.543 68.6086 215.838 54.7742C219.062 53.0168 222.602 51.8903 226.299 50.3356C242.802 91.4332 247.874 132.914 233.671 174.192C227.607 191.766 214.463 207.02 203.935 222.927C186.147 249.83 167.299 276.034 150.008 303.23C138.104 321.931 133.911 343.494 132.22 365.417C131.431 375.624 137.788 388.467 147.776 396.488C148.993 392.613 150.549 389.436 150.932 386.123C157.38 328.353 187.883 281.983 223.098 238.654C247.807 208.237 282.638 192.622 320.288 183.407C329.757 181.086 332.44 184.579 332.891 194.335C334.379 226.465 320.378 254.043 309.038 282.523C291.837 325.716 257.749 355.931 227.562 389.165C206.099 412.778 184.591 436.234 173.837 467.372C169.779 479.134 158.62 480.148 151.225 470.256C112.719 418.862 81.2011 363.907 62.4664 301.923C57.236 284.619 49.1424 267.517 39.1776 252.421C-10.6463 177.098 -9.65426 98.9361 23.6443 18.4083C24.9294 15.3214 26.8231 12.46 28.6267 9.59847C30.2048 7.09747 32.0085 4.7317 35.2774 0.0676607L35.2549 0Z" fill="#FFE800"/>
</svg>
