<svg width="233" height="251" viewBox="0 0 233 251" fill="none" xmlns="http://www.w3.org/2000/svg">
<path d="M105.31 95.3478C102.81 94.7389 100.782 94.3223 98.7947 93.7561C86.7481 90.3591 75.0257 86.2037 64.8613 78.4588C59.6328 74.4742 55.3558 69.7312 52.9297 63.3858C50.2527 56.346 44.3026 52.0515 39.3041 46.9666C35.9997 43.6016 32.7475 40.1832 29.5581 36.7007C28.847 35.9316 28.1986 34.8634 28.0313 33.8486C27.5817 31.1352 27.4144 28.3683 27.132 25.6229C29.579 25.7084 32.1723 25.2812 34.4415 25.9648C48.0881 30.0883 61.3895 34.8954 72.2754 44.9263C80.2647 52.2866 85.6501 61.5483 91.3283 70.6177C95.7099 77.6255 99.9136 84.7508 104.264 91.7799C105.215 93.3182 106.198 95.5295 108.593 93.895C111.04 92.2286 109.555 90.4126 108.52 88.6179C100.363 74.5277 92.2695 60.4053 84.0711 46.3471C80.683 40.5358 79.47 34.2225 78.9889 27.5993C78.6125 22.461 77.755 17.3548 77.0962 12.2378C76.8766 10.4859 76.406 8.7339 76.4269 6.98197C76.5106 0.316069 79.3758 -1.44652 85.3678 1.13866C100.06 7.48408 107.234 19.2134 108.99 34.9808C110.517 48.6758 112.232 62.3389 113.78 76.0232C114.156 79.4095 114.313 82.8279 114.334 86.2356C114.355 88.543 114.951 90.0387 117.482 89.7823C129.361 88.5645 136.294 96.0422 141.157 105.261C143.478 109.652 144.356 115.666 140.926 120.826C138.981 123.742 137.727 127.31 135.301 129.671C129.403 135.429 122.062 136.369 114.376 134.254C112.828 133.826 111.176 132.598 110.235 131.252C103.647 121.83 101.597 111.265 103.302 99.9093C103.49 98.6381 104.347 97.463 105.31 95.3265L105.31 95.3478Z" fill="#E83647"/>
<path d="M132.141 87.9453C132.716 80.5636 134.808 74.0899 138.646 68.0863C142.222 62.4994 145.286 56.56 148.988 51.0584C156.988 39.1902 168.856 32.193 180.997 25.7728C190.618 20.6773 200.06 15.4856 208.656 8.574C212.599 5.41197 217.775 3.39303 222.7 2.08976C227.584 0.807856 229.633 3.64932 227.05 8.00779C224.269 12.7081 220.766 17.1735 216.823 20.9231C209.263 28.1124 201.765 35.2483 196.526 44.4994C191.465 53.4406 183.277 58.8995 175.12 64.4437C162.676 72.9043 150.431 81.6639 138.039 90.1993C136.826 91.0325 135.122 91.791 133.825 91.5453C133.072 91.4064 132.685 89.2058 132.141 87.9346L132.141 87.9453Z" fill="#E83647"/>
<path d="M108.686 139.766C105.633 149.349 101.523 160.02 91.2752 166.088C79.4378 173.106 68.2591 180.723 58.1366 190.295C51.5381 196.523 43.3084 201.116 34.0015 202.494C32.2238 202.761 29.2645 202.462 28.6684 201.383C27.8632 199.93 28.2082 197.089 29.1285 195.486C34.3257 186.46 39.1882 177.113 45.4102 168.844C55.0099 156.1 68.029 147.928 82.9931 142.8C89.1838 140.685 95.0607 137.619 101.084 134.991C101.942 134.617 102.809 134.201 103.709 134.019C107.787 133.165 108.812 134.062 108.686 139.756L108.686 139.766Z" fill="#E83647"/>
<path d="M205.867 212.964C206.013 217.323 205.229 217.996 201.036 217.579C196.79 217.152 192.534 216.788 188.268 216.607C175.97 216.094 168.315 208.371 161.999 198.82C159.469 195.007 157.586 190.723 155.547 186.589C148.949 173.204 142.361 159.808 135.877 146.359C134.706 143.934 133.953 141.274 133.2 138.656C132.887 137.567 133.106 136.328 133.085 135.153C134.361 135.142 135.742 134.789 136.892 135.153C143.856 137.428 149.681 141.348 153.404 147.972C158.329 156.731 162.899 165.769 170.585 172.456C174.935 176.238 179.85 179.368 184.148 183.213C190.035 188.49 196.048 193.768 201.099 199.825C203.943 203.243 204.978 208.232 206.829 212.505C206.505 212.654 206.17 212.804 205.846 212.943L205.867 212.964Z" fill="#E83647"/>
<path d="M124.476 147.493C124.632 145.234 125.271 143.964 125.972 141.806C127.498 143.537 129.349 145.075 130.51 147.041C137.412 158.781 140.361 172.006 144.01 184.985C145.359 189.792 147.168 194.599 149.552 198.958C156.004 210.73 162.948 222.214 169.557 233.9C171.345 237.062 173.217 240.363 174.033 243.846C175.308 249.294 172.15 251.943 167.246 249.582C159.434 245.811 151.351 242.275 144.345 237.233C134.881 230.418 131.692 219.596 129.266 208.369C126.578 195.945 127.383 183.393 126.442 170.916C125.877 163.438 125.135 155.982 124.476 148.515C124.476 148.139 124.476 148.008 124.476 147.816L124.476 147.493Z" fill="#E83647"/>
<path d="M10.192 164.72C7.93323 164.517 5.63268 164.496 3.41577 164.069C0.404119 163.492 -0.610209 161.302 1.47076 159.101C3.70859 156.74 6.49013 154.198 9.45996 153.397C17.01 151.356 22.3327 146.496 27.4044 140.962C30.9598 137.085 34.5362 133.196 38.3949 129.649C46.5828 122.129 56.6739 119.085 67.3297 117.845C76.4797 116.777 85.6611 115.88 94.8529 115.271C96.7561 115.143 99.6004 116.051 100.552 117.493C102.267 120.067 99.3076 121.306 97.7391 122.887C91.7053 128.955 84.2075 131.391 76.2288 133.805C69.4003 135.867 63.356 140.717 57.019 144.423C47.7645 149.829 38.8131 155.896 29.2135 160.554C23.4621 163.342 16.7068 163.983 10.4011 165.585C10.3279 165.297 10.2443 165.019 10.1711 164.731L10.192 164.72Z" fill="#E83647"/>
<path d="M216.25 189.398C208.188 189.708 201.924 185.413 195.409 181.568C180.173 172.573 168.461 159.786 157.617 145.963C153.026 140.109 148.164 134.468 143.604 128.593C142.663 127.386 142.506 125.549 141.984 124C143.594 123.594 145.476 122.429 146.752 122.921C153.601 125.538 160.576 128.027 166.955 131.606C172.999 134.992 178.615 139.34 183.938 143.848C189.867 148.869 195.754 154.114 200.742 160.074C206.535 166.997 212.12 173.748 220.642 177.37C223.256 178.48 225.714 180.499 227.607 182.689C229.803 185.221 228.955 187.283 225.745 187.988C222.629 188.672 219.419 188.949 216.25 189.398Z" fill="#E83647"/>
<path d="M100.414 102.015C95.7816 104.237 91.2222 106.64 86.4956 108.649C79.1338 111.779 71.5106 113.093 63.4167 112.772C54.2354 112.409 45.0017 113.402 35.8099 113.199C28.218 113.039 20.6157 112.259 13.097 111.18C11.1311 110.903 8.59002 108.809 7.94167 106.961C7.43973 105.529 8.95602 102.528 10.4305 101.31C25.7293 88.6616 42.9521 84.2497 62.2246 89.3773C73.1941 92.2936 84.1742 95.1886 95.1332 98.1904C96.8796 98.6711 98.49 99.6432 100.163 100.391C100.247 100.925 100.33 101.459 100.414 102.004L100.414 102.015Z" fill="#E83647"/>
<path d="M150.962 103.755C148.442 103.53 146.009 103.52 143.541 103.039C141.209 102.59 140.069 100.87 142.056 98.9795C151.635 89.8353 158.704 77.764 171.712 72.615C180.287 69.2179 188.862 65.8103 197.343 62.1783C203.115 59.6999 208.73 56.8263 214.409 54.1236C215.622 53.5467 216.772 52.7027 218.048 52.4464C219.24 52.2114 221.039 52.1473 221.666 52.8523C222.283 53.5467 222.22 55.5871 221.666 56.5272C215.559 66.7717 209.933 77.5184 200.156 84.7398C190.263 92.0466 179.597 98.1143 167.739 101.426C162.384 102.921 156.94 102.921 151.418 103.776C151.318 103.776 151.176 103.797 151.096 103.776L150.962 103.755Z" fill="#E83647"/>
<path d="M116.435 58.5356C116.027 50.0751 117.92 42.0952 120.273 34.2543C122.73 26.0821 127.258 19.288 134.401 14.4809C140.194 10.5818 145.883 6.533 151.592 2.50569C154.677 0.326452 155.942 1.69388 157.009 4.84523C159.571 12.3978 158.149 19.5337 154.646 26.1568C151.613 31.8933 148.005 37.3843 144.084 42.5332C137.778 50.8122 134.244 60.2021 131.493 70.1476C130.134 75.0722 127.75 79.719 125.564 84.3552C125.136 85.2739 123.515 86.0966 122.469 86.0646C121.789 86.0432 120.744 84.4728 120.566 83.4686C119.091 75.1683 117.784 66.8466 116.435 58.525L116.435 58.5356Z" fill="#E83647"/>
<path d="M163.848 108.264C183.309 108.168 199.204 115.582 211.438 131.157C216.719 137.887 222.324 144.275 230 148.409C231.255 149.082 231.851 151.037 232.75 152.394C231.37 153.334 230.083 154.883 228.609 155.096C222.429 155.983 216.186 155.876 210.769 152.223C202.247 146.486 193.18 142.064 183.748 138.079C178.227 135.74 173.678 131.05 168.554 127.653C163.21 124.117 157.731 120.795 152.241 117.505C149.49 115.849 144.586 115.635 145.13 111.576C145.663 107.623 150.316 109.599 153.067 109.012C156.559 108.264 160.251 108.478 163.858 108.275L163.848 108.264Z" fill="#E83647"/>
<path d="M92.6464 199.01C92.7092 193.744 95.4489 186.565 99.1194 179.632C104.536 169.419 109.786 159.154 111.626 147.467C112.044 144.839 113.257 142.275 114.481 139.882C115.004 138.857 116.551 137.682 117.503 137.799C118.381 137.906 119.615 139.562 119.751 140.662C120.462 146.313 121.017 151.996 121.32 157.69C121.55 162.038 120.996 166.439 121.351 170.765C122.501 184.503 119.73 197.344 113.718 209.597C111.867 213.367 110.424 217.352 108.656 221.187C106.356 226.176 103.867 226.496 100.479 222.341C95.8149 216.636 92.615 208.251 92.636 199.032L92.6464 199.01Z" fill="#E83647"/>
</svg>
