<svg width="233" height="251" viewBox="0 0 233 251" fill="none" xmlns="http://www.w3.org/2000/svg">
<path d="M104.935 95.3478C102.435 94.7389 100.407 94.3223 98.4197 93.7561C86.3731 90.3591 74.6507 86.2037 64.4863 78.4588C59.2578 74.4742 54.9808 69.7312 52.5547 63.3858C49.8777 56.346 43.9276 52.0515 38.9291 46.9666C35.6247 43.6016 32.3725 40.1832 29.1831 36.7007C28.472 35.9316 27.8236 34.8634 27.6563 33.8486C27.2067 31.1352 27.0394 28.3683 26.757 25.6229C29.204 25.7084 31.7973 25.2812 34.0665 25.9648C47.7131 30.0883 61.0145 34.8954 71.9004 44.9263C79.8897 52.2866 85.2751 61.5483 90.9533 70.6177C95.3349 77.6255 99.5386 84.7508 103.889 91.7799C104.84 93.3182 105.823 95.5295 108.218 93.895C110.665 92.2286 109.18 90.4126 108.145 88.6179C99.9883 74.5277 91.8945 60.4053 83.6961 46.3471C80.308 40.5358 79.095 34.2225 78.6139 27.5993C78.2375 22.461 77.38 17.3548 76.7212 12.2378C76.5016 10.4859 76.031 8.7339 76.0519 6.98197C76.1356 0.316069 79.0008 -1.44652 84.9928 1.13866C99.685 7.48408 106.859 19.2134 108.615 34.9808C110.142 48.6758 111.857 62.3389 113.405 76.0232C113.781 79.4095 113.938 82.8279 113.959 86.2356C113.98 88.543 114.576 90.0387 117.107 89.7823C128.986 88.5645 135.919 96.0422 140.782 105.261C143.103 109.652 143.981 115.666 140.551 120.826C138.606 123.742 137.352 127.31 134.926 129.671C129.028 135.429 121.687 136.369 114.001 134.254C112.453 133.826 110.801 132.598 109.86 131.252C103.272 121.83 101.222 111.265 102.927 99.9093C103.115 98.6381 103.972 97.463 104.935 95.3265L104.935 95.3478Z" fill="#FF6C27"/>
<path d="M131.765 87.9453C132.34 80.5636 134.432 74.0899 138.27 68.0863C141.846 62.4994 144.91 56.56 148.612 51.0584C156.612 39.1902 168.48 32.193 180.621 25.7728C190.242 20.6773 199.684 15.4856 208.28 8.574C212.223 5.41197 217.399 3.39303 222.324 2.08976C227.208 0.807856 229.257 3.64932 226.674 8.00779C223.893 12.7081 220.39 17.1735 216.447 20.9231C208.887 28.1124 201.389 35.2483 196.15 44.4994C191.089 53.4406 182.901 58.8995 174.744 64.4437C162.3 72.9043 150.055 81.6639 137.663 90.1993C136.45 91.0325 134.746 91.791 133.449 91.5453C132.696 91.4064 132.309 89.2058 131.765 87.9346L131.765 87.9453Z" fill="#FF6C27"/>
<path d="M108.31 139.766C105.257 149.349 101.147 160.02 90.8993 166.088C79.0618 173.106 67.8831 180.723 57.7606 190.295C51.1622 196.523 42.9324 201.116 33.6255 202.494C31.8478 202.761 28.8885 202.462 28.2924 201.383C27.4872 199.93 27.8323 197.089 28.7525 195.486C33.9497 186.46 38.8123 177.113 45.0342 168.844C54.6339 156.1 67.653 147.928 82.6172 142.8C88.8078 140.685 94.6847 137.619 100.708 134.991C101.566 134.617 102.433 134.201 103.333 134.019C107.411 133.165 108.436 134.062 108.31 139.756L108.31 139.766Z" fill="#FF6C27"/>
<path d="M205.491 212.964C205.637 217.323 204.853 217.996 200.66 217.579C196.414 217.152 192.158 216.788 187.892 216.607C175.594 216.094 167.94 208.371 161.623 198.82C159.093 195.007 157.21 190.723 155.171 186.589C148.573 173.204 141.985 159.808 135.501 146.359C134.33 143.934 133.577 141.274 132.824 138.656C132.511 137.567 132.73 136.328 132.709 135.153C133.985 135.142 135.366 134.789 136.516 135.153C143.48 137.428 149.305 141.348 153.028 147.972C157.953 156.731 162.523 165.769 170.209 172.456C174.559 176.238 179.474 179.368 183.772 183.213C189.659 188.49 195.672 193.768 200.723 199.825C203.567 203.243 204.602 208.232 206.453 212.505C206.129 212.654 205.794 212.804 205.47 212.943L205.491 212.964Z" fill="#FF6C27"/>
<path d="M124.101 147.493C124.257 145.234 124.896 143.964 125.597 141.806C127.123 143.537 128.974 145.075 130.135 147.041C137.037 158.781 139.986 172.006 143.635 184.985C144.984 189.792 146.793 194.599 149.177 198.958C155.629 210.73 162.573 222.214 169.182 233.9C170.97 237.062 172.842 240.363 173.658 243.846C174.933 249.294 171.775 251.943 166.871 249.582C159.059 245.811 150.976 242.275 143.97 237.233C134.506 230.418 131.317 219.596 128.891 208.369C126.203 195.945 127.008 183.393 126.067 170.916C125.502 163.438 124.76 155.982 124.101 148.515C124.101 148.139 124.101 148.008 124.101 147.816L124.101 147.493Z" fill="#FF6C27"/>
<path d="M9.81697 164.72C7.55823 164.517 5.25768 164.496 3.04077 164.069C0.0291193 163.492 -0.985209 161.302 1.09576 159.101C3.33359 156.74 6.11513 154.198 9.08496 153.397C16.635 151.356 21.9577 146.496 27.0294 140.962C30.5848 137.085 34.1612 133.196 38.0199 129.649C46.2078 122.129 56.2989 119.085 66.9547 117.845C76.1047 116.777 85.2861 115.88 94.4779 115.271C96.3811 115.143 99.2254 116.051 100.177 117.493C101.892 120.067 98.9326 121.306 97.3641 122.887C91.3303 128.955 83.8325 131.391 75.8538 133.805C69.0253 135.867 62.981 140.717 56.644 144.423C47.3895 149.829 38.4381 155.896 28.8385 160.554C23.0871 163.342 16.3318 163.983 10.0261 165.585C9.95292 165.297 9.8693 165.019 9.7961 164.731L9.81697 164.72Z" fill="#FF6C27"/>
<path d="M215.875 189.398C207.813 189.708 201.549 185.413 195.034 181.568C179.798 172.573 168.086 159.786 157.242 145.963C152.651 140.109 147.789 134.468 143.229 128.593C142.288 127.386 142.131 125.549 141.609 124C143.219 123.594 145.101 122.429 146.377 122.921C153.226 125.538 160.201 128.027 166.58 131.606C172.624 134.992 178.24 139.34 183.563 143.848C189.492 148.869 195.379 154.114 200.367 160.074C206.16 166.997 211.745 173.748 220.267 177.37C222.881 178.48 225.339 180.499 227.232 182.689C229.428 185.221 228.58 187.283 225.37 187.988C222.254 188.672 219.044 188.949 215.875 189.398Z" fill="#FF6C27"/>
<path d="M100.039 102.015C95.4066 104.237 90.8472 106.64 86.1206 108.649C78.7588 111.779 71.1356 113.093 63.0417 112.772C53.8604 112.409 44.6267 113.402 35.4349 113.199C27.843 113.039 20.2407 112.259 12.722 111.18C10.7561 110.903 8.21502 108.809 7.56667 106.961C7.06473 105.529 8.58102 102.528 10.0555 101.31C25.3543 88.6616 42.5771 84.2497 61.8496 89.3773C72.8191 92.2936 83.7992 95.1886 94.7582 98.1904C96.5046 98.6711 98.115 99.6432 99.7881 100.391C99.8718 100.925 99.9554 101.459 100.039 102.004L100.039 102.015Z" fill="#FF6C27"/>
<path d="M150.587 103.755C148.067 103.53 145.634 103.52 143.166 103.039C140.834 102.59 139.694 100.87 141.681 98.9795C151.26 89.8353 158.329 77.764 171.337 72.615C179.912 69.2179 188.487 65.8103 196.968 62.1783C202.74 59.6999 208.355 56.8263 214.034 54.1236C215.247 53.5467 216.397 52.7027 217.673 52.4464C218.865 52.2114 220.664 52.1473 221.291 52.8523C221.908 53.5467 221.845 55.5871 221.291 56.5272C215.184 66.7717 209.558 77.5184 199.781 84.7398C189.888 92.0466 179.222 98.1143 167.364 101.426C162.009 102.921 156.565 102.921 151.043 103.776C150.943 103.776 150.801 103.797 150.721 103.776L150.587 103.755Z" fill="#FF6C27"/>
<path d="M116.06 58.5356C115.652 50.0751 117.545 42.0952 119.898 34.2543C122.355 26.0821 126.883 19.288 134.026 14.4809C139.819 10.5818 145.508 6.533 151.217 2.50569C154.302 0.326452 155.567 1.69388 156.634 4.84523C159.196 12.3978 157.774 19.5337 154.271 26.1568C151.238 31.8933 147.63 37.3843 143.709 42.5332C137.403 50.8122 133.869 60.2021 131.118 70.1476C129.759 75.0722 127.375 79.719 125.189 84.3552C124.761 85.2739 123.14 86.0966 122.094 86.0646C121.414 86.0432 120.369 84.4728 120.191 83.4686C118.716 75.1683 117.409 66.8466 116.06 58.525L116.06 58.5356Z" fill="#FF6C27"/>
<path d="M163.473 108.264C182.934 108.168 198.829 115.582 211.063 131.157C216.344 137.887 221.949 144.275 229.625 148.409C230.88 149.082 231.476 151.037 232.375 152.394C230.995 153.334 229.708 154.883 228.234 155.096C222.054 155.983 215.811 155.876 210.394 152.223C201.872 146.486 192.805 142.064 183.373 138.079C177.852 135.74 173.303 131.05 168.179 127.653C162.835 124.117 157.356 120.795 151.866 117.505C149.115 115.849 144.211 115.635 144.755 111.576C145.288 107.623 149.941 109.599 152.692 109.012C156.184 108.264 159.876 108.478 163.483 108.275L163.473 108.264Z" fill="#FF6C27"/>
<path d="M92.2705 199.01C92.3332 193.744 95.073 186.565 98.7434 179.632C104.16 169.419 109.41 159.154 111.25 147.467C111.668 144.839 112.881 142.275 114.105 139.882C114.628 138.857 116.175 137.682 117.127 137.799C118.005 137.906 119.239 139.562 119.375 140.662C120.086 146.313 120.641 151.996 120.944 157.69C121.174 162.038 120.62 166.439 120.975 170.765C122.126 184.503 119.354 197.344 113.342 209.597C111.491 213.367 110.048 217.352 108.28 221.187C105.98 226.176 103.491 226.496 100.103 222.341C95.439 216.636 92.2391 208.251 92.26 199.032L92.2705 199.01Z" fill="#FF6C27"/>
</svg>
