<svg width="462" height="337" viewBox="0 0 462 337" fill="none" xmlns="http://www.w3.org/2000/svg">
<path d="M252.056 201.507C199.026 225.857 198.586 313.771 145.368 327.094C114.049 320.724 131.289 276.449 141.569 258.683C50.3717 332.649 -62.4373 233.193 97.5587 218.795C63.7083 213.326 33.5351 160.907 76.718 147.115C144.801 171.288 179.382 211.696 248.591 145.704C212.771 140.564 128.98 82.0673 197.394 59.1165C242.8 64.4582 264.996 138.005 320.266 114.216C337.168 107.085 390.262 101.049 353.252 84.9827C314.902 74.8306 212.451 68.4496 279.89 12.65C340.258 0.700147 381.719 69.6135 440.27 78.4463C454.577 88.8727 430.769 100.12 430.359 112.912C426.052 127.568 430.989 142.578 425.628 156.987C430.358 226.337 349.419 275.009 350.098 177.349C358.286 160.955 344.408 166.364 337.998 175.976C307.545 202.337 324.6 251.288 290.121 274.875C240.47 298.183 234.801 234.034 252.081 201.505L252.056 201.507Z" fill="#47D5B3"/>
</svg>
