<svg width="805" height="824" viewBox="0 0 805 824" fill="none" xmlns="http://www.w3.org/2000/svg">
<path d="M223.192 291.859C194.162 264.432 131.312 188.426 196.051 166.887C271.123 179.63 271.814 300.12 336.711 316.281C349.562 308.276 343.309 287.102 342.802 274.215C341.707 246.322 345.066 193.29 386.546 216.353C425.888 238.224 426.137 283.299 423.367 321.814C422.488 333.953 422.288 350.104 427.538 361.29C436.8 381.077 451.949 374.992 457.947 355.074C465.277 330.644 456.542 305.594 458.198 280.852C459.67 258.911 481.479 239.352 504.118 244.858C521.236 248.992 529.866 267.615 535.298 282.631C544.56 308.189 527.387 373.087 551.273 388.931C571.777 366.608 558.425 332.979 570.496 307.278C596.801 251.235 637.82 288.204 657.01 327.59C689.206 393.591 675.739 472.292 657.285 540.179C646.943 578.206 633.041 616.506 610.676 649.23C600.459 664.185 561.041 713.195 537.179 703.104C444.309 663.847 549.215 574.36 535.822 523.994C463.092 495 484.227 630.888 421.421 652.888C373.376 683.663 340.83 613.577 363.355 576.434C390.567 545.745 465.894 425.221 381.887 508.211C349.686 563.379 216.586 559.245 278.96 480.307C291.249 466.753 327.029 442.493 311.212 423.615C258.527 404.335 221.234 510.783 154.542 488.513C106.144 484.087 110.972 426.471 142.79 402.616C162.17 393.957 196.697 405.226 200.165 372.814C184.637 339.818 138.086 361.232 111.879 342.864C31.3749 248.456 171.652 274.615 223.154 291.812L223.192 291.859Z" fill="#FFE800"/>
</svg>
