<svg width="341" height="302" viewBox="0 0 341 302" fill="none" xmlns="http://www.w3.org/2000/svg">
<path d="M203.845 53.0801C204.621 52.8819 205.43 52.7043 206.254 52.5632C218.346 50.265 230.751 45.3469 242.116 52.1436C253.515 58.9609 261.012 72.5895 257.828 85.8496C252.798 106.856 224.453 110.584 217.347 130.283C214.292 138.737 215.156 149.662 214.339 158.573C213.704 165.576 213.172 175.076 221.069 178.276C233.859 185.124 251.592 186.609 262.709 175.917C272.574 160.689 246.635 137.575 267.945 122.658C277.107 116.244 281.856 110.458 294.297 112.53C312.063 115.482 321.643 127.666 325.184 144.626C331.501 174.897 327.143 207.835 311.837 234.86C299.882 255.943 280.895 271.977 258.496 281.067C234.856 290.65 175.996 301.185 159.482 272.298C148.585 253.243 179.59 238.663 192.475 233.08C225.268 228.322 256.411 219.54 208.165 199.931C204.962 197.557 198.664 193.823 196.25 198.927C186.119 250.814 63.6379 266.076 94.8651 200.311C111.707 181.517 138.229 202.758 154.397 190.788C153.875 181.233 139.741 174.004 130.305 173.319C96.909 176.879 18.8698 176.859 13.2116 126.336C28.5931 89.3667 156.824 174.622 108.418 101.079C95.0196 79.7104 66.3356 78.5397 49.2301 61.7056C13.2188 28.0417 64.7185 -16.4531 97.6584 14.9537C124.984 38.7687 138.361 75.0093 145.147 109.697C146.474 117.892 163.651 132.862 169.24 124.483C168.683 116.778 167.175 109.873 168.91 102.188C173.791 80.6575 180.552 58.8116 203.81 53.0771L203.845 53.0801Z" fill="#47D5B3"/>
</svg>
