<svg width="502" height="470" viewBox="0 0 502 470" fill="none" xmlns="http://www.w3.org/2000/svg">
<path d="M325.148 126.433C326.167 126.454 327.22 126.512 328.278 126.619C343.886 127.919 360.772 126.109 372.382 138.326C384.026 150.578 388.561 169.863 380.129 185.055C366.787 209.126 330.767 204.043 315.327 225.802C308.695 235.139 306.022 248.845 301.977 259.504C298.805 267.884 294.908 279.364 303.496 285.984C316.835 298.749 338.066 306.615 355.346 297.278C372.64 281.947 348.739 244.735 379.957 233.685C393.379 228.935 401.177 223.451 415.72 230.234C436.489 239.912 444.071 258.133 442.618 280.158C440.022 319.47 423.428 358.417 395.434 386.374C373.578 408.18 344.825 421.392 314.264 424.917C282.01 428.624 206.259 421.497 195.884 380.409C189.035 353.306 232.022 345.974 249.724 343.512C291.548 348.847 332.724 348.68 280.28 308.168C277.165 304.162 270.72 297.433 266.018 302.875C235.875 363.116 80.5201 340.109 141.264 270.024C168.329 252.693 193.585 287.805 217.494 278.621C220.118 266.714 205.26 253.024 193.927 248.967C151.774 241.956 56.1172 215.337 66.4394 151.39C97.9228 111.252 225.991 259.604 191.775 152.832C182.649 122.036 147.887 110.823 132.669 84.3297C100.024 30.7343 178.353 -6.33373 208.004 43.4444C233.366 81.9901 237.384 131.035 233.854 175.928C232.682 186.439 248.624 210.669 258.338 202.289C260.286 192.641 260.796 183.651 265.548 174.809C278.887 150.043 294.637 125.53 325.106 126.417L325.148 126.433Z" fill="#224934"/>
</svg>
