<svg width="196" height="211" viewBox="0 0 196 211" fill="none" xmlns="http://www.w3.org/2000/svg">
<path d="M55.3051 90.886C39.3691 87.6413 20.8374 84.1307 24.7725 101.1C24.9596 101.921 25.4487 102.67 26.1481 103.141C38.7275 111.684 90.0812 96.5839 90.0146 107.023C90.0025 108.319 89.1129 109.43 87.9538 109.997C72.9096 117.332 53.3447 107.662 41.4459 120.309C41.0742 120.704 40.7835 121.194 40.6506 121.727C37.7502 133.106 57.4427 138.791 65.809 133.709C75.1088 130.017 88.1943 122.641 99.1465 123.011C103.07 123.144 104.034 128.59 100.369 129.98C82.2089 136.849 46.8517 142.934 72.4166 161.696C72.7258 161.926 73.086 162.122 73.4567 162.237C92.4648 168.414 110.6 133.581 126.485 142.753C129.036 144.224 128.696 148.027 125.992 149.149C60.2925 176.466 154.93 192.638 168.585 157.514C169.417 155.377 169.685 153.068 169.795 150.771C170.368 138.438 190.633 128.233 175.996 117.398C160.612 105.522 159.002 133.628 150.316 133.9C149.742 133.921 149.166 133.748 148.659 133.483C137.838 127.819 133.894 120.463 137.898 108.628C137.962 108.447 138.044 108.253 138.133 108.083C156.401 73.6714 122.773 70.8609 118.689 101.705C118.196 105.405 113.077 105.992 111.78 102.491C104.239 82.0921 116.113 41.5928 86.5685 45.8781C85.896 45.9733 85.2644 46.2821 84.7501 46.726C76.0631 54.1055 85.0906 65.2054 88.0245 75.0394C88.8823 77.9063 86.035 80.4297 83.2501 79.3539C68.1686 73.5211 50.5153 42.271 28.6722 47.1699C28.0977 47.3018 27.5533 47.5896 27.1156 47.9826C7.82887 65.3013 36.8973 74.9058 57.466 84.0939C61.3871 85.841 59.5266 91.757 55.3243 90.9011L55.3051 90.886Z" fill="#47D5B3"/>
</svg>
