<svg width="2155" height="1306" viewBox="0 0 2155 1306" fill="none" xmlns="http://www.w3.org/2000/svg">
<path d="M1495.89 707.31C1497.42 682.529 1507.51 663.11 1524.23 648.466C1533.64 640.227 1543.64 632.602 1554.17 626.213C1569.2 617.084 1586.21 616.68 1604.68 618.504C1602.83 623.118 1601.62 627.027 1599.8 630.522C1593.67 642.294 1587.27 653.875 1581.07 665.597C1568.63 689.104 1549.22 701.309 1525.48 706.601C1521.98 707.388 1518.48 708.199 1514.99 709.01C1508.63 708.444 1502.26 707.877 1495.9 707.31L1495.89 707.31Z" fill="#224934"/>
<path d="M1669.3 587.691C1655.03 567.971 1640.29 549.114 1637.38 523.304C1635.6 507.521 1638.32 491.549 1646.21 478.366C1654.14 465.112 1664.84 453.873 1674.32 441.749C1676.93 438.42 1679.13 438.658 1681.66 442.082C1689.78 453.085 1698.96 463.258 1706.04 475.014C1711.14 483.473 1714.32 493.693 1716.93 503.603C1719.33 512.697 1717.16 521.727 1712.61 530.205C1702.01 549.954 1690.12 568.488 1674.08 583.41C1672.65 584.73 1671.19 586.011 1669.3 587.702L1669.3 587.691Z" fill="#47D5B3"/>
<path d="M1406.59 988.291C1405.93 981.053 1404.96 973.82 1404.69 966.593C1404.36 957.836 1404.34 949.072 1404.7 940.365C1405.13 930.194 1407.3 920.38 1412.33 912.2C1422.15 896.246 1431.72 879.933 1443 865.354C1451.36 854.543 1462.2 846.118 1475.08 840.937C1479.02 853.897 1479.6 866.851 1477.1 878.958C1473.56 896.099 1470.29 914.061 1462.97 929.071C1450.4 954.855 1430.66 973.796 1408.43 989.162C1407.82 988.872 1407.2 988.581 1406.59 988.291Z" fill="#12231A"/>
<path d="M1536.95 742.905C1532.87 772.519 1512.65 800.438 1476.53 805.301C1439.3 810.311 1405.89 785.416 1401.11 764.942C1410.14 766.364 1418.97 767.07 1427.58 769.217C1465.7 778.702 1499.16 768.049 1530.4 747.326C1532.32 746.05 1534.23 744.739 1536.94 742.905L1536.95 742.905Z" fill="#47D5B3"/>
<path d="M1550.57 539.176C1551.87 552.529 1549.1 564.747 1542.5 575.154C1532.65 590.713 1521.72 605.256 1507.52 616.31C1500.76 621.576 1494.52 627.651 1486.85 634.406C1487.32 627.234 1487.21 621.189 1488.18 615.441C1491.23 597.179 1499.65 582.301 1511.77 570.59C1523.72 559.033 1536.61 548.647 1549.09 537.754C1549.57 538.223 1550.07 538.705 1550.56 539.175L1550.57 539.176Z" fill="#12231A"/>
<path d="M398.964 1031.1C391.001 1052.97 375.845 1066.92 355.274 1074.18C343.704 1078.26 331.697 1081.58 319.482 1083.58C302.04 1086.46 284.881 1080.73 266.827 1072.46C269.882 1068.95 272.109 1065.85 274.838 1063.34C284.043 1054.89 293.468 1046.71 302.72 1038.32C321.292 1021.51 343.931 1017.43 369.102 1021.14C372.818 1021.68 376.539 1022.2 380.251 1022.72C386.482 1025.51 392.723 1028.31 398.955 1031.1L398.964 1031.1Z" fill="#224934"/>
<path d="M432.026 1137.87C452.764 1140.05 473.211 1141.39 491.522 1155.04C502.72 1163.39 511.518 1174.93 515.619 1188.32C519.743 1201.78 521.011 1215.92 523.533 1229.76C524.225 1233.56 522.839 1234.92 519.209 1234.58C507.548 1233.47 495.827 1233.59 484.265 1231.31C475.938 1229.68 467.553 1225.66 459.687 1221.44C452.462 1217.57 447.842 1210.62 444.911 1202.36C438.086 1183.14 432.771 1163.76 432.114 1143.74C432.06 1141.96 432.052 1140.18 432.016 1137.86L432.026 1137.87Z" fill="#47D5B3"/>
<path d="M1669.55 717.374C1668.33 724.157 1667.43 731.047 1665.83 737.683C1663.88 745.721 1661.63 753.657 1659.01 761.405C1655.94 770.452 1651.22 778.551 1644.05 784.149C1630.07 795.062 1616.24 806.393 1601.15 815.54C1589.95 822.323 1576.9 826.063 1562.64 826.138C1562.06 813.002 1564.83 801.077 1570.48 791.019C1578.48 776.782 1586.41 761.705 1597.65 750.751C1616.95 731.929 1641.66 721.866 1667.93 715.928C1668.47 716.408 1669.01 716.893 1669.55 717.374Z" fill="#12231A"/>
<path d="M1421.38 436.071C1433.16 410.744 1460.67 392.729 1498.15 401.269C1536.78 410.071 1563.82 444.557 1563.31 464.791C1554.62 460.269 1545.95 456.469 1537.88 451.443C1502.11 429.208 1465.8 426.863 1429.09 434.417C1426.84 434.885 1424.58 435.387 1421.39 436.075L1421.38 436.071Z" fill="#47D5B3"/>
<path d="M1734.7 413.991C1736.86 401.446 1742.81 391.386 1752.13 384.335C1766.04 373.788 1780.77 364.547 1797.88 359.635C1806.03 357.293 1813.86 354.032 1823.3 350.667C1820.97 356.987 1819.51 362.495 1817.05 367.35C1809.25 382.776 1796.95 393.219 1781.76 399.472C1766.77 405.644 1751.16 410.423 1735.82 415.807C1735.45 415.208 1735.08 414.594 1734.71 413.995L1734.7 413.991Z" fill="#12231A"/>
<path d="M586.463 906.882C566.282 918.474 545.702 919.379 525.295 911.674C513.816 907.342 502.497 902.14 491.862 895.806C476.672 886.765 467.238 871.331 458.759 853.375C463.357 852.659 467.059 851.721 470.764 851.559C483.25 851.027 495.729 850.843 508.207 850.391C533.24 849.503 553.186 860.966 570.043 880.024C572.535 882.832 575.045 885.629 577.551 888.416C580.518 894.565 583.49 900.723 586.458 906.872L586.463 906.882Z" fill="#224934"/>
<path d="M324.385 865.725C319.082 870.127 313.952 874.813 308.453 878.857C301.786 883.751 294.951 888.37 287.956 892.608C279.78 897.55 270.948 900.698 261.861 900.362C244.132 899.695 226.26 899.454 208.822 896.722C195.892 894.698 183.5 889.147 172.549 880.019C180.562 869.594 190.371 862.265 201.168 858.21C216.458 852.475 232.243 846.059 247.896 844.924C274.778 842.961 300.159 851.186 324.079 863.576C324.18 864.289 324.285 865.012 324.385 865.725Z" fill="#12231A"/>
<path d="M592.259 850.43C617.582 838.648 650.23 842.598 673.393 873.279C697.266 904.903 695.725 948.699 682.295 963.842C678.562 954.784 674.384 946.296 671.444 937.246C658.418 897.197 632.162 872.009 599.223 854.135C597.198 853.04 595.15 851.971 592.264 850.44L592.259 850.43Z" fill="#47D5B3"/>
<path d="M515.535 762.488C525.272 754.287 536.301 750.426 547.969 751.037C565.404 751.934 582.624 754.36 598.874 761.627C606.612 765.085 614.703 767.637 624.09 771.146C618.236 774.478 613.572 777.75 608.565 779.88C592.662 786.653 576.525 786.712 560.879 781.706C545.441 776.77 530.419 770.363 515.218 764.596C515.324 763.902 515.434 763.192 515.54 762.498L515.535 762.488Z" fill="#12231A"/>
<path d="M1102.86 1107.74C1124.76 1118.12 1145.89 1118.06 1165.9 1109.61C1177.15 1104.86 1188.15 1099.27 1198.32 1092.61C1212.84 1083.11 1220.78 1067.63 1227.47 1049.74C1222.7 1049.25 1218.81 1048.51 1215 1048.52C1202.19 1048.57 1189.41 1048.96 1176.61 1049.09C1150.93 1049.37 1131.81 1061.46 1116.68 1080.81C1114.45 1083.66 1112.19 1086.5 1109.94 1089.33C1107.58 1095.46 1105.22 1101.6 1102.87 1107.73L1102.86 1107.74Z" fill="#224934"/>
<path d="M1219.17 883.139C1206.06 898.454 1192.52 912.968 1189.65 934.882C1187.89 948.284 1190.21 962.382 1197.24 974.687C1204.31 987.058 1213.91 998.021 1222.39 1009.6C1224.73 1012.78 1226.72 1012.84 1229.05 1010.19C1236.51 1001.66 1244.93 993.975 1251.45 984.675C1256.15 977.985 1259.13 969.548 1261.58 961.31C1263.84 953.753 1261.96 945.707 1257.91 937.856C1248.48 919.566 1237.87 902.17 1223.47 887.398C1222.19 886.09 1220.87 884.811 1219.17 883.129L1219.17 883.139Z" fill="#47D5B3"/>
<path d="M822.427 1056.38C828.33 1060.43 834.09 1064.76 840.154 1068.45C847.507 1072.92 855 1077.11 862.615 1080.92C871.514 1085.36 880.887 1088.02 890.135 1087.28C908.18 1085.82 926.417 1084.76 943.936 1081.3C956.927 1078.74 968.979 1072.76 979.165 1063.36C969.828 1053.57 958.997 1046.87 947.517 1043.41C931.261 1038.52 914.423 1032.99 898.302 1032.6C870.615 1031.92 845.583 1041.1 822.503 1054.27C822.479 1054.97 822.451 1055.68 822.427 1056.38Z" fill="#12231A"/>
<path d="M1342.41 975.989C1349.46 974.729 1356.6 973.774 1363.51 972.147C1371.88 970.167 1380.16 967.893 1388.26 965.263C1397.71 962.182 1406.26 957.502 1412.33 950.482C1424.16 936.776 1436.41 923.226 1446.46 908.465C1453.91 897.521 1458.3 884.804 1458.96 870.96C1445.44 870.536 1433.02 873.368 1422.42 878.962C1407.4 886.887 1391.53 894.764 1379.77 905.8C1359.57 924.746 1348.18 948.852 1340.98 974.434C1341.46 974.949 1341.94 975.474 1342.41 975.989Z" fill="#224934"/>
<path d="M1090.72 1052.98C1063.55 1042.66 1030.62 1048 1010.33 1078.97C989.413 1110.89 995.81 1153.51 1011.2 1167.65C1014.02 1158.65 1017.35 1150.19 1019.36 1141.23C1028.26 1101.6 1052.32 1075.84 1084.01 1056.91C1085.96 1055.75 1087.94 1054.62 1090.72 1052.99L1090.72 1052.98Z" fill="#47D5B3"/>
<path d="M1159.44 963.748C1148.59 956.199 1136.89 952.941 1125.04 954.071C1107.32 955.743 1089.99 958.896 1074.18 966.725C1066.66 970.449 1058.67 973.308 1049.46 977.158C1055.81 980.137 1060.94 983.113 1066.29 984.96C1083.29 990.834 1099.78 990.153 1115.22 984.557C1130.45 979.038 1145.1 972.105 1160 965.787C1159.81 965.116 1159.62 964.429 1159.44 963.757L1159.44 963.748Z" fill="#12231A"/>
<path d="M157.404 772.842C136.669 758.623 115.258 754.567 93.8196 758.775C81.7603 761.14 69.847 764.361 58.618 768.772C42.5796 775.066 32.3821 788.369 23.1166 804.231C27.8878 805.629 31.7205 807.1 35.5752 807.829C48.5648 810.274 61.5565 812.385 74.5405 814.751C100.588 819.482 121.637 811.608 139.654 795.989C142.318 793.689 144.999 791.403 147.676 789.125C150.915 783.703 154.16 778.272 157.399 772.85L157.404 772.842Z" fill="#224934"/>
<path d="M251.823 808.144C267.236 796.003 282.969 784.713 288.93 764.247C292.577 751.732 292.189 737.754 286.781 724.579C281.348 711.335 273.153 698.947 266.17 686.184C264.25 682.678 262.238 682.236 259.514 684.329C250.77 691.057 241.172 696.791 233.271 704.443C227.575 709.946 223.388 717.462 219.755 724.887C216.41 731.697 217.199 739.784 220.204 748.104C227.207 767.488 235.532 786.244 248.065 803.221C249.181 804.725 250.334 806.208 251.818 808.152L251.823 808.144Z" fill="#47D5B3"/>
<path d="M77.3475 807.248C87.2883 816.603 98.6814 822.007 110.847 823.231C129.025 825.076 147.018 825.425 164.116 820.991C172.259 818.883 180.746 817.696 190.607 815.794C184.591 811.7 179.813 807.846 174.65 805.032C158.253 796.088 141.449 793.529 125.034 795.893C108.837 798.222 93.0377 802.022 77.0679 805.183C77.1615 805.863 77.2591 806.559 77.3527 807.24L77.3475 807.248Z" fill="#12231A"/>
<path d="M429.471 718.564C415.886 717.228 403.564 719.908 393.183 726.368C377.663 736.01 363.203 746.722 352.372 760.676C347.212 767.318 341.217 773.442 334.569 780.97C341.834 780.538 347.971 780.671 353.777 779.746C372.224 776.814 387.093 768.577 398.647 756.68C410.049 744.943 420.239 732.285 430.954 720.029C430.464 719.547 429.962 719.056 429.472 718.574L429.471 718.564Z" fill="#224934"/>
<path d="M469.566 1070.95C485.02 1093.08 504.602 1106.87 527.028 1113.62C539.643 1117.43 552.407 1120.42 564.906 1122.08C582.757 1124.45 597.279 1118.02 611.761 1108.95C607.566 1105.46 604.315 1102.35 600.789 1099.87C588.904 1091.52 576.903 1083.45 564.997 1075.17C541.105 1058.56 517.809 1055.13 494.841 1059.76C491.448 1060.44 488.043 1061.09 484.645 1061.75C479.624 1064.81 474.595 1067.88 469.574 1070.94L469.566 1070.95Z" fill="#224934"/>
<path d="M763.413 1021.66C744.181 1024.58 724.925 1026.62 712.108 1041.21C704.269 1050.13 699.881 1062.24 700.683 1076.09C701.486 1090.01 705.286 1104.54 707.77 1118.8C708.454 1122.71 710.275 1124.06 713.656 1123.59C724.512 1122.07 735.865 1121.81 746.211 1119.09C753.665 1117.14 760.328 1112.75 766.418 1108.17C772.016 1103.97 774.001 1096.69 773.897 1088.14C773.651 1068.22 771.895 1048.2 765.414 1027.67C764.834 1025.85 764.21 1024.03 763.421 1021.65L763.413 1021.66Z" fill="#47D5B3"/>
<path d="M259.556 869.059C240.324 871.983 221.069 874.025 208.251 888.611C200.412 897.53 196.025 909.643 196.827 923.494C197.629 937.416 201.429 951.939 203.914 966.198C204.598 970.115 206.418 971.463 209.799 970.992C220.655 969.47 232.008 969.208 242.355 966.491C249.809 964.544 256.472 960.151 262.562 955.568C268.159 951.371 270.145 944.091 270.04 935.542C269.794 915.625 268.039 895.605 261.557 875.073C260.978 873.252 260.354 871.429 259.564 869.055L259.556 869.059Z" fill="#47D5B3"/>
<path d="M315.984 892.064C319.57 898.971 322.891 905.998 326.792 912.742C331.526 920.911 336.517 928.965 341.797 936.815C347.972 945.98 355.41 954.119 364.313 959.616C381.687 970.332 399.052 981.482 416.868 990.352C430.077 996.93 444.001 1000.33 457.783 999.936C453.684 986.463 446.766 974.34 437.745 964.225C424.97 949.906 411.953 934.725 397.217 923.877C371.913 905.236 344.495 895.744 317.032 890.529C316.685 891.039 316.33 891.554 315.984 892.064Z" fill="#12231A"/>
<path d="M565.821 1065.18C545.461 1039.63 512.513 1022.08 479.381 1032.07C445.233 1042.36 431.395 1078.57 439.08 1099.28C445.859 1094.36 452.869 1090.18 458.879 1084.77C485.489 1060.81 519.69 1057.21 557.791 1063.74C560.133 1064.14 562.487 1064.58 565.813 1065.18L565.821 1065.18Z" fill="#47D5B3"/>
<path d="M670.777 1043.12C664.234 1030.34 654.921 1020.24 643.426 1013.32C626.256 1002.98 608.757 994 590.503 989.533C581.811 987.403 573.096 984.322 562.792 981.186C567.286 987.583 570.65 993.176 574.745 998.067C587.751 1013.61 603.332 1023.9 620.211 1029.8C636.865 1035.63 653.631 1040.01 670.346 1045.02C670.487 1044.39 670.629 1043.75 670.769 1043.13L670.777 1043.12Z" fill="#12231A"/>
<path d="M1596.86 322.014C1618.08 335.223 1639.49 338.163 1660.52 332.782C1672.35 329.757 1684 325.877 1694.91 320.836C1710.5 313.642 1719.96 299.703 1728.38 283.237C1723.59 282.084 1719.72 280.807 1715.86 280.279C1702.88 278.511 1689.91 277.08 1676.93 275.391C1650.9 272.019 1630.43 281.071 1613.33 297.759C1610.8 300.217 1608.26 302.663 1605.71 305.099C1602.76 310.731 1599.81 316.373 1596.86 322.005L1596.86 322.014Z" fill="#224934"/>
<path d="M1388.95 810.106C1383.21 834.437 1370.1 851.614 1351.39 862.629C1340.87 868.827 1329.87 874.287 1318.58 878.406C1302.46 884.294 1285.92 881.081 1268.34 875.338C1270.93 871.141 1272.77 867.509 1275.13 864.417C1283.09 854.008 1291.28 843.848 1299.29 833.501C1315.37 812.756 1336.27 804.741 1360.17 804.52C1363.69 804.481 1367.22 804.419 1370.74 804.354C1376.8 806.27 1382.88 808.188 1388.94 810.103L1388.95 810.106Z" fill="#224934"/>
<path d="M1758.68 167.256C1750.05 190.718 1751.52 212.274 1761.05 231.78C1766.41 242.753 1772.58 253.371 1779.73 263.034C1789.93 276.836 1805.5 283.275 1823.33 288.177C1823.49 283.25 1823.95 279.204 1823.69 275.323C1822.79 262.249 1821.56 249.257 1820.58 236.209C1818.6 210.035 1805.58 191.823 1785.77 178.466C1782.86 176.489 1779.94 174.491 1777.04 172.496C1770.93 170.751 1764.81 169.004 1758.69 167.259L1758.68 167.256Z" fill="#224934"/>
<path d="M1735.28 119.879C1720.59 132.927 1705.55 145.134 1700.63 166.059C1697.62 178.855 1698.67 192.909 1704.66 205.886C1710.68 218.931 1719.39 230.966 1726.92 243.444C1728.99 246.872 1731.01 247.209 1733.61 244.956C1741.95 237.715 1751.18 231.429 1758.64 223.302C1764.02 217.458 1767.8 209.666 1771.05 201.996C1774.03 194.96 1772.86 186.86 1769.49 178.643C1761.62 159.5 1752.47 141.06 1739.24 124.635C1738.06 123.18 1736.85 121.748 1735.28 119.87L1735.28 119.879Z" fill="#47D5B3"/>
<path d="M1984.69 261.801C1968.94 250.067 1953.93 237.813 1932.44 237.237C1919.3 236.883 1905.76 240.767 1894.26 249.265C1882.71 257.804 1872.69 268.777 1862 278.682C1859.06 281.404 1859.14 283.446 1861.88 285.533C1870.66 292.229 1878.69 299.995 1888.16 305.651C1894.97 309.731 1903.37 311.859 1911.54 313.479C1919.03 314.976 1926.73 312.187 1934.09 307.215C1951.24 295.627 1967.44 282.929 1980.84 266.642C1982.02 265.194 1983.18 263.715 1984.7 261.803L1984.69 261.801Z" fill="#47D5B3"/>
<path d="M1317.59 232.213C1323.19 236.992 1328.63 242.027 1334.43 246.48C1341.47 251.87 1348.67 257.011 1356.03 261.802C1364.63 267.39 1373.88 271.314 1383.32 271.903C1401.72 273.041 1420.29 274.603 1438.35 273.721C1451.74 273.068 1464.49 268.959 1475.67 261.255C1467.12 250.395 1456.76 242.34 1445.46 237.345C1429.44 230.276 1412.9 222.503 1396.61 219.835C1368.63 215.241 1342.44 220.625 1317.86 230.171C1317.77 230.849 1317.68 231.535 1317.59 232.213Z" fill="#12231A"/>
<path d="M1589.6 266.984C1563.02 253.076 1529.19 253.606 1505.79 280.871C1481.68 308.974 1484.24 351.37 1498.53 367.325C1502.21 358.964 1506.37 351.196 1509.22 342.763C1521.88 305.444 1548.61 283.788 1582.44 269.858C1584.52 269.005 1586.63 268.18 1589.59 266.993L1589.6 266.984Z" fill="#47D5B3"/>
<path d="M1667.39 189.871C1657.09 180.983 1645.54 176.15 1633.43 175.567C1615.34 174.681 1597.5 175.29 1580.77 180.668C1572.81 183.225 1564.46 184.874 1554.78 187.315C1560.94 191.117 1565.85 194.742 1571.1 197.299C1587.78 205.429 1604.55 207.108 1620.69 203.851C1636.63 200.641 1652.09 195.971 1667.76 191.936C1667.64 191.256 1667.51 190.56 1667.38 189.88L1667.39 189.871Z" fill="#12231A"/>
<path d="M1902.39 209.515C1909 197.63 1911.39 185.344 1909.5 173.367C1906.7 155.467 1902.49 138.121 1893.83 122.834C1889.71 115.554 1886.4 107.711 1882.05 98.7303C1879.57 105.53 1877.02 111.081 1875.58 116.74C1871 134.716 1872.76 151.477 1879.22 166.628C1885.6 181.579 1893.31 195.779 1900.44 210.303C1901.08 210.042 1901.73 209.773 1902.38 209.513L1902.39 209.515Z" fill="#12231A"/>
</svg>
